{
.appVersion = "3343";
.formatVersion = 3;
customParameters = (
{
name = vendorID;
value = NONE;
},
{
name = panose;
value = (
0,
0,
0,
0,
0,
0,
0,
0,
0,
0
);
},
{
name = unicodeRanges;
value = (
0,
1,
2,
3,
5,
6,
29,
31,
33,
35,
38
);
},
{
name = fsType;
value = (
);
},
{
name = glyphOrder;
value = (
.notdef,
A,
Aacute,
Abreve,
uni01CD,
Acircumflex,
Adieresis,
Agrave,
Amacron,
Aogonek,
Aring,
Atilde,
AE,
B,
C,
Cacute,
Ccaron,
Ccedilla,
Cdotaccent,
D,
Eth,
Dcaron,
Dcroat,
E,
Eacute,
Ecaron,
Ecircumflex,
Edieresis,
Edotaccent,
Egrave,
Emacron,
Eogonek,
F,
G,
Gbreve,
uni0122,
Gdotaccent,
H,
Hbar,
I,
IJ,
Iacute,
Icircumflex,
Idieresis,
Idotaccent,
Igrave,
Imacron,
Iogonek,
J,
K,
uni0136,
L,
Lacute,
Lcaron,
uni013B,
Lslash,
M,
N,
Nacute,
Ncaron,
uni0145,
Ntilde,
Eng,
O,
Oacute,
Ocircumflex,
Odieresis,
Ograve,
Ohungarumlaut,
Omacron,
Oslash,
Otilde,
OE,
P,
Thorn,
Q,
R,
Racute,
Rcaron,
uni0156,
S,
Sacute,
Scaron,
Scedilla,
uni0218,
uni1E9E,
T,
Tcaron,
uni021A,
U,
Uacute,
Ubreve,
Ucircumflex,
Udieresis,
Ugrave,
Uhungarumlaut,
Umacron,
Uogonek,
Uring,
V,
W,
Wacute,
Wcircumflex,
Wdieresis,
Wgrave,
X,
Y,
Yacute,
Ycircumflex,
Ydieresis,
Ygrave,
Z,
Zacute,
Zcaron,
Zdotaccent,
a,
aacute,
abreve,
uni01CE,
acircumflex,
adieresis,
agrave,
amacron,
aogonek,
aring,
atilde,
ae,
b,
c,
cacute,
ccaron,
ccedilla,
cdotaccent,
d,
eth,
dcaron,
dcroat,
e,
eacute,
ecaron,
ecircumflex,
edieresis,
edotaccent,
egrave,
emacron,
eogonek,
f,
g,
gbreve,
uni0123,
gdotaccent,
h,
hbar,
i,
dotlessi,
iacute,
icircumflex,
idieresis,
i.loclTRK,
igrave,
ij,
imacron,
iogonek,
j,
uni0237,
k,
uni0137,
l,
lacute,
lcaron,
uni013C,
lslash,
m,
n,
nacute,
ncaron,
uni0146,
ntilde,
eng,
o,
oacute,
ocircumflex,
odieresis,
ograve,
ohungarumlaut,
omacron,
oslash,
otilde,
oe,
p,
thorn,
q,
r,
racute,
rcaron,
uni0157,
s,
sacute,
scaron,
scedilla,
uni0219,
germandbls,
t,
tcaron,
uni021B,
u,
uacute,
ubreve,
ucircumflex,
udieresis,
ugrave,
uhungarumlaut,
umacron,
uogonek,
uring,
v,
w,
wacute,
wcircumflex,
wdieresis,
wgrave,

glyphs = (
{
glyphname = .notdef;
lastChange = "2025-07-18 22:37:03 +0000";
layers = (
{
layerId = m01;
shapes = (
{
closed = 1;
nodes = (
(417,-130,o),
(419,-122,qs),
(611,782,ls),
(613,790,o),
(605,790,qs),
(239,790,ls),
(231,790,o),
(229,782,qs),
(37,-122,ls),
(35,-130,o),
(43,-130,qs),
(409,-130,ls)
);
},
{
closed = 1;
nodes = (
(574,758,l),
(392,-98,l),
(74,-98,l),
(256,758,l)
);
}
);
userData = {
assembly = "NPUSHB[ ]	/* 51 values pushed */
8 3 2 3 0 9 2 2 1 2 2 76 0 0 0 3 2 0 3 103 0 2 1 1 2 87 0 2 2 1 95 4 1 1 2 1 79 0 0 15 14 13 12 0 11 0 11 21 5 6 23
CALL[ ]	/* CallFunction */";
};
width = 602;
}
);
note = .notdef;
},
{
glyphname = A;
kernLeft = A;
kernRight = A;
lastChange = "2025-10-05 12:22:06 +0000";
layers = (
{
anchors = (
{
name = bottom;
pos = (179,0);
},
{
name = ogonek;
pos = (335,0);
},
{
name = top;
pos = (337,740);
}
);
layerId = m01;
shapes = (
{
closed = 1;
nodes = (
(-75,0,l),
(94,0,l),
(103,44,l),
(38,44,l),
(140,266,l),
(295,266,l),
(304,44,l),
(215,44,l),
(206,0,l),
(422,0,l),
(431,44,l),
(375,44,l),
(352,740,l),
(312,740,l),
(-7,44,l),
(-66,44,l)
);
},
{
closed = 1;
nodes = (
(286,591,l),
(295,308,l),
(157,308,l)
);
}
);
userData = {
assembly = "NPUSHB[ ]	/* 56 values pushed */
52 1 5 1 1 76 7 1 5 0 4 3 5 4 103 0 1 1 20 77 0 3 3 0 95 2 6 2 0 0 15 0 78 50 48 1 0 48 55 50 55 38 35 29 28 26 23 13 11 0 47 1 46 8 7 22
CALL[ ]	/* CallFunction */";
};
width = 457;
}
);
note = A;
unicode = 65;
},
{
glyphname = AE;
kernRight = AE;
lastChange = "2025-10-05 12:22:51 +0000";
layers = (
{
anchors = (
{
name = bottom;
pos = (326,0);
},
{
name = ogonek;
pos = (612,0);
},
{
name = top;
pos = (639,720);
}
);
layerId = m01;
shapes = (
{
closed = 1;
nodes = (
(-65,0,l),
(104,0,l),
(113,44,l),
(46,44,l),
(455,732,l),
(413,732,l),
(1,44,l),
(-56,44,l)
);
},
{
closed = 1;
nodes = (
(170,268,l),
(360,268,l),
(368,308,l),
(178,308,l)
);
},
{
closed = 1;
nodes = (
(212,0,l),
(583,0,l),
(632,234,l),
(599,234,l),
(558,108,ls),
(541,59,o),
(515,45,o),
(467,45,cs),
(365,45,l),
(437,382,l),
(526,382,l),
(500,260,l),
(542,260,l),
(603,548,l),
(561,548,l),
(535,426,l),
(446,426,l),
(503,695,l),
(595,695,ls),
(643,695,o),
(664,681,o),
(660,633,cs),
(652,526,l),
(685,526,l),
(730,740,l),
(319,740,l),
(310,696,l),
(434,696,l),
(295,44,l),
(221,44,l)
);
}
);
userData = {
assembly = "NPUSHB[ ]	/* 96 values pushed */
19 1 3 1 20 1 2 3 66 1 6 7 67 1 0 6 4 76 0 2 3 4 3 2 4 128 0 7 5 6 5 7 6 128 10 1 4 9 1 5 7 4 5 105 0 3 3 1 95 0 1 1 14 77 0 6 6 0 96 8 11 2 0 0 15 0 78 1 0 99 96 83 80 71 68 65 63 59 57 53 50 36 33 29 27 23 21 18 15 0 93 1 92 12 7 22
CALL[ ]	/* CallFunction */";
};
width = 688;
}
);
note = AE;
unicode = 198;
},
{
glyphname = B;
kernLeft = B;
lastChange = "2025-10-05 12:23:36 +0000";
layers = (
{
layerId = m01;
shapes = (
{
closed = 1;
nodes = (
(-47,0,l),
(186,0,ls),
(322,0,o),
(411,74,o),
(440,209,cs),
(466,329,o),
(404,387,o),
(351,398,c),
(353,405,l),
(398,414,o),
(455,461,o),
(476,560,cs),
(501,677,o),
(458,740,o),
(337,740,cs),
(110,740,l),
(101,696,l),
(185,696,l),
(46,44,l),
(-38,44,l)
);
},
{
closed = 1;
nodes = (
(196,419,l),
(255,698,l),
(336,698,ls),
(401,698,o),
(421,673,o),
(407,608,cs),
(387,514,ls),
(373,449,o),
(342,419,o),
(277,419,cs)
);
},
{
closed = 1;
nodes = (
(116,42,l),
(187,378,l),
(268,378,ls),
(350,378,o),
(386,339,o),
(368,257,cs),
(347,158,ls),
(330,76,o),
(279,42,o),
(197,42,cs)
);
}
);
userData = {
assembly = "NPUSHB[ ]	/* 59 values pushed */
7 1 2 0 5 4 2 5 105 0 3 3 1 95 0 1 1 14 77 8 1 4 4 0 95 6 1 0 0 15 0 78 49 48 37 36 1 0 55 53 48 58 49 58 43 41 36 47 37 47 19 16 0 35 1 34 9 7 22
CALL[ ]	/* CallFunction */";
};
width = 477;
}
);
note = B;
unicode = 66;
},
{
glyphname = C;
kernLeft = C;
kernRight = C;
lastChange = "2025-10-05 12:28:27 +0000";
layers = (
{
anchors = (
{
name = bottom;
pos = (187,0);
},
{
name = top;
pos = (341,720);
}
);
layerId = m01;
shapes = (
{
closed = 1;
nodes = (
(265,-10,o),
(310,48,o),
(329,91,c),
(337,91,l),
(318,0,l),
(360,0,l),
(413,252,l),
(349,252,l),
(344,229,ls),
(318,105,o),
(256,37,o),
(196,37,cs),
(117,37,o),
(92,120,o),
(110,205,cs),
(180,535,ls),
(201,632,o),
(259,703,o),
(337,703,cs),
(397,703,o),
(439,665,o),
(406,511,cs),
(401,488,l),
(463,488,l),
(517,740,l),
(475,740,l),
(456,649,l),
(448,649,l),
(447,692,o),
(426,750,o),
(347,750,cs),
(211,750,o),
(102,560,o),
(61,370,cs),
(21,180,o),
(50,-10,o),
(186,-10,cs)
);
}
);
userData = {
assembly = "NPUSHB[ ]	/* 47 values pushed */
0 2 3 4 3 2 4 128 0 3 3 1 97 0 1 1 20 77 0 4 4 0 97 5 1 0 0 21 0 78 1 0 30 28 23 21 17 15 9 7 0 42 1 42 6 7 22
CALL[ ]	/* CallFunction */";
};
width = 457;
}
);
note = C;
unicode = 67;
},
{
glyphname = D;
kernLeft = B;
kernRight = D;
lastChange = "2025-10-05 12:28:56 +0000";
layers = (
{
anchors = (
{
name = bottom;
pos = (195,0);
},
{
name = top;
pos = (351,720);
}
);
layerId = m01;
shapes = (
{
closed = 1;
nodes = (
(-38,0,l),
(161,0,ls),
(328,0,o),
(445,185,o),
(484,370,cs),
(524,555,o),
(485,740,o),
(318,740,cs),
(119,740,l),
(110,696,l),
(194,696,l),
(55,44,l),
(-29,44,l)
);
},
{
closed = 1;
nodes = (
(309,698,ls),
(397,698,o),
(456,634,o),
(432,517,cs),
(369,223,ls),
(344,106,o),
(258,42,o),
(170,42,cs),
(125,42,l),
(264,698,l)
);
}
);
userData = {
assembly = "NPUSHB[ ]	/* 42 values pushed */
0 3 3 1 95 0 1 1 14 77 5 1 2 2 0 95 4 1 0 0 15 0 78 27 26 1 0 33 31 26 37 27 37 18 15 0 25 1 24 6 7 22
CALL[ ]	/* CallFunction */";
};
width = 503;
}
);
note = D;
unicode = 68;
},
{
glyphname = Eth;
kernLeft = B;
kernRight = D;
lastChange = "2025-10-05 12:54:33 +0000";
layers = (
{
anchors = (
{
name = bottom;
pos = (266,0);
},
{
name = top;
pos = (256,720);
}
);
layerId = m01;
shapes = (
{
pos = (1,0);
ref = D;
},
{
closed = 1;
nodes = (
(40,351,l),
(316,351,l),
(324,393,l),
(48,393,l)
);
}
);
userData = {
assembly = "NPUSHB[ ]	/* 60 values pushed */
6 1 2 7 1 1 4 2 1 105 0 5 5 3 95 0 3 3 14 77 9 1 4 4 0 95 8 1 0 0 15 0 78 35 34 1 0 50 48 45 43 41 39 34 53 35 53 26 23 15 13 10 8 0 33 1 32 10 7 22
CALL[ ]	/* CallFunction */";
};
width = 504;
}
);
note = Eth;
unicode = 208;
},
{
glyphname = E;
kernLeft = B;
kernRight = AE;
lastChange = "2025-10-05 12:29:19 +0000";
layers = (
{
anchors = (
{
name = bottom;
pos = (175,0);
},
{
name = ogonek;
pos = (333,0);
},
{
name = top;
pos = (329,720);
}
);
layerId = m01;
shapes = (
{
closed = 1;
nodes = (
(-38,0,l),
(373,0,l),
(422,234,l),
(389,234,l),
(348,108,ls),
(331,59,o),
(305,45,o),
(257,45,cs),
(125,45,l),
(197,382,l),
(306,382,l),
(280,260,l),
(322,260,l),
(383,548,l),
(341,548,l),
(315,426,l),
(206,426,l),
(263,695,l),
(385,695,ls),
(433,695,o),
(454,681,o),
(450,633,cs),
(442,526,l),
(475,526,l),
(520,740,l),
(119,740,l),
(110,696,l),
(194,696,l),
(55,44,l),
(-29,44,l)
);
}
);
userData = {
assembly = "NPUSHB[ ]	/* 87 values pushed */
20 1 3 1 21 1 2 3 67 1 6 7 68 1 0 6 4 76 0 2 3 4 3 2 4 128 0 7 5 6 5 7 6 128 0 4 0 5 7 4 5 105 0 3 3 1 95 0 1 1 14 77 0 6 6 0 96 8 1 0 0 15 0 78 1 0 66 64 60 58 54 51 37 34 30 28 24 22 19 16 0 70 1 69 9 7 22
CALL[ ]	/* CallFunction */";
};
width = 463;
}
);
note = E;
unicode = 69;
},
{
glyphname = F;
kernLeft = B;
lastChange = "2025-10-05 12:32:30 +0000";
layers = (
{
layerId = m01;
shapes = (
{
closed = 1;
nodes = (
(-38,0,l),
(278,0,l),
(287,44,l),
(121,44,l),
(193,382,l),
(288,382,l),
(262,260,l),
(302,260,l),
(363,548,l),
(323,548,l),
(297,426,l),
(202,426,l),
(259,695,l),
(365,695,ls),
(413,695,o),
(443,681,o),
(435,633,cs),
(417,526,l),
(455,526,l),
(500,740,l),
(119,740,l),
(110,696,l),
(190,696,l),
(51,44,l),
(-29,44,l)
);
}
);
userData = {
assembly = "NPUSHB[ ]	/* 10 values pushed */
20 1 3 1 21 1 2 3 2 76
MPPEM[ ]	/* MeasurePixelPerEm */
PUSHB[ ]	/* 1 value pushed */
42
LT[ ]	/* LessThan */
IF[ ]	/* If */
NPUSHB[ ]	/* 43 values pushed */
0 2 3 5 3 2 5 128 0 4 0 7 6 4 7 105 0 3 3 1 95 0 1 1 14 77 0 6 6 5 97 0 5 5 17 77 8 1 0 0 15 0 78
ELSE[ ]	/* Else */
NPUSHB[ ]	/* 41 values pushed */
0 2 3 5 3 2 5 128 0 4 0 7 6 4 7 105 0 5 0 6 0 5 6 105 0 3 3 1 95 0 1 1 14 77 8 1 0 0 15 0 78
EIF[ ]	/* EndIf */
NPUSHB[ ]	/* 23 values pushed */
1 0 55 52 48 46 43 41 38 35 31 29 24 22 19 16 0 65 1 64 9 7 22
CALL[ ]	/* CallFunction */";
};
width = 419;
}
);
note = F;
unicode = 70;
},
{
glyphname = G;
kernLeft = C;
kernRight = G;
lastChange = "2025-10-05 12:32:49 +0000";
layers = (
{
anchors = (
{
name = bottom;
pos = (169,-10);
},
{
name = top;
pos = (327,732);
}
);
layerId = m01;
shapes = (
{
closed = 1;
nodes = (
(252,-10,o),
(300,64,o),
(322,120,c),
(331,120,l),
(306,0,l),
(351,0,l),
(437,404,l),
(225,404,l),
(215,360,l),
(361,360,l),
(350,307,ls),
(321,173,o),
(278,37,o),
(178,37,cs),
(109,37,o),
(83,127,o),
(103,222,cs),
(167,525,ls),
(189,629,o),
(249,703,o),
(323,703,cs),
(390,703,o),
(424,645,o),
(395,511,cs),
(390,488,l),
(452,488,l),
(506,740,l),
(464,740,l),
(445,649,l),
(437,649,l),
(435,692,o),
(414,750,o),
(340,750,cs),
(199,750,o),
(91,560,o),
(50,368,cs),
(5,158,o),
(51,-10,o),
(170,-10,cs)
);
}
);
userData = {
assembly = "NPUSHB[ ]	/* 56 values pushed */
0 2 3 5 3 2 5 128 0 5 4 3 5 4 126 0 3 3 1 97 0 1 1 20 77 0 4 4 0 97 6 1 0 0 21 0 78 1 0 42 39 29 27 23 21 17 15 9 7 0 55 1 55 7 7 22
CALL[ ]	/* CallFunction */";
};
width = 448;
}
);
note = G;
unicode = 71;
},
{
glyphname = H;
kernLeft = B;
kernRight = H;
lastChange = "2025-10-05 12:48:19 +0000";
layers = (
{
layerId = m01;
shapes = (
{
closed = 1;
nodes = (
(-33,0,l),
(175,0,l),
(184,44,l),
(118,44,l),
(189,379,l),
(402,379,l),
(331,44,l),
(265,44,l),
(256,0,l),
(464,0,l),
(473,44,l),
(397,44,l),
(536,696,l),
(612,696,l),
(621,740,l),
(413,740,l),
(404,696,l),
(470,696,l),
(411,421,l),
(198,421,l),
(257,696,l),
(323,696,l),
(332,740,l),
(124,740,l),
(115,696,l),
(191,696,l),
(52,44,l),
(-24,44,l)
);
}
);
userData = {
assembly = "NPUSHB[ ]	/* 41 values pushed */
0 2 0 5 0 2 5 103 3 1 1 1 14 77 4 6 2 0 0 15 0 78 1 0 73 70 61 58 43 40 31 28 19 16 0 83 1 82 7 7 22
CALL[ ]	/* CallFunction */";
};
width = 545;
}
);
note = H;
unicode = 72;
},
{
glyphname = Hbar;
kernLeft = B;
kernRight = H;
lastChange = "2025-10-05 12:48:45 +0000";
layers = (
{
layerId = m01;
shapes = (
{
pos = (5,0);
ref = H;
},
{
closed = 1;
nodes = (
(78,525,l),
(586,525,l),
(596,569,l),
(88,569,l)
);
}
);
userData = {
assembly = "NPUSHB[ ]	/* 70 values pushed */
6 4 2 2 11 7 2 1 10 2 1 106 13 1 10 0 9 0 10 9 103 5 1 3 3 14 77 8 12 2 0 0 15 0 78 98 96 1 0 101 100 96 103 98 103 85 82 73 70 62 60 57 55 47 44 36 35 27 24 16 14 11 9 0 95 1 94 14 7 22
CALL[ ]	/* CallFunction */";
};
width = 556;
}
);
note = Hbar;
unicode = 294;
},
{
glyphname = I;
kernLeft = B;
kernRight = H;
lastChange = "2025-10-05 12:49:10 +0000";
layers = (
{
anchors = (
{
name = bottom;
pos = (85,0);
},
{
name = ogonek;
pos = (112,0);
},
{
name = top;
pos = (239,720);
}
);
layerId = m01;
shapes = (
{
closed = 1;
nodes = (
(-52,0,l),
(226,0,l),
(235,44,l),
(131,44,l),
(270,696,l),
(374,696,l),
(383,740,l),
(105,740,l),
(96,696,l),
(200,696,l),
(61,44,l),
(-43,44,l)
);
}
);
userData = {
assembly = "NPUSHB[ ]	/* 23 values pushed */
0 1 1 14 77 2 1 0 0 15 0 78 1 0 19 16 0 35 1 34 3 7 22
CALL[ ]	/* CallFunction */";
};
width = 288;
}
);
note = I;
unicode = 73;
},
{
glyphname = J;
kernRight = IJ;
lastChange = "2025-10-05 12:53:09 +0000";
layers = (
{
layerId = m01;
shapes = (
{
closed = 1;
nodes = (
(270,696,l),
(354,696,l),
(363,740,l),
(107,740,l),
(98,696,l),
(200,696,l),
(58,28,ls),
(33,-87,o),
(-15,-153,o),
(-102,-151,cs),
(-145,-150,o),
(-122,-66,o),
(-187,-59,cs),
(-216,-56,o),
(-239,-76,o),
(-245,-102,cs),
(-255,-149,o),
(-212,-190,o),
(-123,-190,cs),
(22,-190,o),
(98,-92,o),
(128,30,c)
);
}
);
userData = {
assembly = "MPPEM[ ]	/* MeasurePixelPerEm */
PUSHB[ ]	/* 1 value pushed */
19
LT[ ]	/* LessThan */
IF[ ]	/* If */
NPUSHB[ ]	/* 24 values pushed */
0 1 3 2 2 1 114 0 3 3 14 77 0 2 2 0 98 4 1 0 0 25 0 78
ELSE[ ]	/* Else */
NPUSHB[ ]	/* 25 values pushed */
0 1 3 2 3 1 2 128 0 3 3 14 77 0 2 2 0 98 4 1 0 0 25 0 78
EIF[ ]	/* EndIf */
NPUSHB[ ]	/* 15 values pushed */
1 0 25 22 12 10 7 5 0 35 1 35 5 7 22
CALL[ ]	/* CallFunction */";
};
width = 289;
}
);
note = J;
unicode = 74;
},
{
glyphname = K;
kernLeft = B;
kernRight = K;
lastChange = "2025-10-05 12:53:45 +0000";
layers = (
{
anchors = (
{
name = bottom;
pos = (210,0);
},
{
name = top;
pos = (344,720);
}
);
layerId = m01;
shapes = (
{
closed = 1;
nodes = (
(-36,0,l),
(184,0,l),
(193,44,l),
(107,44,l),
(159,287,l),
(221,365,l),
(313,44,l),
(239,44,l),
(230,0,l),
(454,0,l),
(463,44,l),
(387,44,l),
(278,431,l),
(492,696,l),
(576,696,l),
(585,740,l),
(400,740,l),
(391,696,l),
(445,696,l),
(174,360,l),
(246,696,l),
(312,696,l),
(321,740,l),
(121,740,l),
(112,696,l),
(178,696,l),
(39,44,l),
(-27,44,l)
);
}
);
userData = {
assembly = "NPUSHB[ ]	/* 29 values pushed */
2 1 1 1 14 77 3 4 2 0 0 15 0 78 1 0 61 58 40 37 19 16 0 84 1 83 5 7 22
CALL[ ]	/* CallFunction */";
};
width = 496;
}
);
note = K;
unicode = 75;
},
{
glyphname = L;
kernLeft = B;
kernRight = L;
lastChange = "2025-10-05 12:54:05 +0000";
layers = (
{
anchors = (
{
name = bottom;
pos = (149,0);
},
{
name = top;
pos = (221,720);
}
);
layerId = m01;
shapes = (
{
closed = 1;
nodes = (
(-49,0,l),
(332,0,l),
(381,234,l),
(348,234,l),
(307,108,ls),
(290,59,o),
(264,45,o),
(216,45,cs),
(114,45,l),
(253,696,l),
(337,696,l),
(346,740,l),
(108,740,l),
(99,696,l),
(183,696,l),
(44,44,l),
(-40,44,l)
);
}
);
userData = {
assembly = "NPUSHB[ ]	/* 50 values pushed */
39 1 2 3 40 1 0 2 2 76 0 3 1 2 1 3 2 128 0 1 1 14 77 0 2 2 0 96 4 1 0 0 15 0 78 1 0 38 36 31 29 19 16 0 42 1 41 5 7 22
CALL[ ]	/* CallFunction */";
};
width = 413;
}
);
note = L;
unicode = 76;
},
{
glyphname = Lslash;
kernLeft = B;
kernRight = L;
lastChange = "2025-10-05 12:54:54 +0000";
layers = (
{
anchors = (
{
name = bottom;
pos = (207,0);
},
{
name = top;
pos = (125,720);
}
);
layerId = m01;
shapes = (
{
ref = L;
},
{
closed = 1;
nodes = (
(9,267,l),
(334,437,l),
(343,479,l),
(18,309,l)
);
}
);
userData = {
assembly = "NPUSHB[ ]	/* 57 values pushed */
42 35 16 9 4 3 1 55 1 2 3 56 1 0 2 3 76 0 3 1 2 1 3 2 128 0 1 1 14 77 0 2 2 0 96 4 1 0 0 15 0 78 1 0 54 52 47 45 27 24 0 58 1 57 5 7 22
CALL[ ]	/* CallFunction */";
};
width = 413;
}
);
note = Lslash;
unicode = 321;
},
{
glyphname = M;
lastChange = "2025-10-05 12:55:12 +0000";
layers = (
{
layerId = m01;
shapes = (
{
closed = 1;
nodes = (
(-41,0,l),
(127,0,l),
(136,44,l),
(82,44,l),
(230,740,l),
(116,740,l),
(107,696,l),
(177,696,l),
(38,44,l),
(-32,44,l)
);
},
{
closed = 1;
nodes = (
(410,44,l),
(356,44,l),
(347,0,l),
(543,0,l),
(552,44,l),
(478,44,l),
(617,696,l),
(691,696,l),
(700,740,l),
(558,740,l)
);
},
{
closed = 1;
nodes = (
(210,0,l),
(260,62,l),
(230,740,l),
(182,640,l)
);
},
{
closed = 1;
nodes = (
(211,0,l),
(251,0,l),
(598,740,l),
(558,740,l)
);
}
);
userData = {
assembly = "NPUSHB[ ]	/* 35 values pushed */
72 1 2 1 1 76 0 2 1 0 1 2 0 128 3 1 1 1 14 77 4 1 0 0 15 0 78 63 51 19 63 63 5 7 27
CALL[ ]	/* CallFunction */";
};
width = 616;
}
);
note = M;
unicode = 77;
},
{
glyphname = N;
kernLeft = N;
kernRight = N;
lastChange = "2025-10-05 12:55:30 +0000";
layers = (
{
anchors = (
{
name = bottom;
pos = (192,0);
},
{
name = top;
pos = (344,720);
}
);
layerId = m01;
shapes = (
{
closed = 1;
nodes = (
(321,-10,l),
(355,-10,l),
(505,696,l),
(569,696,l),
(578,740,l),
(396,740,l),
(387,696,l),
(461,696,l),
(350,176,l),
(229,740,l),
(117,740,l),
(108,696,l),
(172,696,l),
(33,44,l),
(-31,44,l),
(-40,0,l),
(142,0,l),
(151,44,l),
(77,44,l),
(192,586,l)
);
}
);
userData = {
assembly = "NPUSHB[ ]	/* 33 values pushed */
3 1 2 2 14 77 0 1 1 15 77 4 1 0 0 21 0 78 1 0 51 48 35 32 17 14 0 61 1 61 5 7 22
CALL[ ]	/* CallFunction */";
};
width = 490;
}
);
note = N;
unicode = 78;
},
{
glyphname = Eng;
kernLeft = N;
kernRight = N;
lastChange = "2025-10-05 12:55:59 +0000";
layers = (
{
layerId = m01;
shapes = (
{
closed = 1;
nodes = (
(293,-180,o),
(338,-90,o),
(355,-10,c),
(320,25,l),
(313,-10,l),
(292,-107,o),
(250,-151,o),
(185,-137,cs),
(148,-129,o),
(170,-73,o),
(124,-62,cs),
(98,-56,o),
(68,-74,o),
(62,-104,cs),
(52,-147,o),
(91,-180,o),
(163,-180,cs)
);
},
{
ref = N;
}
);
userData = {
assembly = "MPPEM[ ]	/* MeasurePixelPerEm */
PUSHB[ ]	/* 1 value pushed */
23
LT[ ]	/* LessThan */
IF[ ]	/* If */
NPUSHB[ ]	/* 30 values pushed */
0 1 3 2 2 1 114 5 1 4 4 14 77 0 3 3 15 77 0 2 2 0 98 6 1 0 0 25 0 78
ELSE[ ]	/* Else */
NPUSHB[ ]	/* 31 values pushed */
0 1 3 2 3 1 2 128 5 1 4 4 14 77 0 3 3 15 77 0 2 2 0 98 6 1 0 0 25 0 78
EIF[ ]	/* EndIf */
NPUSHB[ ]	/* 19 values pushed */
1 0 66 63 50 47 32 29 12 10 7 5 0 76 1 76 7 7 22
CALL[ ]	/* CallFunction */";
};
width = 490;
}
);
note = Eng;
unicode = 330;
},
{
glyphname = O;
kernLeft = C;
kernRight = D;
lastChange = "2025-10-05 12:56:14 +0000";
layers = (
{
anchors = (
{
name = bottom;
pos = (167,0);
},
{
name = ogonek;
pos = (385,10);
},
{
name = top;
pos = (321,720);
}
);
layerId = m01;
shapes = (
{
closed = 1;
nodes = (
(303,-10,o),
(411,180,o),
(451,370,cs),
(492,560,o),
(464,750,o),
(327,750,cs),
(191,750,o),
(82,560,o),
(41,370,cs),
(1,180,o),
(30,-10,o),
(166,-10,cs)
);
},
{
closed = 1;
nodes = (
(97,37,o),
(68,100,o),
(92,215,cs),
(158,525,ls),
(183,640,o),
(239,703,o),
(317,703,cs),
(395,703,o),
(425,640,o),
(400,525,cs),
(334,215,ls),
(310,100,o),
(254,37,o),
(176,37,cs)
);
}
);
userData = {
assembly = "NPUSHB[ ]	/* 42 values pushed */
0 3 3 1 97 0 1 1 20 77 5 1 2 2 0 97 4 1 0 0 21 0 78 21 20 1 0 27 25 20 31 21 31 11 9 0 19 1 19 6 7 22
CALL[ ]	/* CallFunction */";
};
vertOrigin = 200;
vertWidth = 810;
width = 450;
}
);
note = O;
unicode = 79;
},
{
glyphname = Oslash;
kernLeft = C;
kernRight = D;
lastChange = "2025-10-05 12:56:38 +0000";
layers = (
{
anchors = (
{
name = bottom;
pos = (243,0);
},
{
name = ogonek;
pos = (459,10);
},
{
name = top;
pos = (243,720);
}
);
layerId = m01;
shapes = (
{
ref = O;
},
{
closed = 1;
nodes = (
(-33,-60,l),
(11,-60,l),
(524,790,l),
(480,790,l)
);
}
);
userData = {
assembly = "NPUSHB[ ]	/* 69 values pushed */
52 51 40 39 32 21 14 3 8 5 4 1 76 0 2 1 2 133 6 1 0 3 0 134 0 4 4 1 97 0 1 1 20 77 7 1 5 5 3 97 0 3 3 21 3 78 46 45 1 0 45 53 46 53 43 41 30 28 19 16 12 10 0 35 1 34 8 7 22
CALL[ ]	/* CallFunction */";
};
vertOrigin = 20;
vertWidth = 890;
width = 450;
}
);
note = Oslash;
unicode = 216;
},
{
glyphname = OE;
kernLeft = C;
kernRight = AE;
lastChange = "2025-10-05 12:57:00 +0000";
layers = (
{
layerId = m01;
shapes = (
{
closed = 1;
nodes = (
(21,180,o),
(56,0,o),
(185,0,c),
(596,0,l),
(645,234,l),
(613,234,l),
(572,108,ls),
(555,59,o),
(528,45,o),
(480,45,cs),
(348,45,l),
(420,382,l),
(529,382,l),
(503,260,l),
(545,260,l),
(606,548,l),
(564,548,l),
(538,426,l),
(429,426,l),
(486,695,l),
(608,695,ls),
(656,695,o),
(678,681,o),
(674,633,cs),
(666,526,l),
(698,526,l),
(743,740,l),
(342,740,l),
(205,740,o),
(102,560,o),
(61,370,c)
);
},
{
closed = 1;
nodes = (
(118,44,o),
(88,100,o),
(112,215,c),
(178,525,l),
(203,639,o),
(258,696,o),
(333,696,c),
(417,696,l),
(278,44,l),
(194,44,l)
);
}
);
userData = {
assembly = "NPUSHB[ ]	/* 120 values pushed */
15 1 4 11 16 1 3 4 62 1 7 8 63 1 10 7 4 76 0 3 4 5 4 3 5 128 0 8 6 7 6 8 7 128 0 5 0 6 8 5 6 105 0 11 11 1 97 0 1 1 20 77 0 4 4 2 95 0 2 2 14 77 0 7 7 9 96 0 9 9 15 77 13 1 10 10 0 97 12 1 0 0 21 0 78 70 69 1 0 77 75 69 81 70 81 67 64 61 59 55 53 49 46 32 29 25 23 19 17 14 11 10 8 0 68 1 68 14 7 22
CALL[ ]	/* CallFunction */";
};
width = 683;
}
);
note = OE;
unicode = 338;
},
{
glyphname = P;
kernLeft = B;
lastChange = "2025-10-05 12:57:17 +0000";
layers = (
{
layerId = m01;
shapes = (
{
closed = 1;
nodes = (
(-39,0,l),
(277,0,l),
(286,44,l),
(124,44,l),
(176,290,l),
(211,290,ls),
(375,290,o),
(461,403,o),
(485,515,cs),
(509,628,o),
(471,740,o),
(307,740,cs),
(118,740,l),
(109,696,l),
(193,696,l),
(54,44,l),
(-30,44,l)
);
},
{
closed = 1;
nodes = (
(186,337,l),
(262,693,l),
(320,693,ls),
(409,693,o),
(428,644,o),
(409,555,cs),
(392,475,ls),
(373,386,o),
(333,337,o),
(244,337,cs)
);
}
);
userData = {
assembly = "NPUSHB[ ]	/* 42 values pushed */
0 3 0 2 0 3 2 103 0 4 4 1 95 0 1 1 14 77 5 1 0 0 15 0 78 1 0 48 46 42 40 28 25 19 16 0 38 1 37 6 7 22
CALL[ ]	/* CallFunction */";
};
width = 473;
}
);
note = P;
unicode = 80;
},
{
glyphname = Thorn;
kernLeft = B;
lastChange = "2025-10-05 12:58:01 +0000";
layers = (
{
layerId = m01;
shapes = (
{
closed = 1;
nodes = (
(-39,0,l),
(247,0,l),
(256,44,l),
(124,44,l),
(146,145,l),
(181,145,ls),
(345,145,o),
(431,258,o),
(454,370,cs),
(478,483,o),
(440,595,o),
(276,595,cs),
(241,595,l),
(263,696,l),
(395,696,l),
(404,740,l),
(118,740,l),
(109,696,l),
(193,696,l),
(54,44,l),
(-30,44,l)
);
},
{
closed = 1;
nodes = (
(156,192,l),
(231,548,l),
(289,548,ls),
(378,548,o),
(397,499,o),
(378,410,cs),
(361,330,ls),
(342,241,o),
(303,192,o),
(214,192,cs)
);
}
);
userData = {
assembly = "NPUSHB[ ]	/* 52 values pushed */
0 2 0 5 4 2 5 106 7 1 4 0 3 0 4 3 103 0 1 1 14 77 6 1 0 0 15 0 78 52 51 1 0 58 56 51 61 52 61 40 37 31 28 19 16 0 50 1 49 8 7 22
CALL[ ]	/* CallFunction */";
};
width = 473;
}
);
note = Thorn;
unicode = 222;
},
{
glyphname = Q;
kernLeft = C;
kernRight = D;
lastChange = "2025-10-05 12:58:32 +0000";
layers = (
{
layerId = m01;
shapes = (
{
closed = 1;
nodes = (
(184,-10,o),
(191,-9,o),
(198,-8,c),
(184,-72,ls),
(170,-142,o),
(191,-180,o),
(244,-180,cs),
(309,-180,o),
(341,-123,o),
(350,-78,cs),
(367,0,l),
(327,0,l),
(310,-78,ls),
(307,-93,o),
(302,-130,o),
(265,-130,cs),
(224,-130,o),
(238,-90,o),
(241,-72,cs),
(260,15,l),
(356,72,o),
(430,221,o),
(461,370,cs),
(502,560,o),
(474,750,o),
(337,750,cs),
(201,750,o),
(92,560,o),
(51,370,cs),
(11,180,o),
(40,-10,o),
(176,-10,cs)
);
},
{
closed = 1;
nodes = (
(169,529,ls),
(194,644,o),
(249,703,o),
(327,703,cs),
(405,703,o),
(436,644,o),
(411,529,cs),
(342,205,ls),
(328,138,o),
(304,94,o),
(270,64,c),
(275,84,ls),
(289,150,o),
(270,187,o),
(222,187,cs),
(176,187,o),
(142,153,o),
(131,99,cs),
(124,69,o),
(129,54,o),
(139,41,c),
(96,62,o),
(81,115,o),
(100,205,cs)
);
},
{
closed = 1;
nodes = (
(178,32,o),
(150,40,o),
(162,94,cs),
(169,127,o),
(180,141,o),
(201,141,cs),
(232,141,o),
(222,104,o),
(220,95,cs),
(207,34,l)
);
}
);
userData = {
assembly = "NPUSHB[ ]	/* 52 values pushed */
6 1 3 4 2 4 3 2 128 0 4 4 1 97 0 1 1 20 77 0 2 2 0 97 5 1 0 0 25 0 78 45 44 1 0 51 49 44 55 45 55 35 33 17 15 0 43 1 43 7 7 22
CALL[ ]	/* CallFunction */";
};
width = 470;
}
);
note = Q;
unicode = 81;
},
{
glyphname = R;
kernLeft = B;
kernRight = R;
lastChange = "2025-10-05 12:59:46 +0000";
layers = (
{
anchors = (
{
name = bottom;
pos = (219,0);
},
{
name = top;
pos = (353,720);
}
);
layerId = m01;
shapes = (
{
closed = 1;
nodes = (
(418,-10,o),
(448,47,o),
(457,92,cs),
(495,268,l),
(455,268,l),
(418,95,ls),
(412,67,o),
(405,37,o),
(375,37,cs),
(338,37,o),
(351,80,o),
(355,101,cs),
(393,277,ls),
(407,346,o),
(381,372,o),
(325,384,cs),
(321,385,l),
(322,391,l),
(327,392,ls),
(421,410,o),
(483,469,o),
(503,559,cs),
(520,641,o),
(497,740,o),
(348,740,cs),
(118,740,l),
(109,696,l),
(193,696,l),
(54,44,l),
(-30,44,l),
(-39,0,l),
(198,0,l),
(207,44,l),
(124,44,l),
(193,370,l),
(241,370,ls),
(322,370,o),
(339,350,o),
(324,277,cs),
(284,93,ls),
(272,32,o),
(294,-10,o),
(350,-10,cs)
);
},
{
closed = 1;
nodes = (
(202,412,l),
(263,698,l),
(322,698,ls),
(411,698,o),
(444,669,o),
(425,580,cs),
(413,525,ls),
(394,436,o),
(350,412,o),
(261,412,cs)
);
}
);
userData = {
assembly = "NPUSHB[ ]	/* 61 values pushed */
8 1 5 0 1 4 5 1 105 0 6 6 3 95 0 3 3 14 77 0 2 2 15 77 0 4 4 0 97 7 1 0 0 21 0 78 65 64 1 0 71 69 64 74 65 74 55 54 39 36 21 18 8 6 0 63 1 63 9 7 22
CALL[ ]	/* CallFunction */";
};
width = 523;
}
);
note = R;
unicode = 82;
},
{
glyphname = S;
kernLeft = S;
kernRight = S;
lastChange = "2025-10-05 13:00:07 +0000";
layers = (
{
anchors = (
{
name = bottom;
pos = (163,0);
},
{
name = top;
pos = (337,720);
}
);
layerId = m01;
shapes = (
{
closed = 1;
nodes = (
(266,-10,o),
(358,56,o),
(380,160,cs),
(422,359,o),
(157,461,o),
(191,622,cs),
(203,677,o),
(242,707,o),
(297,707,cs),
(378,707,o),
(400,632,o),
(377,524,cs),
(370,492,l),
(432,492,l),
(485,740,l),
(448,740,l),
(427,642,l),
(419,642,l),
(419,682,o),
(397,750,o),
(304,750,cs),
(220,750,o),
(139,692,o),
(119,599,cs),
(79,410,o),
(347,319,o),
(308,136,cs),
(293,65,o),
(242,34,o),
(178,34,cs),
(46,34,o),
(83,208,o),
(95,266,cs),
(101,295,l),
(39,295,l),
(-23,0,l),
(14,0,l),
(41,130,l),
(49,130,l),
(47,90,o),
(56,-10,o),
(172,-10,cs)
);
}
);
userData = {
assembly = "NPUSHB[ ]	/* 56 values pushed */
0 4 5 1 5 4 1 128 0 1 2 5 1 2 126 0 5 5 3 97 0 3 3 20 77 0 2 2 0 97 6 1 0 0 21 0 78 1 0 43 41 37 35 28 26 16 14 11 9 0 54 1 54 7 7 22
CALL[ ]	/* CallFunction */";
};
width = 437;
}
);
note = S;
unicode = 83;
},
{
glyphname = uni1E9E;
lastChange = "2025-10-05 13:00:29 +0000";
layers = (
{
layerId = m01;
shapes = (
{
closed = 1;
nodes = (
(416,-10,o),
(474,48,o),
(492,134,cs),
(527,297,o),
(326,386,o),
(357,534,cs),
(375,620,o),
(464,625,o),
(527,620,c),
(540,680,o),
(531,773,o),
(396,773,cs),
(267,773,o),
(201,699,o),
(173,565,cs),
(167,540,l),
(71,530,l),
(65,498,l),
(159,498,l),
(63,48,l),
(-56,38,l),
(-64,0,l),
(121,0,l),
(245,585,ls),
(269,700,o),
(309,737,o),
(380,737,cs),
(447,737,o),
(475,706,o),
(463,652,c),
(399,651,o),
(307,612,o),
(285,511,cs),
(248,334,o),
(452,259,o),
(422,120,cs),
(410,61,o),
(387,34,o),
(339,34,cs),
(256,34,o),
(285,179,o),
(290,206,cs),
(292,215,l),
(224,215,l),
(179,0,l),
(217,0,l),
(245,133,l),
(253,133,l),
(250,93,o),
(234,-10,o),
(337,-10,cs)
);
}
);
userData = {
assembly = "NPUSHB[ ]	/* 63 values pushed */
52 51 24 23 4 1 3 1 76 0 1 3 2 3 1 2 128 0 3 3 5 97 0 5 5 20 77 0 4 4 15 77 0 2 2 0 97 6 1 0 0 21 0 78 1 0 49 47 36 33 28 26 16 14 10 8 0 58 1 58 7 7 22
CALL[ ]	/* CallFunction */";
};
width = 541;
}
);
note = uni1E9E;
unicode = 7838;
},
{
glyphname = T;
kernLeft = T;
kernRight = T;
lastChange = "2025-10-05 13:00:45 +0000";
layers = (
{
anchors = (
{
name = bottom;
pos = (180,0);
},
{
name = top;
pos = (334,720);
}
);
layerId = m01;
shapes = (
{
closed = 1;
nodes = (
(4,0,l),
(352,0,l),
(361,42,l),
(222,42,l),
(360,695,l),
(419,695,ls),
(467,695,o),
(495,681,o),
(489,633,cs),
(476,526,l),
(509,526,l),
(554,740,l),
(116,740,l),
(71,526,l),
(104,526,l),
(135,633,ls),
(149,681,o),
(183,695,o),
(231,695,cs),
(290,695,l),
(152,42,l),
(13,42,l)
);
}
);
userData = {
assembly = "NPUSHB[ ]	/* 65 values pushed */
34 21 2 1 4 35 20 2 2 1 2 76 7 1 1 1 4 95 0 4 4 14 77 6 1 2 2 3 97 5 1 3 3 20 77 8 1 0 0 15 0 78 1 0 44 42 38 36 33 31 29 26 23 22 19 17 13 11 0 55 1 54 9 7 22
CALL[ ]	/* CallFunction */";
};
width = 470;
}
);
note = T;
unicode = 84;
},
{
glyphname = U;
kernLeft = U;
kernRight = U;
lastChange = "2025-10-05 13:01:04 +0000";
layers = (
{
anchors = (
{
name = bottom;
pos = (207,0);
},
{
name = ogonek;
pos = (273,0);
},
{
name = top;
pos = (381,720);
}
);
layerId = m01;
shapes = (
{
closed = 1;
nodes = (
(306,-10,o),
(386,52,o),
(410,165,cs),
(523,696,l),
(582,696,l),
(591,740,l),
(419,740,l),
(410,696,l),
(479,696,l),
(366,164,ls),
(347,78,o),
(296,41,o),
(228,41,cs),
(156,41,o),
(115,78,o),
(134,164,cs),
(247,696,l),
(341,696,l),
(350,740,l),
(122,740,l),
(113,696,l),
(177,696,l),
(64,165,ls),
(40,52,o),
(94,-10,o),
(200,-10,cs)
);
}
);
userData = {
assembly = "NPUSHB[ ]	/* 33 values pushed */
3 1 1 1 14 77 0 2 2 0 97 4 1 0 0 21 0 78 1 0 39 36 27 25 15 12 0 48 1 48 5 7 22
CALL[ ]	/* CallFunction */";
};
width = 509;
}
);
note = U;
unicode = 85;
},
{
glyphname = V;
lastChange = "2025-10-05 13:01:25 +0000";
layers = (
{
layerId = m01;
shapes = (
{
closed = 1;
nodes = (
(152,0,l),
(202,0,l),
(520,696,l),
(571,696,l),
(580,740,l),
(422,740,l),
(413,696,l),
(475,696,l),
(217,134,l),
(203,696,l),
(304,696,l),
(313,740,l),
(77,740,l),
(68,696,l),
(132,696,l)
);
}
);
userData = {
assembly = "NPUSHB[ ]	/* 20 values pushed */
2 1 1 1 0 95 3 1 0 0 14 1 78 61 17 18 59 4 7 26
CALL[ ]	/* CallFunction */";
};
width = 457;
}
);
note = V;
unicode = 86;
},
{
glyphname = W;
kernLeft = W;
kernRight = W;
lastChange = "2025-10-05 13:01:49 +0000";
layers = (
{
anchors = (
{
name = bottom;
pos = (268,0);
},
{
name = top;
pos = (366,740);
}
);
layerId = m01;
shapes = (
{
closed = 1;
nodes = (
(74,696,l),
(238,696,l),
(247,740,l),
(83,740,l)
);
},
{
closed = 1;
nodes = (
(583,696,l),
(709,696,l),
(718,740,l),
(592,740,l)
);
},
{
closed = 1;
nodes = (
(145,0,l),
(169,0,l),
(207,68,l),
(212,726,l),
(147,726,l)
);
},
{
closed = 1;
nodes = (
(308,0,l),
(338,0,l),
(373,71,l),
(378,730,l),
(313,730,l)
);
},
{
closed = 1;
nodes = (
(146,0,l),
(189,0,l),
(509,730,l),
(466,730,l)
);
},
{
closed = 1;
nodes = (
(310,0,l),
(353,0,l),
(673,727,l),
(630,727,l)
);
},
{
closed = 1;
nodes = (
(268,696,l),
(553,696,l),
(562,740,l),
(277,740,l)
);
}
);
userData = {
assembly = "NPUSHB[ ]	/* 43 values pushed */
0 5 3 1 3 5 1 128 0 1 1 132 6 4 2 3 0 0 14 77 0 3 3 17 3 78 98 95 87 86 73 70 61 60 51 48 35 34 25 22 7 7 22
CALL[ ]	/* CallFunction */";
};
width = 597;
}
);
note = W;
unicode = 87;
},
{
glyphname = X;
lastChange = "2025-10-05 13:02:05 +0000";
layers = (
{
layerId = m01;
shapes = (
{
closed = 1;
nodes = (
(101,696,l),
(314,696,l),
(323,740,l),
(110,740,l)
);
},
{
closed = 1;
nodes = (
(391,696,l),
(549,696,l),
(558,740,l),
(400,740,l)
);
},
{
closed = 1;
nodes = (
(-41,0,l),
(122,0,l),
(131,44,l),
(-32,44,l)
);
},
{
closed = 1;
nodes = (
(206,0,l),
(426,0,l),
(435,44,l),
(215,44,l)
);
},
{
closed = 1;
nodes = (
(292,24,l),
(364,24,l),
(244,716,l),
(172,716,l)
);
},
{
closed = 1;
nodes = (
(257,395,l),
(299,395,l),
(492,717,l),
(450,717,l)
);
},
{
closed = 1;
nodes = (
(28,29,l),
(70,29,l),
(285,389,l),
(243,389,l)
);
}
);
userData = {
assembly = "NPUSHB[ ]	/* 48 values pushed */
0 2 1 5 1 2 5 128 0 5 0 1 5 0 126 3 1 1 1 14 77 4 6 2 0 0 15 0 78 1 0 79 78 69 66 46 43 34 33 24 21 0 89 1 88 7 7 22
CALL[ ]	/* CallFunction */";
};
width = 493;
}
);
note = X;
unicode = 88;
},
{
glyphname = Y;
kernLeft = Y;
kernRight = Y;
lastChange = "2025-10-05 13:02:26 +0000";
layers = (
{
anchors = (
{
name = bottom;
pos = (181,0);
},
{
name = top;
pos = (355,720);
}
);
layerId = m01;
shapes = (
{
closed = 1;
nodes = (
(32,0,l),
(350,0,l),
(359,44,l),
(41,44,l)
);
},
{
closed = 1;
nodes = (
(420,696,l),
(588,696,l),
(597,740,l),
(429,740,l)
);
},
{
closed = 1;
nodes = (
(65,696,l),
(311,696,l),
(320,740,l),
(74,740,l)
);
},
{
closed = 1;
nodes = (
(227,300,l),
(287,332,l),
(216,716,l),
(148,716,l)
);
},
{
closed = 1;
nodes = (
(162,28,l),
(232,28,l),
(294,322,l),
(266,352,l),
(224,322,l)
);
},
{
closed = 1;
nodes = (
(483,716,l),
(264,338,l),
(288,306,l),
(529,716,l)
);
}
);
userData = {
assembly = "NPUSHB[ ]	/* 46 values pushed */
0 4 2 0 2 4 0 128 3 1 2 2 1 95 5 1 1 1 14 77 6 1 0 0 15 0 78 1 0 44 41 32 31 27 26 25 24 22 19 0 64 1 63 7 7 22
CALL[ ]	/* CallFunction */";
};
width = 477;
}
);
note = Y;
unicode = 89;
},
{
glyphname = Z;
kernLeft = Z;
kernRight = Z;
lastChange = "2025-10-05 13:02:45 +0000";
layers = (
{
anchors = (
{
name = bottom;
pos = (155,0);
},
{
name = top;
pos = (329,720);
}
);
layerId = m01;
shapes = (
{
closed = 1;
nodes = (
(-37,0,l),
(354,0,l),
(401,224,l),
(368,224,l),
(329,107,ls),
(313,59,o),
(281,45,o),
(233,45,cs),
(61,45,l),
(515,720,l),
(519,740,l),
(144,740,l),
(96,516,l),
(129,516,l),
(168,633,ls),
(184,681,o),
(216,695,o),
(264,695,cs),
(420,695,l),
(-33,20,l)
);
}
);
userData = {
assembly = "NPUSHB[ ]	/* 71 values pushed */
39 1 5 6 40 1 0 5 2 76 0 6 2 5 2 6 5 128 0 1 1 4 95 0 4 4 14 77 0 2 2 3 97 0 3 3 16 77 0 5 5 0 96 7 1 0 0 15 0 78 1 0 38 36 31 28 24 21 18 17 14 12 8 5 0 42 1 41 8 7 22
CALL[ ]	/* CallFunction */";
};
width = 429;
}
);
note = Z;
unicode = 90;
},
{
glyphname = a;
kernLeft = a;
kernRight = a;
lastChange = "2025-10-05 13:30:48 +0000";
layers = (
{
anchors = (
{
name = bottom;
pos = (200,0);
},
{
name = ogonek;
pos = (344,0);
},
{
name = top;
pos = (200,510);
}
);
layerId = m01;
shapes = (
{
closed = 1;
nodes = (
(177,-10,o),
(245,132,o),
(285,253,cs),
(303,307,l),
(318,307,l),
(252,97,ls),
(226,15,o),
(262,-10,o),
(297,-10,cs),
(347,-10,o),
(380,38,o),
(423,97,cs),
(447,130,l),
(421,146,l),
(393,110,ls),
(363,71,o),
(346,42,o),
(329,42,cs),
(304,42,o),
(310,69,o),
(313,84,cs),
(412,550,l),
(388,550,l),
(340,530,l),
(331,539,o),
(306,550,o),
(273,550,cs),
(110,550,o),
(3,286,o),
(-4,144,cs),
(-9,38,o),
(32,-10,o),
(85,-10,cs)
);
},
{
closed = 1;
nodes = (
(65,41,o),
(46,81,o),
(64,144,cs),
(130,381,ls),
(153,465,o),
(206,506,o),
(253,506,cs),
(290,506,o),
(307,494,o),
(317,477,c),
(290,351,o),
(198,41,o),
(107,41,cs)
);
}
);
userData = {
assembly = "NPUSHB[ ]	/* 87 values pushed */
0 2 1 5 1 2 5 128 0 5 7 1 5 7 126 0 7 4 1 7 4 126 0 1 1 3 97 0 3 3 23 77 0 4 4 0 97 6 9 2 0 0 21 77 10 1 8 8 0 97 6 9 2 0 0 21 0 78 51 50 1 0 50 61 51 61 46 45 42 40 37 35 32 30 27 25 20 18 14 12 0 49 1 49 11 7 22
CALL[ ]	/* CallFunction */";
};
width = 462;
}
);
note = a;
unicode = 97;
},
{
glyphname = ae;
kernLeft = a;
kernRight = ae;
lastChange = "2025-10-05 13:32:54 +0000";
layers = (
{
layerId = m01;
shapes = (
{
closed = 1;
nodes = (
(105,-10,o),
(162,84,o),
(202,183,c),
(215,183,l),
(198,73,o),
(236,-10,o),
(320,-10,cs),
(413,-10,o),
(443,94,o),
(459,158,cs),
(462,170,l),
(427,178,l),
(421,158,ls),
(401,91,o),
(372,31,o),
(325,31,cs),
(282,31,o),
(260,64,o),
(260,126,cs),
(260,147,o),
(263,182,o),
(271,220,cs),
(285,287,l),
(288,287,ls),
(385,287,o),
(532,371,o),
(532,469,cs),
(532,520,o),
(494,550,o),
(444,550,cs),
(404,550,o),
(363,531,o),
(330,501,c),
(340,550,l),
(320,550,l),
(292,533,l),
(280,540,o),
(256,550,o),
(232,550,cs),
(41,550,o),
(-92,-10,o),
(48,-10,cs)
);
},
{
closed = 1;
nodes = (
(454,509,o),
(466,488,o),
(466,460,cs),
(466,383,o),
(378,323,o),
(292,322,c),
(318,443,o),
(358,509,o),
(421,509,cs)
);
},
{
closed = 1;
nodes = (
(41,44,o),
(39,63,o),
(45,92,cs),
(108,381,ls),
(117,424,o),
(149,503,o),
(210,503,cs),
(238,503,o),
(253,488,o),
(262,476,c),
(247,421,ls),
(205,267,o),
(137,44,o),
(63,44,cs)
);
}
);
userData = {
assembly = "NPUSHB[ ]	/* 122 values pushed */
28 1 2 1 55 1 6 7 2 76 0 2 1 9 1 2 9 128 0 7 5 6 5 7 6 128 13 1 9 0 5 7 9 5 103 0 10 10 3 97 4 1 3 3 23 77 0 1 1 3 97 4 1 3 3 23 77 0 6 6 0 97 8 12 2 0 0 21 77 14 1 11 11 0 97 8 12 2 0 0 21 0 78 71 70 61 59 1 0 70 81 71 81 66 64 59 69 61 69 53 51 48 46 43 41 38 35 32 30 27 25 20 18 14 12 0 58 1 58 15 7 22
CALL[ ]	/* CallFunction */";
};
width = 497;
}
);
note = ae;
unicode = 230;
},
{
glyphname = b;
kernRight = b;
lastChange = "2025-10-05 13:34:03 +0000";
layers = (
{
layerId = m01;
shapes = (
{
closed = 1;
nodes = (
(328,-10,o),
(424,234,o),
(424,395,cs),
(424,491,o),
(391,550,o),
(320,550,cs),
(213,550,o),
(162,413,o),
(134,332,c),
(119,332,l),
(194,540,l),
(244,750,l),
(80,733,l),
(72,699,l),
(172,699,l),
(21,48,l),
(38,23,o),
(84,-10,o),
(149,-10,cs)
);
},
{
closed = 1;
nodes = (
(108,32,o),
(91,72,o),
(103,122,cs),
(131,240,ls),
(168,397,o),
(236,504,o),
(299,504,cs),
(342,504,o),
(371,465,o),
(355,390,cs),
(313,192,ls),
(290,85,o),
(234,32,o),
(167,32,cs)
);
}
);
userData = {
assembly = "NPUSHB[ ]	/* 58 values pushed */
29 1 5 3 1 76 0 2 2 16 77 0 5 5 3 97 0 3 3 23 77 7 1 4 4 0 97 1 6 2 0 0 21 0 78 43 42 1 0 49 47 42 54 43 54 35 33 27 25 8 6 0 41 1 41 8 7 22
CALL[ ]	/* CallFunction */";
};
width = 440;
}
);
note = b;
unicode = 98;
},
{
glyphname = c;
kernLeft = c;
lastChange = "2025-10-05 13:34:28 +0000";
layers = (
{
anchors = (
{
name = bottom;
pos = (186,0);
},
{
name = top;
pos = (186,540);
}
);
annotations = (
{
pos = (-29.215,279.144);
type = Arrow;
}
);
layerId = m01;
shapes = (
{
closed = 1;
nodes = (
(263,383,o),
(266,348,o),
(299,348,cs),
(337,348,o),
(368,431,o),
(351,487,cs),
(336,535,o),
(297,550,o),
(253,550,cs),
(131,550,o),
(50,408,o),
(20,265,cs),
(-13,110,o),
(11,-10,o),
(124,-10,cs),
(234,-10,o),
(292,110,o),
(312,189,c),
(272,193,l),
(255,129,o),
(212,42,o),
(149,42,cs),
(78,42,o),
(60,104,o),
(84,220,cs),
(108,330,l),
(134,437,o),
(180,493,o),
(237,508,cs),
(290,522,o),
(315,484,o),
(294,443,cs)
);
}
);
userData = {
assembly = "NPUSHB[ ]	/* 56 values pushed */
0 2 3 5 3 2 5 128 0 5 4 3 5 4 126 0 3 3 1 97 0 1 1 23 77 0 4 4 0 97 6 1 0 0 21 0 78 1 0 34 32 29 27 22 20 16 14 9 7 0 38 1 38 7 7 22
CALL[ ]	/* CallFunction */";
};
width = 344;
}
);
note = c;
unicode = 99;
},
{
glyphname = d;
kernLeft = c;
kernRight = d;
lastChange = "2025-10-05 13:38:02 +0000";
layers = (
{
anchors = (
{
name = bottom;
pos = (229,0);
},
{
name = top;
pos = (229,740);
}
);
layerId = m01;
shapes = (
{
closed = 1;
nodes = (
(186,-5,o),
(244,122,o),
(286,243,cs),
(302,287,l),
(317,287,l),
(253,97,ls),
(225,15,o),
(263,-10,o),
(298,-10,cs),
(355,-10,o),
(381,39,o),
(424,97,cs),
(448,129,l),
(421,147,l),
(394,111,ls),
(364,71,o),
(343,42,o),
(328,42,cs),
(303,42,o),
(311,69,o),
(314,84,cs),
(456,750,l),
(285,730,l),
(278,696,l),
(377,696,l),
(341,530,l),
(332,539,o),
(307,550,o),
(274,550,cs),
(110,550,o),
(4,286,o),
(-2,144,cs),
(-7,45,o),
(35,-13,o),
(90,-10,cs)
);
},
{
closed = 1;
nodes = (
(66,40,o),
(52,90,o),
(69,154,cs),
(130,371,ls),
(153,455,o),
(193,507,o),
(254,507,cs),
(293,507,o),
(319,486,o),
(324,457,c),
(297,331,o),
(209,40,o),
(108,40,cs)
);
}
);
userData = {
assembly = "NPUSHB[ ]	/* 76 values pushed */
0 4 7 3 7 4 3 128 0 2 2 16 77 0 7 7 1 97 0 1 1 23 77 0 3 3 0 97 5 8 2 0 0 21 77 9 1 6 6 0 97 5 8 2 0 0 21 0 78 52 51 1 0 60 58 51 64 52 64 43 41 38 36 33 31 28 26 9 7 0 50 1 50 10 7 22
CALL[ ]	/* CallFunction */";
};
width = 454;
}
);
note = d;
unicode = 100;
},
{
glyphname = eth;
kernLeft = c;
kernRight = b;
lastChange = "2025-10-05 14:15:02 +0000";
layers = (
{
layerId = m01;
shapes = (
{
closed = 1;
nodes = (
(239,-10,o),
(346,76,o),
(396,311,cs),
(442,526,o),
(382,716,o),
(193,760,c),
(176,725,l),
(330,695,o),
(381,510,o),
(355,387,cs),
(353,378,l),
(345,378,l),
(348,428,o),
(336,505,o),
(237,505,cs),
(117,505,o),
(55,390,o),
(24,245,cs),
(-11,79,o),
(27,-10,o),
(134,-10,cs)
);
},
{
closed = 1;
nodes = (
(66,35,o),
(58,86,o),
(78,180,cs),
(107,315,ls),
(127,409,o),
(157,463,o),
(229,463,cs),
(306,463,o),
(313,399,o),
(295,315,cs),
(266,180,ls),
(246,86,o),
(218,35,o),
(142,35,cs)
);
}
);
userData = {
assembly = "NPUSHB[ ]	/* 44 values pushed */
18 1 1 74 0 1 0 3 2 1 3 105 5 1 2 2 0 97 4 1 0 0 21 0 78 31 30 1 0 35 33 30 39 31 39 9 7 0 29 1 29 6 7 22
CALL[ ]	/* CallFunction */";
};
width = 414;
}
);
note = eth;
unicode = 240;
},
{
glyphname = dcroat;
kernLeft = c;
kernRight = d;
lastChange = "2025-07-14 11:52:53 +0000";
layers = (
{
anchors = (
{
name = bottom;
pos = (229,0);
},
{
name = top;
pos = (229,740);
}
);
layerId = m01;
shapes = (
{
closed = 1;
nodes = (
(138,598,l),
(437,598,l),
(437,628,l),
(138,628,l)
);
},
{
ref = d;
}
);
userData = {
assembly = "NPUSHB[ ]	/* 94 values pushed */
0 8 11 7 11 8 7 128 5 1 3 6 1 2 1 3 2 105 0 4 4 16 77 0 11 11 1 97 0 1 1 23 77 0 7 7 0 97 9 12 2 0 0 21 77 13 1 10 10 0 97 9 12 2 0 0 21 0 78 68 67 1 0 76 74 67 80 68 80 59 57 54 52 49 47 45 43 40 38 36 34 21 19 16 14 9 7 0 66 1 66 14 7 22
CALL[ ]	/* CallFunction */";
};
width = 460;
}
);
note = dcroat;
unicode = 273;
},
{
glyphname = e;
kernLeft = c;
kernRight = ae;
lastChange = "2025-10-05 13:39:53 +0000";
layers = (
{
anchors = (
{
name = bottom;
pos = (178,0);
},
{
name = ogonek;
pos = (239,0);
},
{
name = top;
pos = (193,510);
}
);
layerId = m01;
shapes = (
{
closed = 1;
nodes = (
(245,-10,o),
(290,89,o),
(308,163,cs),
(316,196,l),
(278,204,l),
(267,163,ls),
(258,128,o),
(224,35,o),
(149,35,cs),
(80,35,o),
(57,95,o),
(82,220,cs),
(92,270,l),
(220,263,o),
(349,305,o),
(369,439,cs),
(379,507,o),
(328,550,o),
(254,550,cs),
(96,550,o),
(7,361,o),
(7,188,cs),
(7,66,o),
(45,-10,o),
(137,-10,cs)
);
},
{
closed = 1;
nodes = (
(103,320,ls),
(130,443,o),
(170,509,o),
(239,509,cs),
(288,509,o),
(313,487,o),
(303,437,cs),
(283,332,o),
(221,295,o),
(99,302,c)
);
}
);
userData = {
assembly = "NPUSHB[ ]	/* 64 values pushed */
0 4 2 3 2 4 3 128 8 1 5 0 2 4 5 2 103 0 6 6 1 97 0 1 1 23 77 0 3 3 0 97 7 1 0 0 21 0 78 31 29 1 0 36 34 29 39 31 39 25 23 20 18 15 12 9 7 0 28 1 28 9 7 22
CALL[ ]	/* CallFunction */";
};
width = 353;
}
);
note = e;
unicode = 101;
},
{
glyphname = f;
kernLeft = f;
lastChange = "2025-10-05 13:40:54 +0000";
layers = (
{
layerId = m01;
shapes = (
{
closed = 1;
nodes = (
(41,-190,o),
(100,-88,o),
(128,43,cs),
(224,498,l),
(363,498,l),
(373,540,l),
(233,540,l),
(249,614,o),
(255,719,o),
(340,735,cs),
(373,741,o),
(396,719,o),
(385,683,cs),
(377,656,o),
(381,629,o),
(414,629,cs),
(442,629,o),
(466,651,o),
(469,689,cs),
(473,735,o),
(436,771,o),
(376,773,cs),
(239,778,o),
(194,671,o),
(166,541,c),
(77,530,l),
(70,498,l),
(157,498,l),
(61,43,ls),
(45,-31,o),
(27,-151,o),
(-51,-151,cs),
(-98,-151,o),
(-71,-57,o),
(-130,-52,cs),
(-158,-50,o),
(-178,-71,o),
(-178,-98,cs),
(-178,-146,o),
(-121,-190,o),
(-63,-190,cs)
);
}
);
userData = {
assembly = "NPUSHB[ ]	/* 45 values pushed */
0 2 3 4 3 2 4 128 0 3 3 1 97 0 1 1 16 77 5 1 0 0 4 95 0 4 4 17 77 0 6 6 15 6 78 57 50 52 35 36 41 50 7 7 29
CALL[ ]	/* CallFunction */";
};
width = 335;
}
);
metricLeft = "-1t00";
note = f;
unicode = 102;
},
{
glyphname = g;
kernLeft = g;
kernRight = g;
lastChange = "2025-10-05 13:41:16 +0000";
layers = (
{
anchors = (
{
name = bottom;
pos = (95,-205);
},
{
name = top;
pos = (247,510);
}
);
layerId = m01;
shapes = (
{
closed = 1;
nodes = (
(28,-144,o),
(-16,-111,o),
(-1,-42,cs),
(15,32,o),
(93,57,o),
(118,60,c),
(194,55,l),
(231,52,o),
(294,36,o),
(278,-40,cs),
(265,-101,o),
(198,-144,o),
(118,-144,cs)
);
},
{
closed = 1;
nodes = (
(140,254,o),
(120,295,o),
(135,362,cs),
(144,404,ls),
(158,471,o),
(195,512,o),
(256,512,cs),
(317,512,o),
(336,471,o),
(322,404,cs),
(313,362,ls),
(298,295,o),
(262,254,o),
(201,254,cs)
);
},
{
closed = 1;
nodes = (
(469,508,l),
(477,548,l),
(308,537,l),
(327,507,l)
);
},
{
closed = 1;
nodes = (
(219,-190,o),
(314,-126,o),
(335,-25,cs),
(354,64,o),
(306,113,o),
(221,120,cs),
(105,130,ls),
(80,132,o),
(36,128,o),
(38,170,cs),
(39,189,o),
(66,212,o),
(111,242,c),
(125,228,o),
(150,216,o),
(193,216,cs),
(310,216,o),
(368,302,o),
(385,383,cs),
(413,516,o),
(329,550,o),
(264,550,cs),
(157,550,o),
(88,464,o),
(71,383,cs),
(62,339,o),
(64,299,o),
(90,266,c),
(31,227,o),
(-5,193,o),
(-11,150,cs),
(-18,104,o),
(7,71,o),
(58,65,c),
(57,61,l),
(20,51,o),
(-45,13,o),
(-59,-56,cs),
(-76,-133,o),
(-25,-190,o),
(98,-190,cs)
);
}
);
userData = {
assembly = "NPUSHB[ ]	/* 92 values pushed */
0 3 1 8 4 3 114 0 2 0 4 1 2 4 105 12 1 7 0 5 6 7 5 105 0 6 0 10 9 6 10 105 0 8 8 1 97 0 1 1 23 77 13 1 9 9 0 97 11 1 0 0 25 0 78 80 79 68 67 1 0 88 85 79 95 80 95 74 72 67 78 68 78 61 58 53 51 41 39 37 35 31 29 24 22 0 66 1 66 14 7 22
CALL[ ]	/* CallFunction */";
};
width = 402;
}
);
note = g;
unicode = 103;
},
{
glyphname = h;
kernLeft = h;
kernRight = h;
lastChange = "2025-10-05 13:43:41 +0000";
layers = (
{
layerId = m01;
shapes = (
{
closed = 1;
nodes = (
(375,-10,o),
(408,39,o),
(450,97,cs),
(474,130,l),
(446,147,l),
(419,111,ls),
(388,71,o),
(370,42,o),
(353,42,cs),
(325,42,o),
(337,74,o),
(340,84,cs),
(443,430,ls),
(465,504,o),
(430,550,o),
(369,550,cs),
(261,550,o),
(194,417,o),
(159,311,c),
(144,311,l),
(219,540,l),
(264,750,l),
(110,730,l),
(103,696,l),
(185,696,l),
(37,0,l),
(106,0,l),
(172,312,o),
(251,492,o),
(336,492,cs),
(377,492,o),
(387,468,o),
(374,424,cs),
(271,77,ls),
(253,17,o),
(284,-10,o),
(322,-10,cs)
);
}
);
userData = {
assembly = "NPUSHB[ ]	/* 40 values pushed */
0 1 1 16 77 0 4 4 2 97 0 2 2 23 77 3 5 2 0 0 15 0 78 1 0 57 55 45 42 32 30 23 21 0 69 1 68 6 7 22
CALL[ ]	/* CallFunction */";
};
width = 489;
}
);
note = h;
unicode = 104;
},
{
glyphname = hbar;
kernLeft = h;
kernRight = h;
lastChange = "2025-07-16 22:30:46 +0000";
layers = (
{
layerId = m01;
shapes = (
{
pos = (2,0);
ref = h;
},
{
closed = 1;
nodes = (
(80,598,l),
(375,598,l),
(381,627,l),
(86,627,l)
);
}
);
userData = {
assembly = "NPUSHB[ ]	/* 58 values pushed */
4 1 2 5 1 1 6 2 1 105 0 3 3 16 77 0 8 8 6 97 0 6 6 23 77 7 9 2 0 0 15 0 78 1 0 73 71 61 58 48 46 40 38 35 33 31 29 16 14 11 9 0 85 1 84 10 7 22
CALL[ ]	/* CallFunction */";
};
width = 491;
}
);
note = hbar;
unicode = 295;
},
{
glyphname = dotlessi;
kernLeft = i;
lastChange = "2025-10-05 13:46:18 +0000";
layers = (
{
anchors = (
{
name = bottom;
pos = (166,0);
},
{
name = ogonek;
pos = (221,0);
},
{
name = top;
pos = (166,510);
}
);
layerId = m01;
shapes = (
{
closed = 1;
nodes = (
(210,-12,o),
(248,34,o),
(282,97,cs),
(328,183,l),
(298,198,l),
(249,109,ls),
(225,66,o),
(206,42,o),
(182,42,cs),
(150,42,o),
(150,78,o),
(159,119,cs),
(252,554,l),
(65,532,l),
(59,498,l),
(173,498,l),
(91,115,ls),
(75,40,o),
(92,-8,o),
(150,-10,cs)
);
}
);
userData = {
assembly = "NPUSHB[ ]	/* 29 values pushed */
15 1 0 1 1 76 0 1 1 17 77 2 1 0 0 15 0 78 1 0 23 21 0 33 1 32 3 7 22
CALL[ ]	/* CallFunction */";
};
width = 345;
}
);
note = dotlessi;
unicode = 305;
},
{
glyphname = uni0237;
kernLeft = j;
lastChange = "2025-10-05 13:47:07 +0000";
layers = (
{
layerId = m01;
shapes = (
{
closed = 1;
nodes = (
(35,530,l),
(28,496,l),
(150,496,l),
(44,-2,ls),
(22,-107,o),
(10,-145,o),
(-31,-153,cs),
(-71,-161,o),
(-59,-123,o),
(-58,-106,cs),
(-57,-80,o),
(-64,-56,o),
(-93,-54,cs),
(-122,-52,o),
(-149,-74,o),
(-151,-105,cs),
(-153,-149,o),
(-120,-197,o),
(-46,-190,cs),
(49,-181,o),
(95,-81,o),
(112,0,cs),
(230,550,l)
);
}
);
userData = {
assembly = "PUSHB[ ]	/* 6 values pushed */
21 1 1 3 1 76
MPPEM[ ]	/* MeasurePixelPerEm */
PUSHB[ ]	/* 1 value pushed */
23
LT[ ]	/* LessThan */
IF[ ]	/* If */
NPUSHB[ ]	/* 24 values pushed */
0 1 3 2 2 1 114 0 3 3 17 77 0 2 2 0 98 4 1 0 0 25 0 78
ELSE[ ]	/* Else */
NPUSHB[ ]	/* 25 values pushed */
0 1 3 2 3 1 2 128 0 3 3 17 77 0 2 2 0 98 4 1 0 0 25 0 78
EIF[ ]	/* EndIf */
NPUSHB[ ]	/* 15 values pushed */
1 0 29 27 12 10 7 5 0 33 1 33 5 7 22
CALL[ ]	/* CallFunction */";
};
width = 219;
}
);
note = uni0237;
unicode = 567;
},
{
glyphname = k;
kernLeft = h;
kernRight = k;
lastChange = "2025-10-05 13:49:47 +0000";
layers = (
{
anchors = (
{
name = bottom;
pos = (209,0);
},
{
name = top;
pos = (214,740);
}
);
layerId = m01;
shapes = (
{
closed = 1;
nodes = (
(392,-10,o),
(424,18,o),
(461,107,cs),
(475,140,l),
(445,152,l),
(428,116,ls),
(407,71,o),
(393,42,o),
(375,42,cs),
(354,42,o),
(343,65,o),
(333,85,cs),
(236,265,l),
(243,265,ls),
(395,265,o),
(465,354,o),
(464,440,cs),
(465,509,o),
(418,550,o),
(350,550,cs),
(228,550,o),
(179,417,o),
(141,293,c),
(126,293,l),
(197,540,l),
(242,750,l),
(88,730,l),
(81,696,l),
(163,696,l),
(15,0,l),
(84,0,l),
(112,116,ls),
(123,157,o),
(136,215,o),
(155,274,c),
(264,73,ls),
(288,27,o),
(307,-10,o),
(351,-10,cs)
);
},
{
closed = 1;
nodes = (
(366,506,o),
(399,490,o),
(399,438,cs),
(398,362,o),
(330,293,o),
(232,293,cs),
(170,293,l),
(204,408,o),
(249,506,o),
(327,506,cs)
);
}
);
userData = {
assembly = "NPUSHB[ ]	/* 33 values pushed */
0 1 1 16 77 0 2 2 17 77 3 4 2 0 0 15 0 78 1 0 60 57 39 36 23 21 0 83 1 82 5 7 22
CALL[ ]	/* CallFunction */";
};
width = 479;
}
);
note = k;
unicode = 107;
},
{
glyphname = l;
kernLeft = h;
kernRight = l;
lastChange = "2025-10-05 13:51:40 +0000";
layers = (
{
anchors = (
{
name = bottom;
pos = (62,0);
},
{
name = top;
pos = (188,710);
}
);
layerId = m01;
shapes = (
{
closed = 1;
nodes = (
(218,-10,o),
(247,56,o),
(286,148,cs),
(300,181,l),
(271,194,l),
(257,163,ls),
(231,105,o),
(202,49,o),
(161,49,cs),
(130,49,o),
(131,79,o),
(145,143,cs),
(274,750,l),
(88,732,l),
(81,698,l),
(195,698,l),
(77,143,ls),
(58,52,o),
(58,-10,o),
(143,-10,cs)
);
}
);
userData = {
assembly = "NPUSHB[ ]	/* 23 values pushed */
0 1 1 16 77 2 1 0 0 15 0 78 1 0 23 21 0 33 1 32 3 7 22
CALL[ ]	/* CallFunction */";
};
width = 339;
}
);
note = l;
unicode = 108;
},
{
glyphname = lslash;
kernLeft = h;
kernRight = l;
lastChange = "2025-07-18 22:49:37 +0000";
layers = (
{
anchors = (
{
name = bottom;
pos = (136,0);
},
{
name = top;
pos = (111,710);
}
);
layerId = m01;
shapes = (
{
ref = l;
},
{
closed = 1;
nodes = (
(60,282,l),
(345,432,l),
(335,457,l),
(51,307,l)
);
}
);
userData = {
assembly = "NPUSHB[ ]	/* 32 values pushed */
40 33 16 9 4 0 1 1 76 0 1 1 16 77 2 1 0 0 15 0 78 1 0 31 29 0 49 1 48 3 7 22
CALL[ ]	/* CallFunction */";
};
width = 359;
}
);
note = lslash;
unicode = 322;
},
{
glyphname = m;
kernLeft = m;
kernRight = h;
lastChange = "2025-10-05 13:54:18 +0000";
layers = (
{
layerId = m01;
shapes = (
{
closed = 1;
nodes = (
(448,-10,o),
(477,33,o),
(525,97,cs),
(570,158,l),
(548,172,l),
(500,108,ls),
(469,68,o),
(460,52,o),
(443,52,cs),
(424,52,o),
(434,76,o),
(437,84,cs),
(544,430,ls),
(567,505,o),
(539,550,o),
(488,550,cs),
(417,550,o),
(366,432,o),
(329,315,cs),
(322,293,l),
(311,293,l),
(361,453,ls),
(383,523,o),
(338,557,o),
(295,550,cs),
(222,538,o),
(177,419,o),
(150,316,cs),
(144,293,l),
(133,293,l),
(178,463,ls),
(194,524,o),
(172,550,o),
(147,550,cs),
(118,550,o),
(90,518,o),
(34,444,cs),
(11,413,l),
(34,394,l),
(62,429,ls),
(101,479,o),
(110,485,o),
(122,485,cs),
(139,485,o),
(131,463,o),
(127,445,cs),
(31,0,l),
(90,0,l),
(169,291,ls),
(211,449,o),
(243,480,o),
(268,487,cs),
(312,499,o),
(315,458,o),
(310,439,cs),
(198,0,l),
(254,0,l),
(345,285,ls),
(377,385,o),
(417,481,o),
(461,487,cs),
(484,490,o),
(499,470,o),
(489,437,cs),
(377,77,ls),
(358,17,o),
(375,-10,o),
(410,-10,cs)
);
}
);
userData = {
assembly = "NPUSHB[ ]	/* 52 values pushed */
25 15 2 0 5 1 76 7 1 5 5 1 97 3 2 2 1 1 17 77 6 4 8 3 0 0 15 0 78 1 0 92 90 80 77 66 64 54 51 41 39 32 30 23 21 0 104 1 103 9 7 22
CALL[ ]	/* CallFunction */";
};
width = 594;
}
);
note = m;
unicode = 109;
},
{
glyphname = n;
kernLeft = m;
kernRight = h;
lastChange = "2025-10-05 13:56:06 +0000";
layers = (
{
anchors = (
{
name = bottom;
pos = (235,0);
},
{
name = top;
pos = (235,510);
}
);
layerId = m01;
shapes = (
{
closed = 1;
nodes = (
(362,-10,o),
(392,34,o),
(424,99,cs),
(442,136,l),
(415,149,l),
(394,109,ls),
(371,65,o),
(357,42,o),
(336,42,cs),
(313,42,o),
(324,74,o),
(327,84,cs),
(430,430,ls),
(452,504,o),
(417,550,o),
(356,550,cs),
(248,550,o),
(186,418,o),
(149,305,c),
(134,305,l),
(190,463,ls),
(211,523,o),
(178,550,o),
(142,550,cs),
(95,550,o),
(69,508,o),
(37,443,cs),
(20,408,l),
(47,393,l),
(66,432,l),
(88,477,o),
(96,492,o),
(117,492,cs),
(129,492,o),
(125,475,o),
(121,456,cs),
(24,0,l),
(93,0,l),
(171,348,o),
(240,491,o),
(325,491,cs),
(364,491,o),
(374,468,o),
(361,424,cs),
(258,77,ls),
(240,17,o),
(271,-10,o),
(309,-10,cs)
);
}
);
userData = {
assembly = "NPUSHB[ ]	/* 42 values pushed */
15 1 0 4 1 76 0 4 4 1 97 2 1 1 1 17 77 3 5 2 0 0 15 0 78 1 0 57 55 45 42 32 30 23 21 0 69 1 68 6 7 22
CALL[ ]	/* CallFunction */";
};
width = 470;
}
);
note = n;
unicode = 110;
},
{
glyphname = eng;
kernLeft = m;
lastChange = "2025-10-05 14:00:42 +0000";
layers = (
{
anchors = (
{
name = bottom;
pos = (235,0);
},
{
name = top;
pos = (235,510);
}
);
layerId = m01;
shapes = (
{
closed = 1;
nodes = (
(201,-115,o),
(143,-179,o),
(92,-164,cs),
(37,-148,o),
(68,-103,o),
(28,-81,cs),
(2,-67,o),
(-26,-84,o),
(-33,-111,cs),
(-46,-159,o),
(-6,-183,o),
(63,-190,c),
(194,-200,o),
(267,-120,o),
(303,2,cs),
(430,430,ls),
(452,504,o),
(417,550,o),
(356,550,cs),
(248,550,o),
(186,418,o),
(149,305,c),
(134,305,l),
(190,463,ls),
(211,523,o),
(178,550,o),
(142,550,cs),
(95,550,o),
(69,508,o),
(37,443,cs),
(20,408,l),
(47,393,l),
(66,432,l),
(88,477,o),
(96,492,o),
(117,492,cs),
(129,492,o),
(125,475,o),
(121,456,cs),
(24,0,l),
(93,0,l),
(171,348,o),
(240,491,o),
(325,491,cs),
(364,491,o),
(374,468,o),
(361,424,cs),
(235,0,ls)
);
}
);
userData = {
assembly = "PUSHB[ ]	/* 6 values pushed */
47 1 4 3 1 76
MPPEM[ ]	/* MeasurePixelPerEm */
PUSHB[ ]	/* 1 value pushed */
23
LT[ ]	/* LessThan */
IF[ ]	/* If */
NPUSHB[ ]	/* 35 values pushed */
0 1 4 2 2 1 114 0 3 3 5 97 6 1 5 5 17 77 0 4 4 15 77 0 2 2 0 98 7 1 0 0 25 0 78
ELSE[ ]	/* Else */
NPUSHB[ ]	/* 36 values pushed */
0 1 4 2 4 1 2 128 0 3 3 5 97 6 1 5 5 17 77 0 4 4 15 77 0 2 2 0 98 7 1 0 0 25 0 78
EIF[ ]	/* EndIf */
NPUSHB[ ]	/* 21 values pushed */
1 0 64 62 55 53 33 30 19 17 12 10 7 5 0 69 1 69 8 7 22
CALL[ ]	/* CallFunction */";
};
width = 386;
}
);
note = eng;
unicode = 331;
},
{
glyphname = o;
kernLeft = c;
kernRight = b;
lastChange = "2025-10-05 14:01:19 +0000";
layers = (
{
anchors = (
{
name = bottom;
pos = (192,0);
},
{
name = ogonek;
pos = (355,10);
},
{
name = top;
pos = (192,510);
}
);
layerId = m01;
shapes = (
{
closed = 1;
nodes = (
(267,-10,o),
(339,130,o),
(369,270,cs),
(399,410,o),
(386,550,o),
(252,550,cs),
(118,550,o),
(45,410,o),
(15,270,cs),
(-15,130,o),
(-1,-10,o),
(133,-10,cs)
);
},
{
closed = 1;
nodes = (
(58,32,o),
(48,96,o),
(74,220,cs),
(96,320,ls),
(122,444,o),
(159,508,o),
(243,508,cs),
(327,508,o),
(336,444,o),
(310,320,cs),
(288,220,ls),
(262,96,o),
(226,32,o),
(142,32,cs)
);
}
);
userData = {
assembly = "NPUSHB[ ]	/* 42 values pushed */
0 3 3 1 97 0 1 1 23 77 5 1 2 2 0 97 4 1 0 0 21 0 78 17 16 1 0 21 19 16 23 17 23 9 7 0 15 1 15 6 7 22
CALL[ ]	/* CallFunction */";
};
width = 384;
}
);
note = o;
unicode = 111;
},
{
glyphname = oslash;
kernLeft = c;
kernRight = b;
lastChange = "2025-07-16 22:59:11 +0000";
layers = (
{
anchors = (
{
name = bottom;
pos = (196,0);
},
{
name = ogonek;
pos = (359,10);
},
{
name = top;
pos = (196,510);
}
);
layerId = m01;
shapes = (
{
ref = o;
},
{
closed = 1;
nodes = (
(-19,-50,l),
(9,-50,l),
(403,566,l),
(375,566,l)
);
}
);
userData = {
assembly = "NPUSHB[ ]	/* 69 values pushed */
44 43 35 34 28 19 12 3 8 5 4 1 76 0 2 1 2 133 6 1 0 3 0 134 0 4 4 1 97 0 1 1 23 77 7 1 5 5 3 97 0 3 3 21 3 78 40 39 1 0 39 45 40 45 38 36 27 25 17 14 11 9 0 31 1 30 8 7 22
CALL[ ]	/* CallFunction */";
};
width = 390;
}
);
note = oslash;
unicode = 248;
},
{
glyphname = oe;
kernLeft = c;
kernRight = ae;
lastChange = "2025-10-05 14:02:52 +0000";
layers = (
{
anchors = (
{
name = bottom;
pos = (193,0);
},
{
name = ogonek;
pos = (356,10);
},
{
name = top;
pos = (193,510);
}
);
layerId = m01;
shapes = (
{
pos = (261,0);
ref = e;
},
{
closed = 1;
nodes = (
(256,-10,o),
(312,130,o),
(342,270,cs),
(372,410,o),
(375,550,o),
(241,550,cs),
(107,550,o),
(45,410,o),
(15,270,cs),
(-15,130,o),
(-12,-10,o),
(122,-10,cs)
);
},
{
closed = 1;
nodes = (
(47,32,o),
(50,106,o),
(77,230,cs),
(94,310,ls),
(120,434,o),
(148,508,o),
(232,508,cs),
(316,508,o),
(307,434,o),
(281,310,cs),
(264,230,ls),
(237,106,o),
(215,32,o),
(131,32,cs)
);
}
);
userData = {
assembly = "NPUSHB[ ]	/* 102 values pushed */
11 1 9 8 38 1 4 5 2 76 0 5 3 4 3 5 4 128 13 1 9 0 3 5 9 3 103 10 1 8 8 1 97 2 1 1 1 23 77 0 4 4 0 97 6 11 2 0 0 21 77 12 1 7 7 0 97 6 11 2 0 0 21 0 78 51 49 42 41 1 0 56 54 49 59 51 59 46 44 41 48 42 48 36 34 31 29 26 24 21 18 15 13 9 7 0 40 1 40 14 7 22
CALL[ ]	/* CallFunction */";
};
width = 610;
}
);
note = oe;
unicode = 339;
},
{
glyphname = p;
kernLeft = m;
kernRight = b;
lastChange = "2025-10-05 14:03:55 +0000";
layers = (
{
layerId = m01;
shapes = (
{
closed = 1;
nodes = (
(-109,-186,l),
(222,-186,l),
(232,-142,l),
(73,-142,l),
(104,3,l),
(122,-4,o),
(163,-10,o),
(191,-10,cs),
(359,-10,o),
(455,233,o),
(455,397,cs),
(455,491,o),
(404,550,o),
(338,550,cs),
(279,550,o),
(228,504,o),
(212,490,c),
(199,490,l),
(240,647,l),
(173,647,l),
(134,462,l),
(8,414,l),
(6,345,l),
(124,422,l),
(5,-142,l),
(-99,-142,l)
);
},
{
closed = 1;
nodes = (
(149,32,o),
(124,43,o),
(115,52,c),
(199,455,l),
(223,476,o),
(269,504,o),
(308,504,cs),
(357,504,o),
(402,465,o),
(386,390,cs),
(344,192,ls),
(321,85,o),
(253,32,o),
(181,32,cs)
);
}
);
userData = {
assembly = "NPUSHB[ ]	/* 59 values pushed */
25 15 2 4 5 1 76 0 5 5 1 97 2 1 1 1 17 77 7 1 4 4 3 97 0 3 3 21 77 6 1 0 0 19 0 78 55 54 1 0 61 59 54 66 55 66 41 39 33 31 23 21 0 53 1 52 8 7 22
CALL[ ]	/* CallFunction */";
};
width = 467;
}
);
note = p;
unicode = 112;
},
{
glyphname = thorn;
kernLeft = h;
kernRight = b;
lastChange = "2025-10-05 14:05:11 +0000";
layers = (
{
layerId = m01;
shapes = (
{
closed = 1;
nodes = (
(-109,-190,l),
(222,-190,l),
(232,-142,l),
(70,-142,l),
(100,3,l),
(118,-4,o),
(161,-10,o),
(189,-10,cs),
(357,-10,o),
(453,233,o),
(453,397,cs),
(453,491,o),
(400,550,o),
(334,550,cs),
(275,550,o),
(224,504,o),
(208,490,c),
(203,490,l),
(259,750,l),
(105,730,l),
(98,698,l),
(180,698,l),
(130,462,l),
(4,414,l),
(3,352,l),
(14,352,l),
(121,422,l),
(2,-142,l),
(-99,-142,l)
);
},
{
closed = 1;
nodes = (
(146,32,o),
(121,43,o),
(112,52,c),
(196,455,l),
(219,476,o),
(265,504,o),
(304,504,cs),
(353,504,o),
(400,465,o),
(384,390,cs),
(342,192,ls),
(319,85,o),
(250,32,o),
(178,32,cs)
);
}
);
userData = {
assembly = "NPUSHB[ ]	/* 62 values pushed */
25 1 4 5 1 76 0 1 1 16 77 0 5 5 2 97 0 2 2 23 77 7 1 4 4 3 97 0 3 3 21 77 6 1 0 0 19 0 78 55 54 1 0 61 59 54 66 55 66 41 39 33 31 23 21 0 53 1 52 8 7 22
CALL[ ]	/* CallFunction */";
};
width = 467;
}
);
note = thorn;
unicode = 254;
},
{
glyphname = q;
kernLeft = c;
lastChange = "2025-10-05 14:08:41 +0000";
layers = (
{
layerId = m01;
shapes = (
{
closed = 1;
nodes = (
(40,-190,l),
(370,-190,l),
(380,-146,l),
(284,-146,l),
(431,547,l),
(359,527,l),
(349,535,o),
(325,546,o),
(293,546,cs),
(127,546,o),
(22,282,o),
(14,140,cs),
(12,53,o),
(46,-13,o),
(107,-13,cs),
(196,-13,o),
(261,119,o),
(301,240,cs),
(319,294,l),
(334,294,l),
(271,94,l),
(216,-146,l),
(50,-146,l)
);
},
{
closed = 1;
nodes = (
(84,37,o),
(64,77,o),
(81,140,cs),
(146,367,ls),
(169,451,o),
(213,503,o),
(274,503,cs),
(313,503,o),
(333,481,o),
(340,464,c),
(315,338,o),
(217,37,o),
(126,37,cs)
);
}
);
userData = {
assembly = "NPUSHB[ ]	/* 58 values pushed */
9 1 4 5 1 76 0 5 5 2 97 3 1 2 2 23 77 7 1 4 4 1 97 0 1 1 21 77 6 1 0 0 19 0 78 47 46 1 0 55 53 46 59 47 59 32 30 24 22 16 14 0 45 1 44 8 7 22
CALL[ ]	/* CallFunction */";
};
width = 442;
}
);
note = q;
unicode = 113;
},
{
glyphname = r;
kernLeft = m;
kernRight = r;
lastChange = "2025-10-05 14:10:43 +0000";
layers = (
{
anchors = (
{
name = bottom;
pos = (93,0);
},
{
name = top;
pos = (143,510);
}
);
layerId = m01;
shapes = (
{
closed = 1;
nodes = (
(53,0,l),
(109,0,l),
(160,178,ls),
(194,301,o),
(246,411,o),
(300,468,cs),
(356,528,o),
(344,435,o),
(399,440,cs),
(463,446,o),
(476,549,o),
(379,549,cs),
(288,549,o),
(241,471,o),
(171,298,c),
(156,298,l),
(214,448,ls),
(236,506,o),
(216,550,o),
(162,550,cs),
(104,550,o),
(73,502,o),
(42,439,cs),
(25,403,l),
(54,397,l),
(72,437,ls),
(93,481,o),
(116,496,o),
(132,496,cs),
(158,496,o),
(153,471,o),
(149,451,cs)
);
}
);
userData = {
assembly = "PUSHB[ ]	/* 7 values pushed */
52 42 2 1 2 1 76
MPPEM[ ]	/* MeasurePixelPerEm */
PUSHB[ ]	/* 1 value pushed */
24
LT[ ]	/* LessThan */
IF[ ]	/* If */
NPUSHB[ ]	/* 24 values pushed */
0 1 2 3 2 1 114 0 2 2 0 97 4 1 0 0 23 77 0 3 3 15 3 78
ELSE[ ]	/* Else */
NPUSHB[ ]	/* 25 values pushed */
0 1 2 3 2 1 3 128 0 2 2 0 97 4 1 0 0 23 77 0 3 3 15 3 78
EIF[ ]	/* EndIf */
NPUSHB[ ]	/* 9 values pushed */
50 48 59 35 36 33 5 7 26
CALL[ ]	/* CallFunction */";
};
width = 399;
}
);
note = r;
unicode = 114;
},
{
glyphname = s;
kernLeft = s;
kernRight = s;
lastChange = "2025-10-05 14:11:19 +0000";
layers = (
{
anchors = (
{
name = bottom;
pos = (144,0);
},
{
name = top;
pos = (154,510);
}
);
layerId = m01;
shapes = (
{
closed = 1;
nodes = (
(259,-10,o),
(289,89,o),
(289,156,cs),
(289,289,o),
(138,322,o),
(138,430,cs),
(138,476,o),
(166,509,o),
(217,512,cs),
(286,516,o),
(259,454,o),
(296,436,cs),
(325,422,o),
(357,437,o),
(352,472,cs),
(346,513,o),
(314,553,o),
(226,550,cs),
(124,547,o),
(77,481,o),
(77,400,cs),
(77,262,o),
(228,245,o),
(228,125,cs),
(228,67,o),
(202,29,o),
(129,29,cs),
(30,29,o),
(90,93,o),
(36,122,cs),
(9,137,o),
(-26,121,o),
(-26,84,cs),
(-26,30,o),
(35,-10,o),
(124,-10,cs)
);
}
);
userData = {
assembly = "NPUSHB[ ]	/* 56 values pushed */
0 4 5 1 5 4 1 128 0 1 2 5 1 2 126 0 5 5 3 97 0 3 3 23 77 0 2 2 0 97 6 1 0 0 21 0 78 1 0 40 38 33 32 26 24 14 12 9 7 0 50 1 50 7 7 22
CALL[ ]	/* CallFunction */";
};
width = 342;
}
);
note = s;
unicode = 115;
},
{
glyphname = germandbls;
kernLeft = f;
kernRight = s;
lastChange = "2025-10-05 14:13:11 +0000";
layers = (
{
layerId = m01;
shapes = (
{
closed = 1;
nodes = (
(56,-190,o),
(93,-19,o),
(106,43,cs),
(211,540,ls),
(227,614,o),
(248,734,o),
(363,734,cs),
(415,734,o),
(442,696,o),
(419,645,cs),
(381,562,o),
(254,529,o),
(229,411,cs),
(204,291,o),
(361,254,o),
(376,151,cs),
(389,56,o),
(343,21,o),
(291,37,cs),
(248,50,o),
(274,125,o),
(215,134,cs),
(187,138,o),
(160,117,o),
(160,84,cs),
(160,27,o),
(212,-10,o),
(288,-10,cs),
(408,-10,o),
(450,89,o),
(443,170,cs),
(430,322,o),
(270,322,o),
(292,427,cs),
(318,549,o),
(430,545,o),
(488,644,cs),
(518,695,o),
(501,773,o),
(389,773,cs),
(252,773,o),
(171,686,o),
(144,540,c),
(66,530,l),
(60,498,l),
(136,498,l),
(39,43,ls),
(12,-81,o),
(0,-161,o),
(-71,-161,cs),
(-101,-161,o),
(-98,-118,o),
(-104,-99,cs),
(-109,-84,o),
(-114,-60,o),
(-153,-60,cs),
(-181,-60,o),
(-200,-80,o),
(-200,-110,cs),
(-200,-166,o),
(-137,-190,o),
(-84,-190,cs)
);
}
);
userData = {
assembly = "NPUSHB[ ]	/* 63 values pushed */
0 5 3 1 3 5 1 128 0 1 2 3 1 2 126 0 3 3 6 97 0 6 6 16 77 0 4 4 15 77 0 2 2 0 97 7 1 0 0 21 0 78 1 0 61 59 51 48 39 36 32 30 14 12 9 7 0 79 1 79 8 7 22
CALL[ ]	/* CallFunction */";
};
width = 456;
}
);
note = germandbls;
unicode = 223;
},
{
glyphname = t;
kernLeft = t;
kernRight = t;
lastChange = "2025-10-05 14:14:37 +0000";
layers = (
{
anchors = (
{
name = bottom;
pos = (110,0);
},
{
name = top;
pos = (203,508);
}
);
layerId = m01;
shapes = (
{
closed = 1;
nodes = (
(250,-10,o),
(310,47,o),
(341,165,cs),
(352,202,l),
(313,206,l),
(304,171,ls),
(286,106,o),
(254,40,o),
(191,40,cs),
(138,40,o),
(122,82,o),
(135,143,cs),
(210,498,l),
(398,498,l),
(407,540,l),
(219,540,l),
(242,647,l),
(167,647,l),
(151,540,l),
(58,540,l),
(49,498,l),
(142,498,l),
(67,143,ls),
(48,52,o),
(79,-10,o),
(165,-10,cs)
);
}
);
userData = {
assembly = "NPUSHB[ ]	/* 63 values pushed */
9 1 1 3 1 76 0 2 3 2 133 0 6 1 5 1 6 5 128 4 1 1 1 3 97 0 3 3 17 77 0 5 5 0 97 7 1 0 0 21 0 78 1 0 39 37 34 32 28 25 23 20 17 15 8 5 0 42 1 42 8 7 22
CALL[ ]	/* CallFunction */";
};
width = 383;
}
);
note = t;
unicode = 116;
},
{
glyphname = u;
kernLeft = u;
kernRight = u;
lastChange = "2025-11-23 00:09:47 +0000";
layers = (
{
anchors = (
{
name = bottom;
pos = (226,0);
},
{
name = ogonek;
pos = (336,0);
},
{
name = top;
pos = (216,510);
}
);
layerId = m01;
shapes = (
{
closed = 1;
nodes = (
(99,549,o),
(63,515,o),
(31,439,cs),
(15,401,l),
(42,397,l),
(60,437,ls),
(75,473,o),
(92,497,o),
(115,497,cs),
(145,497,o),
(137,465,o),
(134,455,cs),
(31,109,ls),
(9,35,o),
(44,-11,o),
(105,-11,cs),
(213,-11,o),
(278,133,o),
(315,246,c),
(330,246,l),
(271,76,ls),
(250,17,o),
(283,-11,o),
(319,-11,cs),
(366,-11,o),
(392,25,o),
(428,98,cs),
(446,134,l),
(416,140,l),
(397,100,l),
(375,55,o),
(364,42,o),
(347,42,cs),
(330,42,o),
(336,64,o),
(340,83,cs),
(438,540,l),
(369,540,l),
(291,172,o),
(204,42,o),
(136,42,cs),
(96,42,o),
(87,71,o),
(100,115,cs),
(203,462,ls),
(221,522,o),
(190,549,o),
(152,549,cs)
);
}
);
userData = {
assembly = "PUSHB[ ]	/* 6 values pushed */
53 1 2 1 1 76
MPPEM[ ]	/* MeasurePixelPerEm */
PUSHB[ ]	/* 1 value pushed */
9
LT[ ]	/* LessThan */
IF[ ]	/* If */
NPUSHB[ ]	/* 23 values pushed */
3 1 1 1 17 77 0 4 4 15 77 0 2 2 0 97 5 1 0 0 21 0 78
ELSE[ ]	/* Else */
NPUSHB[ ]	/* 19 values pushed */
3 1 1 1 17 77 0 2 2 0 97 4 5 2 0 0 21 0 78
EIF[ ]	/* EndIf */
NPUSHB[ ]	/* 17 values pushed */
1 0 51 49 35 32 21 19 15 12 0 58 1 58 6 7 22
CALL[ ]	/* CallFunction */";
};
width = 465;
}
);
note = u;
unicode = 117;
},
{
glyphname = v;
lastChange = "2025-10-05 14:28:28 +0000";
layers = (
{
layerId = m01;
shapes = (
{
closed = 1;
nodes = (
(334,-10,o),
(426,194,o),
(426,415,cs),
(426,492,o),
(413,550,o),
(370,550,cs),
(351,550,o),
(325,538,o),
(325,503,cs),
(325,448,o),
(379,454,o),
(379,336,cs),
(379,198,o),
(311,37,o),
(187,37,cs),
(131,37,o),
(106,63,o),
(106,134,cs),
(106,232,o),
(158,321,o),
(216,408,cs),
(304,540,l),
(226,540,l),
(222,484,l),
(195,484,o),
(188,550,o),
(129,550,cs),
(45,550,o),
(23,484,o),
(28,441,cs),
(35,380,o),
(111,384,o),
(117,431,cs),
(119,449,o),
(114,470,o),
(87,479,cs),
(74,483,o),
(67,509,o),
(107,503,cs),
(141,498,o),
(168,460,o),
(222,470,c),
(159,399,ls),
(107,340,o),
(30,233,o),
(30,116,cs),
(30,41,o),
(64,-10,o),
(154,-10,cs)
);
}
);
userData = {
assembly = "NPUSHB[ ]	/* 36 values pushed */
0 2 1 0 1 2 0 128 3 1 1 1 17 77 4 1 0 0 21 0 78 1 0 35 32 23 22 13 10 0 44 1 44 5 7 22
CALL[ ]	/* CallFunction */";
};
width = 423;
}
);
note = v;
unicode = 118;
},
{
glyphname = w;
kernLeft = w;
kernRight = w;
lastChange = "2025-10-05 14:30:42 +0000";
layers = (
{
anchors = (
{
name = bottom;
pos = (242,0);
},
{
name = top;
pos = (362,510);
}
);
layerId = m01;
shapes = (
{
closed = 1;
nodes = (
(171,-10,o),
(235,69,o),
(249,104,c),
(260,104,l),
(260,59,o),
(290,-10,o),
(348,-10,cs),
(445,-10,o),
(541,185,o),
(541,399,cs),
(541,502,o),
(524,549,o),
(483,549,cs),
(457,549,o),
(440,529,o),
(440,504,cs),
(440,483,o),
(452,467,o),
(458,459,cs),
(474,439,o),
(498,418,o),
(498,334,cs),
(498,223,o),
(428,45,o),
(352,45,cs),
(301,45,o),
(286,124,o),
(286,146,cs),
(286,169,l),
(311,212,o),
(340,291,o),
(340,346,cs),
(340,375,o),
(331,384,o),
(318,384,cs),
(272,384,o),
(254,263,o),
(254,171,c),
(239,142,ls),
(230,120,o),
(185,47,o),
(126,47,cs),
(94,47,o),
(68,69,o),
(68,114,cs),
(68,199,o),
(125,312,o),
(189,408,cs),
(277,540,l),
(209,540,l),
(205,484,l),
(203,484,ls),
(187,484,o),
(197,550,o),
(137,550,cs),
(68,550,o),
(31,489,o),
(31,441,cs),
(31,406,o),
(57,393,o),
(74,393,cs),
(95,393,o),
(120,409,o),
(120,438,cs),
(120,468,o),
(106,470,o),
(87,479,cs),
(73,486,o),
(74,506,o),
(103,502,cs),
(143,496,o),
(154,457,o),
(209,470,c),
(163,423,ls),
(65,323,o),
(3,196,o),
(3,90,cs),
(3,22,o),
(43,-10,o),
(93,-10,cs)
);
}
);
userData = {
assembly = "NPUSHB[ ]	/* 45 values pushed */
4 1 2 1 0 1 2 0 128 5 3 2 1 1 17 77 6 7 2 0 0 21 0 78 1 0 71 69 60 57 48 47 38 35 23 22 13 10 0 78 1 78 8 7 22
CALL[ ]	/* CallFunction */";
};
width = 564;
}
);
note = w;
unicode = 119;
},
{
glyphname = x;
lastChange = "2025-10-05 14:36:49 +0000";
layers = (
{
layerId = m01;
shapes = (
{
closed = 1;
nodes = (
(84,-11,o),
(126,75,o),
(179,194,c),
(190,115,ls),
(194,85,o),
(205,-10,o),
(280,-10,cs),
(342,-10,o),
(366,54,o),
(379,98,cs),
(394,146,l),
(364,151,l),
(348,104,ls),
(341,84,o),
(326,42,o),
(298,42,cs),
(267,42,o),
(260,89,o),
(256,119,cs),
(233,292,l),
(255,334,o),
(273,388,o),
(313,454,cs),
(337,495,o),
(362,508,o),
(370,490,cs),
(390,445,o),
(451,445,o),
(457,496,cs),
(461,526,o),
(437,551,o),
(402,551,cs),
(320,551,o),
(279,463,o),
(228,354,c),
(217,425,ls),
(213,463,o),
(200,550,o),
(134,550,cs),
(72,550,o),
(46,485,o),
(34,442,cs),
(21,395,l),
(51,390,l),
(64,436,ls),
(71,458,o),
(80,498,o),
(109,498,cs),
(141,498,o),
(148,445,o),
(151,421,cs),
(173,256,l),
(149,196,o),
(126,140,o),
(84,77,cs),
(33,1,o),
(44,60,o),
(-1,79,cs),
(-61,104,o),
(-94,-9,o),
(1,-10,cs)
);
}
);
userData = {
assembly = "NPUSHB[ ]	/* 39 values pushed */
0 3 2 0 2 3 0 128 4 1 2 2 17 77 1 5 2 0 0 15 0 78 1 0 62 59 51 50 42 39 21 18 0 81 1 80 6 7 22
CALL[ ]	/* CallFunction */";
};
width = 420;
}
);
note = x;
unicode = 120;
},
{
glyphname = y;
kernLeft = y;
kernRight = y;
lastChange = "2025-10-05 14:36:23 +0000";
layers = (
{
anchors = (
{
name = bottom;
pos = (201,0);
},
{
name = top;
pos = (201,510);
}
);
layerId = m01;
shapes = (
{
closed = 1;
nodes = (
(206,-190,o),
(405,212,o),
(405,460,cs),
(405,525,o),
(385,550,o),
(354,550,cs),
(326,550,o),
(306,530,o),
(306,496,cs),
(306,448,o),
(347,431,o),
(347,362,cs),
(347,254,o),
(278,76,o),
(175,-40,c),
(206,14,o),
(224,134,o),
(224,298,cs),
(224,477,o),
(199,550,o),
(132,550,cs),
(86,550,o),
(58,520,o),
(42,456,cs),
(28,400,l),
(58,398,l),
(69,446,ls),
(78,487,o),
(96,507,o),
(116,507,cs),
(151,507,o),
(160,444,o),
(160,272,cs),
(160,55,o),
(138,-95,o),
(42,-142,cs),
(-8,-165,o),
(-23,-144,o),
(-23,-127,cs),
(-23,-93,o),
(-39,-61,o),
(-76,-61,cs),
(-110,-61,o),
(-132,-86,o),
(-132,-119,cs),
(-132,-158,o),
(-100,-190,o),
(-30,-190,cs)
);
}
);
userData = {
assembly = "NPUSHB[ ]	/* 53 values pushed */
0 4 3 1 3 4 1 128 0 2 1 0 1 2 0 128 5 1 3 3 17 77 0 1 1 0 97 6 1 0 0 19 0 78 1 0 51 48 39 38 29 26 12 10 7 5 0 62 1 62 7 7 22
CALL[ ]	/* CallFunction */";
};
width = 401;
}
);
note = y;
unicode = 121;
},
{
glyphname = z;
kernLeft = z;
kernRight = z;
lastChange = "2025-10-05 14:40:14 +0000";
layers = (
{
anchors = (
{
name = bottom;
pos = (177,0);
},
{
name = top;
pos = (203,510);
}
);
layerId = m01;
shapes = (
{
closed = 1;
nodes = (
(43,-11,o),
(43,27,o),
(43,36,cs),
(43,59,o),
(39,73,o),
(62,73,cs),
(107,73,o),
(159,-11,o),
(246,-11,cs),
(329,-11,o),
(347,63,o),
(347,106,cs),
(347,170,o),
(270,171,o),
(267,113,cs),
(266,90,o),
(286,80,o),
(299,74,cs),
(320,64,o),
(319,50,o),
(280,50,cs),
(201,50,o),
(174,102,o),
(114,102,cs),
(91,102,o),
(72,94,o),
(66,88,c),
(60,92,l),
(387,469,ls),
(420,507,o),
(416,550,o),
(378,550,cs),
(341,550,o),
(341,512,o),
(341,503,cs),
(341,480,o),
(345,466,o),
(322,466,cs),
(277,466,o),
(255,550,o),
(168,550,cs),
(85,550,o),
(46,474,o),
(48,433,cs),
(51,369,o),
(137,368,o),
(137,426,cs),
(137,454,o),
(114,459,o),
(100,465,cs),
(91,469,o),
(79,489,o),
(125,489,cs),
(204,489,o),
(213,439,o),
(273,439,cs),
(296,439,o),
(312,445,o),
(318,451,c),
(324,447,l),
(-12,61,ls),
(-36,33,o),
(-35,-11,o),
(5,-11,cs)
);
}
);
userData = {
assembly = "NPUSHB[ ]	/* 10 values pushed */
28 1 1 4 2 1 0 5 2 76
MPPEM[ ]	/* MeasurePixelPerEm */
PUSHB[ ]	/* 1 value pushed */
28
LT[ ]	/* LessThan */
IF[ ]	/* If */
NPUSHB[ ]	/* 42 values pushed */
0 2 1 6 1 2 6 128 0 6 5 1 6 5 126 0 3 3 23 77 0 1 1 4 95 0 4 4 17 77 0 5 5 0 95 7 1 0 0 15 0 78
ELSE[ ]	/* Else */
NPUSHB[ ]	/* 42 values pushed */
0 3 4 3 133 0 2 1 6 1 2 6 128 0 6 5 1 6 5 126 0 1 1 4 95 0 4 4 17 77 0 5 5 0 95 7 1 0 0 15 0 78
EIF[ ]	/* EndIf */
NPUSHB[ ]	/* 21 values pushed */
1 0 43 41 37 34 27 24 22 20 17 15 11 8 0 47 1 46 8 7 22
CALL[ ]	/* CallFunction */";
};
width = 393;
}
);
note = z;
unicode = 122;
},
{
glyphname = f_b;
kernLeft = f;
kernRight = b;
lastChange = "2025-10-05 15:01:07 +0000";
layers = (
{
anchors = (
{
name = bottom_2;
pos = (537,0);
},
{
name = caret_1;
pos = (358,0);
},
{
name = top_1;
pos = (179,740);
},
{
name = top_2;
pos = (537,740);
}
);
layerId = m01;
shapes = (
{
closed = 1;
nodes = (
(41,-190,o),
(100,-88,o),
(128,43,cs),
(224,498,l),
(345,498,l),
(355,540,l),
(233,540,l),
(249,614,o),
(255,719,o),
(340,735,cs),
(373,741,o),
(428,733,o),
(440,687,c),
(502,696,l),
(497,742,o),
(436,771,o),
(376,773,cs),
(239,778,o),
(194,671,o),
(166,541,c),
(77,530,l),
(70,498,l),
(157,498,l),
(61,43,ls),
(45,-31,o),
(27,-151,o),
(-51,-151,cs),
(-98,-151,o),
(-71,-57,o),
(-130,-52,cs),
(-158,-50,o),
(-178,-71,o),
(-178,-98,cs),
(-178,-146,o),
(-121,-190,o),
(-63,-190,cs)
);
},
{
closed = 1;
nodes = (
(599,-10,o),
(695,234,o),
(695,395,cs),
(695,491,o),
(662,550,o),
(591,550,cs),
(484,550,o),
(433,413,o),
(405,332,c),
(390,332,l),
(465,540,l),
(515,750,l),
(451,735,l),
(292,48,l),
(309,23,o),
(355,-10,o),
(420,-10,cs)
);
},
{
closed = 1;
nodes = (
(379,32,o),
(362,72,o),
(374,122,cs),
(402,240,ls),
(439,397,o),
(507,504,o),
(570,504,cs),
(613,504,o),
(642,465,o),
(626,390,cs),
(584,192,ls),
(561,85,o),
(505,32,o),
(438,32,cs)
);
}
);
userData = {
assembly = "NPUSHB[ ]	/* 96 values pushed */
68 1 11 3 1 76 0 7 7 16 77 0 1 1 6 97 0 6 6 16 77 5 1 3 3 2 95 0 2 2 17 77 0 11 11 8 97 0 8 8 23 77 0 4 4 15 77 13 1 10 10 0 97 9 12 2 0 0 21 0 78 89 88 1 0 95 93 88 100 89 100 82 80 74 72 66 64 58 56 47 44 35 32 23 20 18 15 10 8 0 87 1 87 14 7 22
CALL[ ]	/* CallFunction */";
};
width = 716;
}
);
note = f_b;
},
{
glyphname = f_f_i;
lastChange = "2025-10-05 14:43:11 +0000";
layers = (
{
anchors = (
{
name = caret_1;
pos = (222,0);
},
{
name = caret_2;
pos = (465,0);
}
);
layerId = m01;
shapes = (
{
closed = 1;
nodes = (
(22,-190,o),
(81,-88,o),
(109,43,cs),
(205,498,l),
(372,498,l),
(267,0,l),
(336,0,l),
(439,498,l),
(586,498,l),
(505,115,ls),
(489,40,o),
(506,-10,o),
(564,-10,cs),
(622,-10,o),
(652,31,o),
(677,97,cs),
(712,186,l),
(685,194,l),
(649,104,ls),
(631,59,o),
(613,42,o),
(596,42,cs),
(564,42,o),
(564,78,o),
(573,119,cs),
(663,540,l),
(448,540,l),
(462,597,o),
(470,703,o),
(555,714,cs),
(601,720,o),
(619,685,o),
(603,641,cs),
(593,615,o),
(599,587,o),
(632,587,cs),
(660,587,o),
(684,609,o),
(687,647,cs),
(691,693,o),
(656,745,o),
(591,751,cs),
(522,757,o),
(477,728,o),
(448,689,c),
(428,710,o),
(394,726,o),
(356,727,cs),
(219,732,o),
(172,637,o),
(147,541,c),
(58,530,l),
(51,498,l),
(138,498,l),
(42,43,ls),
(26,-31,o),
(9,-151,o),
(-69,-151,cs),
(-116,-151,o),
(-90,-57,o),
(-149,-52,cs),
(-177,-50,o),
(-197,-71,o),
(-197,-98,cs),
(-197,-146,o),
(-140,-190,o),
(-82,-190,cs)
);
},
{
closed = 1;
nodes = (
(230,614,o),
(251,675,o),
(321,687,cs),
(375,696,o),
(405,656,o),
(396,614,cs),
(381,541,l),
(373,540,l),
(214,540,l)
);
}
);
userData = {
assembly = "NPUSHB[ ]	/* 88 values pushed */
0 4 12 6 12 4 6 128 0 5 5 3 97 0 3 3 16 77 0 12 12 2 97 0 2 2 20 77 10 8 2 1 1 6 95 14 11 2 6 6 17 77 9 7 13 3 0 0 15 0 78 111 109 1 0 117 115 109 121 111 121 98 95 86 83 74 71 62 59 50 47 42 40 37 35 31 29 24 22 13 10 0 108 1 107 15 7 22
CALL[ ]	/* CallFunction */";
};
width = 740;
}
);
note = f_f_i;
},
{
glyphname = f_f_l;
lastChange = "2025-10-05 15:03:45 +0000";
layers = (
{
anchors = (
{
name = caret_1;
pos = (244,0);
},
{
name = caret_2;
pos = (487,0);
}
);
layerId = m01;
shapes = (
{
closed = 1;
nodes = (
(566,540,l),
(456,540,l),
(470,597,o),
(478,703,o),
(563,714,cs),
(609,720,o),
(639,674,o),
(623,630,c),
(695,647,l),
(699,693,o),
(664,745,o),
(599,751,cs),
(530,757,o),
(485,728,o),
(456,689,c),
(436,710,o),
(402,726,o),
(364,727,cs),
(227,732,o),
(180,637,o),
(155,541,c),
(66,530,l),
(59,498,l),
(146,498,l),
(50,43,ls),
(34,-31,o),
(14,-161,o),
(-64,-161,cs),
(-111,-161,o),
(-82,-57,o),
(-141,-52,cs),
(-169,-50,o),
(-189,-71,o),
(-189,-98,cs),
(-189,-146,o),
(-132,-190,o),
(-74,-190,cs),
(30,-190,o),
(89,-88,o),
(117,43,cs),
(215,508,l),
(382,508,l),
(275,0,l),
(344,0,l),
(449,508,l),
(559,508,l)
);
},
{
closed = 1;
nodes = (
(238,614,o),
(259,675,o),
(329,687,cs),
(383,696,o),
(413,656,o),
(404,614,cs),
(389,541,l),
(381,540,l),
(222,540,l)
);
},
{
closed = 1;
nodes = (
(513,115,ls),
(497,40,o),
(514,-10,o),
(572,-10,cs),
(629,-10,o),
(661,29,o),
(685,97,cs),
(716,186,l),
(689,194,l),
(657,104,ls),
(641,59,o),
(621,42,o),
(604,42,cs),
(572,42,o),
(572,78,o),
(581,119,cs),
(718,750,l),
(642,719,l)
);
}
);
userData = {
assembly = "NPUSHB[ ]	/* 85 values pushed */
0 4 4 16 77 0 6 6 3 97 0 3 3 16 77 0 12 12 2 97 0 2 2 20 77 10 8 2 1 1 7 95 14 11 2 7 7 17 77 9 5 13 3 0 0 15 0 78 113 111 1 0 119 117 111 123 113 123 100 97 88 85 76 73 71 68 63 61 51 48 39 37 31 29 24 22 13 10 0 110 1 109 15 7 22
CALL[ ]	/* CallFunction */";
};
width = 731;
}
);
note = f_f_l;
},
{
glyphname = f_h;
kernLeft = f;
kernRight = h;
lastChange = "2025-10-05 15:03:35 +0000";
layers = (
{
anchors = (
{
name = bottom_1;
pos = (183,0);
},
{
name = bottom_2;
pos = (548,0);
},
{
name = caret_1;
pos = (244,0);
},
{
name = caret_2;
pos = (487,0);
},
{
name = top_1;
pos = (183,740);
},
{
name = top_2;
pos = (548,740);
}
);
layerId = m01;
shapes = (
{
closed = 1;
nodes = (
(31,-190,o),
(90,-88,o),
(118,43,cs),
(214,498,l),
(343,498,l),
(353,540,l),
(223,540,l),
(239,614,o),
(245,719,o),
(330,735,cs),
(363,741,o),
(418,733,o),
(430,687,c),
(492,696,l),
(487,742,o),
(426,771,o),
(366,773,cs),
(229,778,o),
(184,671,o),
(156,541,c),
(67,530,l),
(60,498,l),
(147,498,l),
(51,43,ls),
(35,-31,o),
(17,-151,o),
(-61,-151,cs),
(-108,-151,o),
(-81,-57,o),
(-140,-52,cs),
(-168,-50,o),
(-188,-71,o),
(-188,-98,cs),
(-188,-146,o),
(-131,-190,o),
(-73,-190,cs)
);
},
{
closed = 1;
nodes = (
(616,-10,o),
(649,39,o),
(691,97,cs),
(715,130,l),
(687,147,l),
(660,111,ls),
(629,71,o),
(611,42,o),
(594,42,cs),
(566,42,o),
(578,74,o),
(581,84,cs),
(684,430,ls),
(706,504,o),
(671,550,o),
(610,550,cs),
(502,550,o),
(435,417,o),
(400,311,c),
(385,311,l),
(460,540,l),
(505,750,l),
(427,710,l),
(278,0,l),
(347,0,l),
(413,312,o),
(492,492,o),
(577,492,cs),
(618,492,o),
(628,468,o),
(615,424,cs),
(512,77,ls),
(494,17,o),
(525,-10,o),
(563,-10,cs)
);
}
);
userData = {
assembly = "NPUSHB[ ]	/* 74 values pushed */
0 3 3 16 77 0 8 8 2 97 0 2 2 16 77 10 1 1 1 9 95 0 9 9 17 77 0 6 6 4 97 0 4 4 23 77 7 5 11 3 0 0 15 0 78 1 0 105 102 100 97 92 90 80 77 66 64 54 51 41 39 32 30 24 22 13 10 0 115 1 114 12 7 22
CALL[ ]	/* CallFunction */";
};
width = 696;
}
);
note = f_h;
},
{
glyphname = f_i;
kernLeft = f;
lastChange = "2025-10-05 15:03:06 +0000";
layers = (
{
anchors = (
{
name = bottom;
pos = (288,0);
},
{
name = bottom_1;
pos = (119,0);
},
{
name = bottom_2;
pos = (358,0);
},
{
name = caret_1;
pos = (222,0);
},
{
name = caret_2;
pos = (465,0);
},
{
name = ogonek;
pos = (397,0);
},
{
name = top;
pos = (342,510);
},
{
name = top_1;
pos = (119,740);
},
{
name = top_2;
pos = (358,740);
}
);
layerId = m01;
shapes = (
{
pos = (-10,0);
ref = f;
},
{
closed = 1;
nodes = (
(391,-12,o),
(425,31,o),
(453,97,cs),
(489,183,l),
(459,198,l),
(420,109,ls),
(400,64,o),
(387,42,o),
(363,42,cs),
(331,42,o),
(331,78,o),
(340,119,cs),
(430,540,l),
(315,540,l),
(300,498,l),
(354,498,l),
(272,115,ls),
(256,40,o),
(273,-8,o),
(331,-10,cs)
);
}
);
userData = {
assembly = "NPUSHB[ ]	/* 60 values pushed */
0 3 4 5 4 3 5 128 0 4 4 2 97 0 2 2 16 77 7 1 1 1 5 95 0 5 5 17 77 6 8 2 0 0 15 0 78 1 0 67 64 55 52 43 40 35 33 30 28 24 22 13 10 0 77 1 76 9 7 22
CALL[ ]	/* CallFunction */";
};
width = 507;
}
);
note = f_i;
},
{
glyphname = f_l;
kernLeft = f;
kernRight = l;
lastChange = "2025-10-05 15:02:51 +0000";
layers = (
{
anchors = (
{
name = bottom;
pos = (279,0);
},
{
name = bottom_1;
pos = (130,0);
},
{
name = bottom_2;
pos = (371,0);
},
{
name = caret_1;
pos = (250,0);
},
{
name = top;
pos = (405,710);
},
{
name = top_1;
pos = (130,740);
},
{
name = top_2;
pos = (371,740);
}
);
layerId = m01;
shapes = (
{
closed = 1;
nodes = (
(435,-10,o),
(456,66,o),
(485,149,cs),
(497,183,l),
(467,195,l),
(455,163,ls),
(434,106,o),
(419,49,o),
(378,49,cs),
(347,49,o),
(348,79,o),
(362,143,cs),
(491,750,l),
(417,719,l),
(294,143,ls),
(275,52,o),
(275,-10,o),
(360,-10,cs)
);
},
{
closed = 1;
nodes = (
(31,-190,o),
(90,-88,o),
(118,43,cs),
(214,498,l),
(328,498,l),
(338,540,l),
(223,540,l),
(239,614,o),
(248,673,o),
(333,689,cs),
(366,695,o),
(402,681,o),
(400,625,c),
(467,643,l),
(471,689,o),
(435,725,o),
(375,727,cs),
(248,732,o),
(184,671,o),
(156,541,c),
(67,530,l),
(60,498,l),
(147,498,l),
(51,43,ls),
(35,-31,o),
(17,-151,o),
(-61,-151,cs),
(-108,-151,o),
(-81,-57,o),
(-140,-52,cs),
(-168,-50,o),
(-188,-71,o),
(-188,-98,cs),
(-188,-146,o),
(-131,-190,o),
(-73,-190,cs)
);
}
);
userData = {
assembly = "NPUSHB[ ]	/* 57 values pushed */
0 3 3 16 77 0 5 5 2 97 0 2 2 16 77 7 1 1 1 6 95 0 6 6 17 77 4 8 2 0 0 15 0 78 1 0 69 66 64 61 56 54 44 41 32 30 24 22 13 10 0 79 1 78 9 7 22
CALL[ ]	/* CallFunction */";
};
width = 519;
}
);
note = f_l;
},
{
glyphname = q_j;
lastChange = "2025-10-05 15:05:56 +0000";
layers = (
{
anchors = (
{
name = bottom_1;
pos = (175,0);
},
{
name = bottom_2;
pos = (504,0);
},
{
name = caret_1;
pos = (339,0);
},
{
name = top_1;
pos = (175,510);
},
{
name = top_2;
pos = (504,510);
}
);
layerId = m01;
shapes = (
{
pos = (652,289);
ref = periodcentered.loclCAT;
},
{
closed = 1;
nodes = (
(477,530,l),
(470,496,l),
(592,496,l),
(486,-2,ls),
(464,-107,o),
(453,-145,o),
(413,-153,cs),
(373,-161,o),
(393,-123,o),
(393,-106,cs),
(395,-80,o),
(388,-56,o),
(358,-54,cs),
(330,-52,o),
(303,-74,o),
(301,-105,cs),
(299,-149,o),
(324,-197,o),
(398,-190,cs),
(493,-181,o),
(537,-81,o),
(555,0,cs),
(672,550,l)
);
},
{
closed = 1;
nodes = (
(35,-190,l),
(267,-190,l),
(422,540,l),
(384,540,l),
(366,455,l),
(356,455,l),
(353,496,o),
(329,550,o),
(259,550,cs),
(137,550,o),
(47,412,o),
(13,251,cs),
(-19,98,o),
(7,-10,o),
(112,-10,cs),
(176,-10,o),
(230,38,o),
(253,75,c),
(256,75,l),
(209,-146,l),
(45,-146,l)
);
},
{
closed = 1;
nodes = (
(92,41,o),
(52,73,o),
(69,154,cs),
(116,371,ls),
(135,462,o),
(185,508,o),
(248,508,cs),
(304,508,o),
(338,464,o),
(317,364,cs),
(271,149,l),
(257,103,o),
(211,41,o),
(143,41,cs)
);
}
);
userData = {
assembly = "PUSHB[ ]	/* 7 values pushed */
73 21 2 10 11 1 76
MPPEM[ ]	/* MeasurePixelPerEm */
PUSHB[ ]	/* 1 value pushed */
23
LT[ ]	/* LessThan */
IF[ ]	/* If */
NPUSHB[ ]	/* 59 values pushed */
0 7 3 8 8 7 114 12 1 0 0 1 97 0 1 1 14 77 0 11 11 4 97 9 5 2 4 4 23 77 15 1 10 10 3 97 0 3 3 21 77 13 1 2 2 19 77 0 8 8 6 98 14 1 6 6 25 6 78
ELSE[ ]	/* Else */
MPPEM[ ]	/* MeasurePixelPerEm */
PUSHB[ ]	/* 1 value pushed */
50
LT[ ]	/* LessThan */
IF[ ]	/* If */
NPUSHB[ ]	/* 60 values pushed */
0 7 3 8 3 7 8 128 12 1 0 0 1 97 0 1 1 14 77 0 11 11 4 97 9 5 2 4 4 23 77 15 1 10 10 3 97 0 3 3 21 77 13 1 2 2 19 77 0 8 8 6 98 14 1 6 6 25 6 78
ELSE[ ]	/* Else */
NPUSHB[ ]	/* 58 values pushed */
0 7 3 8 3 7 8 128 0 1 12 1 0 4 1 0 105 0 11 11 4 97 9 5 2 4 4 23 77 15 1 10 10 3 97 0 3 3 21 77 13 1 2 2 19 77 0 8 8 6 98 14 1 6 6 25 6 78
EIF[ ]	/* EndIf */
EIF[ ]	/* EndIf */
NPUSHB[ ]	/* 43 values pushed */
87 86 53 52 13 12 1 0 95 93 86 99 87 99 81 79 64 62 59 57 52 85 53 85 44 42 36 34 28 26 12 51 13 50 7 5 0 11 1 11 16 7 22
CALL[ ]	/* CallFunction */";
};
width = 668;
}
);
note = q_j;
},
{
glyphname = zero;
lastChange = "2025-10-05 15:07:36 +0000";
layers = (
{
layerId = m01;
shapes = (
{
closed = 1;
nodes = (
(444,-10,o),
(606,750,o),
(332,750,cs),
(58,750,o),
(-102,-10,o),
(171,-10,cs)
);
},
{
closed = 1;
nodes = (
(87,37,o),
(67,120,o),
(92,235,cs),
(149,505,ls),
(173,620,o),
(229,703,o),
(322,703,cs),
(415,703,o),
(435,620,o),
(411,505,cs),
(354,235,ls),
(329,120,o),
(275,37,o),
(181,37,cs)
);
},
{
closed = 1;
nodes = (
(299,347,o),
(305,371,qs),
(309,394,o),
(284,423,o),
(264,423,qs),
(242,423,o),
(204,394,o),
(200,371,qs),
(194,347,o),
(219,318,o),
(241,318,qs),
(261,318,o)
);
}
);
userData = {
assembly = "NPUSHB[ ]	/* 42 values pushed */
0 3 3 1 97 0 1 1 20 77 5 1 2 2 0 97 4 1 0 0 21 0 78 17 16 1 0 23 21 16 27 17 27 9 7 0 15 1 15 6 7 22
CALL[ ]	/* CallFunction */";
};
width = 460;
}
);
note = zero;
unicode = 48;
},
{
glyphname = one;
lastChange = "2025-10-05 15:07:59 +0000";
layers = (
{
layerId = m01;
shapes = (
{
closed = 1;
nodes = (
(-54,0,l),
(362,0,l),
(371,44,l),
(202,44,l),
(352,750,l),
(328,750,l),
(286,699,o),
(240,676,o),
(174,670,cs),
(83,662,l),
(76,625,l),
(258,625,l),
(134,44,l),
(-45,44,l)
);
}
);
userData = {
assembly = "NPUSHB[ ]	/* 33 values pushed */
0 1 2 0 2 1 0 128 0 2 2 20 77 3 1 0 0 15 0 78 1 0 21 19 14 13 0 31 1 30 4 7 22
CALL[ ]	/* CallFunction */";
};
width = 439;
}
);
note = one;
unicode = 49;
},
{
glyphname = two;
lastChange = "2025-10-05 15:08:38 +0000";
layers = (
{
layerId = m01;
shapes = (
{
closed = 1;
nodes = (
(53,-10,o),
(71,7,o),
(75,27,cs),
(81,52,o),
(72,62,o),
(57,74,cs),
(44,85,l),
(60,108,o),
(78,128,o),
(111,128,cs),
(186,128,o),
(158,-10,o),
(268,-10,cs),
(360,-10,o),
(384,94,o),
(396,153,cs),
(417,249,l),
(375,249,l),
(354,154,ls),
(345,109,o),
(338,57,o),
(292,57,cs),
(223,57,o),
(223,166,o),
(131,166,cs),
(84,166,o),
(53,136,o),
(34,110,c),
(53,193,o),
(123,251,o),
(187,292,cs),
(291,359,ls),
(355,400,o),
(446,464,o),
(470,573,cs),
(491,672,o),
(436,750,o),
(329,750,cs),
(209,750,o),
(119,649,o),
(100,559,cs),
(86,495,o),
(115,467,o),
(145,467,cs),
(169,467,o),
(195,485,o),
(201,515,cs),
(208,546,o),
(181,557,o),
(170,612,cs),
(162,653,o),
(224,705,o),
(302,705,cs),
(381,705,o),
(419,660,o),
(400,571,cs),
(379,474,o),
(307,421,o),
(267,392,cs),
(163,317,ls),
(117,284,o),
(16,215,o),
(-11,88,cs),
(-26,17,o),
(-4,-10,o),
(28,-10,cs)
);
}
);
userData = {
assembly = "NPUSHB[ ]	/* 67 values pushed */
43 1 4 5 44 2 2 0 4 2 76 0 2 1 5 1 2 5 128 0 5 4 1 5 4 126 0 1 1 3 97 0 3 3 20 77 0 4 4 0 96 6 1 0 0 15 0 78 1 0 42 40 35 32 23 21 17 15 12 10 0 46 1 45 7 7 22
CALL[ ]	/* CallFunction */";
};
width = 451;
}
);
note = two;
unicode = 50;
},
{
glyphname = three;
lastChange = "2025-10-05 15:09:10 +0000";
layers = (
{
layerId = m01;
shapes = (
{
closed = 1;
nodes = (
(257,-10,o),
(367,74,o),
(402,236,cs),
(435,394,o),
(376,465,o),
(292,465,cs),
(256,465,o),
(228,454,o),
(212,446,c),
(210,449,l),
(463,678,l),
(476,740,l),
(153,740,l),
(108,526,l),
(141,526,l),
(163,601,ls),
(181,659,o),
(229,678,o),
(269,678,cs),
(418,678,l),
(115,401,l),
(138,371,l),
(185,404,o),
(220,423,o),
(272,423,cs),
(349,423,o),
(362,369,o),
(348,302,cs),
(321,174,ls),
(301,82,o),
(237,35,o),
(150,35,cs),
(76,35,o),
(33,81,o),
(51,156,cs),
(59,191,o),
(101,200,o),
(123,231,cs),
(143,259,o),
(127,288,o),
(100,288,cs),
(63,288,o),
(27,251,o),
(12,182,cs),
(-10,75,o),
(45,-10,o),
(143,-10,cs)
);
}
);
userData = {
assembly = "NPUSHB[ ]	/* 69 values pushed */
0 5 4 7 4 5 7 128 0 1 3 2 3 1 2 128 0 7 0 3 1 7 3 105 0 4 4 6 97 0 6 6 20 77 0 2 2 0 97 8 1 0 0 21 0 78 1 0 51 49 40 38 35 33 30 28 17 15 12 10 7 5 0 58 1 58 9 7 22
CALL[ ]	/* CallFunction */";
};
width = 431;
}
);
note = three;
unicode = 51;
},
{
glyphname = four;
lastChange = "2025-10-05 15:09:26 +0000";
layers = (
{
layerId = m01;
shapes = (
{
closed = 1;
nodes = (
(84,0,l),
(400,0,l),
(409,44,l),
(290,44,l),
(326,213,l),
(440,213,l),
(449,257,l),
(335,257,l),
(438,740,l),
(400,740,l),
(18,247,l),
(11,213,l),
(258,213,l),
(222,44,l),
(93,44,l)
);
},
{
closed = 1;
nodes = (
(69,257,l),
(344,620,l),
(267,257,l)
);
}
);
userData = {
assembly = "NPUSHB[ ]	/* 47 values pushed */
14 1 1 3 1 76 4 1 3 5 1 1 0 3 1 105 0 2 2 14 77 6 1 0 0 15 0 78 1 0 47 44 41 38 28 25 22 19 13 10 0 57 1 56 7 7 22
CALL[ ]	/* CallFunction */";
};
width = 483;
}
);
note = four;
unicode = 52;
},
{
glyphname = five;
lastChange = "2025-10-05 15:09:59 +0000";
layers = (
{
layerId = m01;
shapes = (
{
closed = 1;
nodes = (
(253,-10,o),
(356,88,o),
(390,247,cs),
(421,394,o),
(367,475,o),
(258,475,cs),
(193,475,o),
(150,449,o),
(122,416,c),
(207,673,l),
(458,673,l),
(472,740,l),
(186,740,l),
(60,358,l),
(99,353,l),
(124,391,o),
(168,433,o),
(245,433,cs),
(331,433,o),
(351,384,o),
(337,316,cs),
(307,174,ls),
(287,82,o),
(231,35,o),
(140,35,cs),
(48,35,o),
(24,84,o),
(41,157,cs),
(50,192,o),
(87,200,o),
(109,231,cs),
(128,259,o),
(113,288,o),
(86,288,cs),
(49,288,o),
(13,251,o),
(-2,182,cs),
(-25,74,o),
(17,-10,o),
(134,-10,cs)
);
}
);
userData = {
assembly = "NPUSHB[ ]	/* 63 values pushed */
0 6 5 1 5 6 1 128 0 1 2 5 1 2 126 0 4 4 16 77 0 5 5 3 95 0 3 3 14 77 0 2 2 0 97 7 1 0 0 21 0 78 1 0 41 40 37 34 30 28 26 23 13 11 8 6 0 48 1 48 8 7 22
CALL[ ]	/* CallFunction */";
};
width = 422;
}
);
note = five;
unicode = 53;
},
{
glyphname = six;
lastChange = "2025-10-05 15:10:39 +0000";
layers = (
{
layerId = m01;
shapes = (
{
closed = 1;
nodes = (
(289,-10,o),
(376,102,o),
(404,231,cs),
(430,355,o),
(396,465,o),
(277,465,cs),
(177,465,o),
(122,382,o),
(102,328,c),
(94,328,l),
(102,363,ls),
(148,580,o),
(220,696,o),
(341,710,cs),
(394,716,o),
(427,687,o),
(410,645,cs),
(397,611,o),
(368,608,o),
(352,567,cs),
(341,540,o),
(355,516,o),
(379,516,cs),
(417,516,o),
(446,555,o),
(457,606,cs),
(476,697,o),
(435,753,o),
(348,750,cs),
(184,744,o),
(86,560,o),
(37,332,cs),
(-19,67,o),
(62,-10,o),
(165,-10,cs)
);
},
{
closed = 1;
nodes = (
(103,35,o),
(73,86,o),
(93,180,cs),
(113,272,ls),
(133,366,o),
(189,423,o),
(266,423,cs),
(338,423,o),
(365,369,o),
(345,275,cs),
(325,180,ls),
(305,86,o),
(255,35,o),
(179,35,cs)
);
}
);
userData = {
assembly = "NPUSHB[ ]	/* 40 values pushed */
0 1 0 3 2 1 3 105 5 1 2 2 0 97 4 1 0 0 21 0 78 31 30 1 0 37 35 30 39 31 39 23 21 0 29 1 29 6 7 22
CALL[ ]	/* CallFunction */";
};
width = 432;
}
);
note = six;
unicode = 54;
},
{
glyphname = seven;
lastChange = "2025-10-05 15:11:00 +0000";
layers = (
{
layerId = m01;
shapes = (
{
closed = 1;
nodes = (
(59,0,l),
(124,0,l),
(134,47,ls),
(221,459,o),
(430,455,o),
(472,652,cs),
(487,723,o),
(466,750,o),
(434,750,cs),
(388,750,o),
(365,697,o),
(404,670,cs),
(422,658,o),
(417,625,o),
(365,625,cs),
(290,625,o),
(326,750,o),
(233,750,cs),
(188,750,o),
(168,715,o),
(156,692,c),
(152,692,l),
(162,740,l),
(118,740,l),
(71,521,l),
(115,521,l),
(129,586,ls),
(139,631,o),
(156,689,o),
(201,689,cs),
(260,689,o),
(251,587,o),
(343,587,cs),
(390,587,o),
(414,608,o),
(426,624,c),
(392,461,o),
(156,456,o),
(69,47,cs)
);
}
);
userData = {
assembly = "NPUSHB[ ]	/* 46 values pushed */
19 1 1 3 1 76 0 2 1 0 1 2 0 128 0 1 1 3 95 0 3 3 14 77 4 1 0 0 15 0 78 1 0 18 15 11 9 7 4 0 24 1 23 5 7 22
CALL[ ]	/* CallFunction */";
};
width = 397;
}
);
note = seven;
unicode = 55;
},
{
glyphname = eight;
lastChange = "2025-10-05 15:11:35 +0000";
layers = (
{
layerId = m01;
shapes = (
{
closed = 1;
nodes = (
(301,-10,o),
(392,109,o),
(417,227,cs),
(441,341,o),
(388,413,o),
(341,435,c),
(343,443,l),
(383,459,o),
(443,509,o),
(460,589,cs),
(483,696,o),
(415,750,o),
(327,750,cs),
(239,750,o),
(149,696,o),
(125,587,cs),
(109,509,o),
(147,459,o),
(181,443,c),
(179,435,l),
(122,413,o),
(39,341,o),
(15,227,cs),
(-10,109,o),
(31,-10,o),
(166,-10,cs)
);
},
{
closed = 1;
nodes = (
(194,459,o),
(166,498,o),
(180,566,cs),
(189,608,ls),
(203,676,o),
(248,710,o),
(319,710,cs),
(390,710,o),
(419,676,o),
(405,608,cs),
(396,566,ls),
(382,498,o),
(336,459,o),
(265,459,cs)
);
},
{
closed = 1;
nodes = (
(90,35,o),
(54,77,o),
(72,162,cs),
(98,284,ls),
(116,369,o),
(171,417,o),
(256,417,cs),
(341,417,o),
(376,369,o),
(358,284,cs),
(332,162,ls),
(314,77,o),
(260,35,o),
(175,35,cs)
);
}
);
userData = {
assembly = "NPUSHB[ ]	/* 42 values pushed */
0 2 2 1 97 0 1 1 20 77 5 1 3 3 0 97 4 1 0 0 21 0 78 50 49 1 0 49 63 50 63 43 41 18 16 0 33 1 33 6 7 22
CALL[ ]	/* CallFunction */";
};
width = 450;
}
);
note = eight;
unicode = 56;
},
{
glyphname = nine;
lastChange = "2025-10-05 15:11:55 +0000";
layers = (
{
layerId = m01;
shapes = (
{
closed = 1;
nodes = (
(191,753,o),
(103,641,o),
(76,512,cs),
(49,388,o),
(84,278,o),
(203,278,cs),
(303,278,o),
(357,361,o),
(377,415,c),
(385,415,l),
(377,380,ls),
(331,163,o),
(260,47,o),
(139,33,cs),
(85,27,o),
(53,56,o),
(70,98,cs),
(83,132,o),
(111,135,o),
(127,176,cs),
(138,203,o),
(124,227,o),
(100,227,cs),
(62,227,o),
(34,188,o),
(23,137,cs),
(3,46,o),
(45,-10,o),
(131,-7,cs),
(295,-1,o),
(394,183,o),
(442,411,cs),
(498,676,o),
(418,753,o),
(315,753,cs)
);
},
{
closed = 1;
nodes = (
(376,708,o),
(406,657,o),
(386,563,cs),
(367,471,ls),
(347,377,o),
(291,320,o),
(214,320,cs),
(142,320,o),
(114,374,o),
(134,468,cs),
(154,563,ls),
(174,657,o),
(224,708,o),
(300,708,cs)
);
}
);
userData = {
assembly = "NPUSHB[ ]	/* 25 values pushed */
0 2 0 0 2 0 101 0 3 3 1 97 0 1 1 20 3 78 36 40 38 44 4 7 26
CALL[ ]	/* CallFunction */";
};
width = 432;
}
);
note = nine;
unicode = 57;
},
{
glyphname = period;
kernLeft = period;
kernRight = period;
lastChange = "2025-07-16 22:35:02 +0000";
layers = (
{
layerId = m01;
shapes = (
{
closed = 1;
nodes = (
(78,-11,o),
(107,13,o),
(114,44,cs),
(121,75,o),
(102,99,o),
(71,99,cs),
(40,99,o),
(11,75,o),
(4,44,cs),
(-3,13,o),
(16,-11,o),
(47,-11,cs)
);
}
);
userData = {
assembly = "NPUSHB[ ]	/* 23 values pushed */
0 1 1 0 97 2 1 0 0 21 0 78 1 0 7 5 0 11 1 11 3 7 22
CALL[ ]	/* CallFunction */";
};
width = 213;
}
);
note = period;
unicode = 46;
},
{
glyphname = comma;
kernLeft = period;
kernRight = period;
lastChange = "2025-10-05 15:12:23 +0000";
layers = (
{
layerId = m01;
shapes = (
{
closed = 1;
nodes = (
(56,-54,o),
(22,-79,o),
(-22,-79,c),
(-31,-121,l),
(76,-121,o),
(110,-22,o),
(118,39,cs),
(124,81,o),
(105,100,o),
(76,100,cs),
(45,100,o),
(16,77,o),
(9,43,cs),
(1,7,o),
(20,-16,o),
(63,-11,c)
);
}
);
userData = {
assembly = "PUSHB[ ]	/* 8 values pushed */
0 0 0 118 46 1 7 23
CALL[ ]	/* CallFunction */";
};
width = 217;
}
);
note = comma;
unicode = 44;
},
{
glyphname = exclam;
lastChange = "2025-10-05 15:13:07 +0000";
layers = (
{
layerId = m01;
shapes = (
{
closed = 1;
nodes = (
(182,740,l),
(76,172,l),
(116,172,l),
(252,740,l)
);
},
{
closed = 1;
nodes = (
(89,-10,o),
(118,14,o),
(124,45,cs),
(131,76,o),
(112,100,o),
(81,100,cs),
(50,100,o),
(21,76,o),
(14,45,cs),
(8,14,o),
(27,-10,o),
(58,-10,cs)
);
}
);
userData = {
assembly = "MPPEM[ ]	/* MeasurePixelPerEm */
PUSHB[ ]	/* 1 value pushed */
50
LT[ ]	/* LessThan */
IF[ ]	/* If */
NPUSHB[ ]	/* 26 values pushed */
4 1 0 1 3 1 0 3 128 0 1 1 16 77 0 3 3 2 97 5 1 2 2 21 2 78
ELSE[ ]	/* Else */
NPUSHB[ ]	/* 23 values pushed */
0 1 0 1 133 4 1 0 3 0 133 0 3 3 2 97 5 1 2 2 21 2 78
EIF[ ]	/* EndIf */
NPUSHB[ ]	/* 19 values pushed */
23 22 1 0 29 27 22 33 23 33 12 10 0 21 1 21 6 7 22
CALL[ ]	/* CallFunction */";
};
width = 227;
}
);
note = exclam;
unicode = 33;
},
{
glyphname = question;
lastChange = "2025-10-05 15:13:38 +0000";
layers = (
{
layerId = m01;
shapes = (
{
closed = 1;
nodes = (
(187,197,ls),
(225,380,o),
(406,414,o),
(440,577,cs),
(461,672,o),
(418,750,o),
(310,750,cs),
(189,750,o),
(109,649,o),
(90,559,cs),
(76,495,o),
(105,467,o),
(135,467,cs),
(159,467,o),
(185,485,o),
(191,515,cs),
(199,554,o),
(160,573,o),
(159,610,cs),
(159,643,o),
(200,709,o),
(278,709,cs),
(357,709,o),
(390,663,o),
(371,573,cs),
(337,417,o),
(188,384,o),
(149,197,cs),
(143,172,l),
(181,172,l)
);
},
{
closed = 1;
nodes = (
(155,-10,o),
(184,14,o),
(190,45,cs),
(197,76,o),
(178,100,o),
(147,100,cs),
(116,100,o),
(87,76,o),
(80,45,cs),
(74,14,o),
(93,-10,o),
(124,-10,cs)
);
}
);
userData = {
assembly = "PUSHB[ ]	/* 6 values pushed */
21 1 2 1 1 76
MPPEM[ ]	/* MeasurePixelPerEm */
PUSHB[ ]	/* 1 value pushed */
50
LT[ ]	/* LessThan */
IF[ ]	/* If */
NPUSHB[ ]	/* 38 values pushed */
0 2 1 0 1 2 0 128 6 1 0 5 1 0 5 126 0 1 1 3 97 0 3 3 16 77 0 5 5 4 97 7 1 4 4 21 4 78
ELSE[ ]	/* Else */
NPUSHB[ ]	/* 36 values pushed */
0 2 1 0 1 2 0 128 6 1 0 5 1 0 5 126 0 3 0 1 2 3 1 105 0 5 5 4 97 7 1 4 4 21 4 78
EIF[ ]	/* EndIf */
NPUSHB[ ]	/* 23 values pushed */
41 40 1 0 47 45 40 51 41 51 28 26 19 17 14 12 0 39 1 39 8 7 22
CALL[ ]	/* CallFunction */";
};
width = 398;
}
);
note = question;
unicode = 63;
},
{
glyphname = bullet;
lastChange = "2025-07-18 22:11:44 +0000";
layers = (
{
layerId = m01;
shapes = (
{
closed = 1;
nodes = (
(244,335,o),
(252,371,qs),
(259,405,o),
(220,449,o),
(190,449,qs),
(156,449,o),
(101,405,o),
(94,371,qs),
(86,335,o),
(123,292,o),
(157,292,qs),
(187,292,o)
);
}
);
userData = {
assembly = "NPUSHB[ ]	/* 28 values pushed */
0 1 0 0 1 89 0 1 1 0 97 2 1 0 1 0 81 1 0 7 5 0 11 1 11 3 7 22
CALL[ ]	/* CallFunction */";
};
width = 301;
}
);
note = bullet;
unicode = 8226;
},
{
glyphname = asterisk;
lastChange = "2025-10-05 15:15:49 +0000";
layers = (
{
layerId = m01;
shapes = (
{
closed = 1;
nodes = (
(297,440,o),
(300,455,qs),
(304,471,o),
(297,498,o),
(290,528,o),
(292,553,q),
(307,559,l),
(331,534,o),
(343,496,o),
(360,485,qs),
(371,478,o),
(402,483,o),
(416,499,qs),
(428,516,o),
(425,546,o),
(413,553,qs),
(401,561,o),
(370,563,o),
(339,566,o),
(318,576,q),
(321,590,l),
(346,601,o),
(379,603,o),
(410,605,o),
(426,613,qs),
(441,621,o),
(457,651,o),
(451,667,qs),
(445,683,o),
(416,689,o),
(401,681,qs),
(386,673,o),
(362,648,o),
(339,622,o),
(315,606,q),
(305,613,l),
(314,639,o),
(333,668,o),
(352,696,o),
(355,711,qs),
(358,726,o),
(343,750,o),
(324,750,qs),
(305,750,o),
(280,726,o),
(277,711,qs),
(274,696,o),
(281,668,o),
(288,639,o),
(285,613,q),
(273,606,l),
(256,622,o),
(242,648,o),
(230,673,o),
(217,681,qs),
(206,689,o),
(175,683,o),
(161,667,qs),
(149,651,o),
(153,621,o),
(164,613,qs),
(176,605,o),
(207,603,o),
(238,601,o),
(259,590,q),
(256,576,l),
(231,566,o),
(198,563,o),
(167,561,o),
(151,553,qs),
(137,546,o),
(120,516,o),
(126,499,qs),
(132,483,o),
(161,478,o),
(176,485,qs),
(198,496,o),
(225,534,o),
(261,559,q),
(272,553,l),
(264,528,o),
(245,498,o),
(226,471,o),
(222,455,qs),
(219,440,o),
(234,416,o),
(253,416,qs),
(272,416,o)
);
}
);
userData = {
assembly = "NPUSHB[ ]	/* 10 values pushed */
57 1 2 3 7 1 0 1 2 76
MPPEM[ ]	/* MeasurePixelPerEm */
PUSHB[ ]	/* 1 value pushed */
50
LT[ ]	/* LessThan */
IF[ ]	/* If */
NPUSHB[ ]	/* 28 values pushed */
4 1 2 3 1 3 2 1 128 5 1 1 0 3 1 0 126 6 1 0 0 132 0 3 3 16 3 78
ELSE[ ]	/* Else */
NPUSHB[ ]	/* 22 values pushed */
0 3 2 3 133 4 1 2 1 2 133 5 1 1 0 1 133 6 1 0 0 118
EIF[ ]	/* EndIf */
NPUSHB[ ]	/* 19 values pushed */
1 0 80 79 72 71 51 49 29 28 21 20 0 99 1 99 7 7 22
CALL[ ]	/* CallFunction */";
};
width = 444;
}
);
note = asterisk;
unicode = 42;
},
{
glyphname = numbersign;
lastChange = "2025-10-05 15:16:21 +0000";
layers = (
{
layerId = m01;
shapes = (
{
closed = 1;
nodes = (
(43,0,l),
(85,0,l),
(404,720,l),
(362,720,l)
);
},
{
closed = 1;
nodes = (
(269,0,l),
(311,0,l),
(630,720,l),
(588,720,l)
);
},
{
closed = 1;
nodes = (
(110,449,l),
(653,449,l),
(662,491,l),
(119,491,l)
);
},
{
closed = 1;
nodes = (
(9,218,l),
(552,218,l),
(561,260,l),
(18,260,l)
);
}
);
userData = {
assembly = "MPPEM[ ]	/* MeasurePixelPerEm */
PUSHB[ ]	/* 1 value pushed */
24
LT[ ]	/* LessThan */
IF[ ]	/* If */
NPUSHB[ ]	/* 41 values pushed */
17 14 9 3 1 12 10 2 0 11 1 0 103 6 1 4 4 14 77 15 8 2 2 2 3 95 7 5 2 3 3 17 77 16 13 2 11 11 15 11 78
ELSE[ ]	/* Else */
NPUSHB[ ]	/* 39 values pushed */
7 5 2 3 15 8 2 2 1 3 2 104 17 14 9 3 1 12 10 2 0 11 1 0 103 6 1 4 4 14 77 16 13 2 11 11 15 11 78
EIF[ ]	/* EndIf */
NPUSHB[ ]	/* 34 values pushed */
54 52 0 0 60 57 52 63 54 63 0 51 0 51 49 46 44 43 41 39 38 36 33 34 18 50 18 33 35 33 34 18 7 31
CALL[ ]	/* CallFunction */";
};
width = 635;
}
);
note = numbersign;
unicode = 35;
},
{
glyphname = slash;
lastChange = "2025-10-05 15:17:17 +0000";
layers = (
{
layerId = m01;
shapes = (
{
closed = 1;
nodes = (
(-91,-143,l),
(-46,-143,l),
(375,804,l),
(330,804,l)
);
}
);
userData = {
assembly = "NPUSHB[ ]	/* 21 values pushed */
0 1 0 1 133 2 1 0 0 118 1 0 7 4 0 11 1 10 3 7 22
CALL[ ]	/* CallFunction */";
};
width = 269;
}
);
note = slash;
unicode = 47;
},
{
glyphname = backslash;
lastChange = "2025-10-05 17:06:19 +0000";
layers = (
{
layerId = m01;
shapes = (
{
closed = 1;
nodes = (
(104,804,l),
(251,-143,l),
(296,-143,l),
(149,804,l)
);
}
);
userData = {
assembly = "NPUSHB[ ]	/* 21 values pushed */
0 1 0 1 133 2 1 0 0 118 1 0 7 4 0 11 1 10 3 7 22
CALL[ ]	/* CallFunction */";
};
width = 379;
}
);
note = backslash;
unicode = 92;
},
{
glyphname = hyphen;
kernLeft = hyphen;
kernRight = hyphen;
lastChange = "2025-10-05 17:07:10 +0000";
layers = (
{
layerId = m01;
shapes = (
{
closed = 1;
nodes = (
(69,254,l),
(335,254,l),
(344,298,l),
(78,298,l)
);
}
);
userData = {
assembly = "NPUSHB[ ]	/* 28 values pushed */
0 1 0 0 1 87 0 1 1 0 95 2 1 0 1 0 79 1 0 7 4 0 11 1 10 3 7 22
CALL[ ]	/* CallFunction */";
};
width = 410;
}
);
note = hyphen;
unicode = 45;
},
{
glyphname = endash;
kernLeft = hyphen;
kernRight = hyphen;
lastChange = "2025-10-05 17:07:10 +0000";
layers = (
{
layerId = m01;
shapes = (
{
closed = 1;
nodes = (
(69,254,l),
(415,254,l),
(424,298,l),
(78,298,l)
);
}
);
userData = {
assembly = "NPUSHB[ ]	/* 28 values pushed */
0 1 0 0 1 87 0 1 1 0 95 2 1 0 1 0 79 1 0 7 4 0 11 1 10 3 7 22
CALL[ ]	/* CallFunction */";
};
width = 490;
}
);
note = endash;
unicode = 8211;
},
{
glyphname = emdash;
kernLeft = hyphen;
kernRight = hyphen;
lastChange = "2025-10-05 17:07:10 +0000";
layers = (
{
layerId = m01;
shapes = (
{
closed = 1;
nodes = (
(69,254,l),
(625,254,l),
(634,298,l),
(78,298,l)
);
}
);
userData = {
assembly = "NPUSHB[ ]	/* 28 values pushed */
0 1 0 0 1 87 0 1 1 0 95 2 1 0 1 0 79 1 0 7 4 0 11 1 10 3 7 22
CALL[ ]	/* CallFunction */";
};
width = 700;
}
);
note = emdash;
unicode = 8212;
},
{
glyphname = underscore;
lastChange = "2025-10-05 17:07:10 +0000";
layers = (
{
layerId = m01;
shapes = (
{
closed = 1;
nodes = (
(-61,-89,l),
(285,-89,l),
(294,-45,l),
(-52,-45,l)
);
}
);
userData = {
assembly = "PUSHB[ ]	/* 2 values pushed */
6 100
WCVTP[ ]	/* WriteCVTInPixels */
NPUSHB[ ]	/* 28 values pushed */
0 1 0 0 1 87 0 1 1 0 95 2 1 0 1 0 79 1 0 7 4 0 11 1 10 3 7 22
CALL[ ]	/* CallFunction */
PUSHB[ ]	/* 2 values pushed */
6 0
WCVTP[ ]	/* WriteCVTInPixels */";
};
width = 376;
}
);
note = underscore;
unicode = 95;
},
{
glyphname = parenleft;
lastChange = "2025-10-05 17:07:46 +0000";
layers = (
{
layerId = m01;
shapes = (
{
closed = 1;
nodes = (
(165,-122,l),
(123,-56,o),
(79,109,o),
(124,319,cs),
(168,529,o),
(282,694,o),
(352,760,c),
(310,760,l),
(235,694,o),
(118,529,o),
(74,319,cs),
(29,109,o),
(76,-56,o),
(123,-122,c)
);
}
);
userData = {
assembly = "MPPEM[ ]	/* MeasurePixelPerEm */
PUSHB[ ]	/* 1 value pushed */
42
LT[ ]	/* LessThan */
IF[ ]	/* If */
NPUSHB[ ]	/* 12 values pushed */
2 1 1 0 1 134 0 0 0 16 0 78
ELSE[ ]	/* Else */
NPUSHB[ ]	/* 10 values pushed */
0 0 1 0 133 2 1 1 1 118
EIF[ ]	/* EndIf */
NPUSHB[ ]	/* 10 values pushed */
0 0 0 27 0 27 30 3 7 23
CALL[ ]	/* CallFunction */";
};
width = 269;
}
);
note = parenleft;
unicode = 40;
},
{
glyphname = braceleft;
lastChange = "2025-10-05 17:08:11 +0000";
layers = (
{
layerId = m01;
shapes = (
{
closed = 1;
nodes = (
(193,-141,l),
(201,-103,l),
(157,-103,ls),
(95,-103,o),
(86,-72,o),
(106,-25,cs),
(133,38,o),
(185,150,o),
(201,228,cs),
(211,276,o),
(184,319,o),
(125,319,c),
(126,326,l),
(185,326,o),
(231,369,o),
(241,417,cs),
(258,495,o),
(254,607,o),
(254,670,cs),
(254,717,o),
(276,748,o),
(338,748,cs),
(382,748,l),
(390,786,l),
(340,786,ls),
(259,786,o),
(214,729,o),
(211,668,cs),
(207,595,o),
(214,489,o),
(198,417,cs),
(184,350,o),
(132,346,o),
(90,346,cs),
(52,346,l),
(42,299,l),
(80,299,ls),
(122,299,o),
(172,295,o),
(158,228,cs),
(143,156,o),
(91,50,o),
(64,-23,cs),
(41,-84,o),
(62,-141,o),
(143,-141,cs)
);
}
);
userData = {
assembly = "NPUSHB[ ]	/* 52 values pushed */
26 1 1 2 1 76 0 2 0 1 5 2 1 105 0 5 6 1 0 5 0 101 0 4 4 3 97 0 3 3 16 4 78 1 0 33 31 21 19 17 15 11 9 7 5 0 35 1 35 7 7 22
CALL[ ]	/* CallFunction */";
};
width = 316;
}
);
note = braceleft;
unicode = 123;
},
{
glyphname = bracketleft;
lastChange = "2025-10-05 17:08:38 +0000";
layers = (
{
layerId = m01;
shapes = (
{
closed = 1;
nodes = (
(4,-128,l),
(181,-128,l),
(189,-86,l),
(58,-86,l),
(231,724,l),
(362,724,l),
(371,766,l),
(192,766,l),
(2,-127,l),
(4,-127,l)
);
}
);
userData = {
assembly = "NPUSHB[ ]	/* 34 values pushed */
0 3 4 1 0 3 0 99 0 2 2 1 95 0 1 1 16 2 78 1 0 18 15 12 9 7 4 0 21 1 20 5 7 22
CALL[ ]	/* CallFunction */";
};
width = 325;
}
);
note = bracketleft;
unicode = 91;
},
{
glyphname = guilsinglleft;
lastChange = "2025-10-05 17:16:49 +0000";
layers = (
{
layerId = m01;
shapes = (
{
closed = 1;
nodes = (
(168,75,l),
(201,101,l),
(116,275,l),
(275,449,l),
(253,475,l),
(52,281,l),
(50,269,l)
);
}
);
userData = {
assembly = "NPUSHB[ ]	/* 20 values pushed */
14 1 1 0 1 76 0 0 1 0 133 0 1 1 118 40 38 2 7 24
CALL[ ]	/* CallFunction */";
};
width = 292;
}
);
note = guilsinglleft;
unicode = 8249;
},
{
glyphname = quotesingle;
kernLeft = quotedbl;
kernRight = quotedbl;
lastChange = "2025-10-05 17:17:43 +0000";
layers = (
{
layerId = m01;
shapes = (
{
closed = 1;
nodes = (
(135,450,l),
(173,450,l),
(251,740,l),
(181,740,l)
);
}
);
userData = {
assembly = "NPUSHB[ ]	/* 23 values pushed */
2 1 0 0 1 97 0 1 1 20 0 78 1 0 10 8 0 17 1 17 3 7 22
CALL[ ]	/* CallFunction */";
};
width = 233;
}
);
note = quotesingle;
unicode = 39;
},
{
glyphname = at;
kernLeft = c;
kernRight = b;
lastChange = "2025-10-05 17:18:00 +0000";
layers = (
{
layerId = m01;
shapes = (
{
closed = 1;
nodes = (
(492,246,l),
(471,241,l),
(465,214,o),
(453,199,o),
(435,199,cs),
(416,199,o),
(411,214,o),
(417,241,cs),
(484,555,l),
(426,555,l),
(412,490,l),
(409,490,l),
(405,522,o),
(380,565,o),
(325,565,cs),
(235,565,o),
(167,462,o),
(145,359,cs),
(123,257,o),
(147,155,o),
(237,155,cs),
(292,155,o),
(336,198,o),
(354,230,c),
(358,230,l),
(352,181,o),
(376,155,o),
(417,155,cs),
(461,155,o),
(499,185,o),
(511,241,c)
);
},
{
closed = 1;
nodes = (
(218,201,o),
(188,225,o),
(205,307,cs),
(227,413,ls),
(245,495,o),
(286,519,o),
(326,519,cs),
(385,519,o),
(399,455,o),
(394,406,c),
(375,317,l),
(360,268,o),
(317,201,o),
(258,201,cs)
);
},
{
closed = 1;
nodes = (
(370,62,o),
(311,25,o),
(231,25,c),
(109,25,o),
(52,118,o),
(86,280,c),
(125,461,l),
(159,624,o),
(249,716,o),
(376,716,c),
(503,716,o),
(553,629,o),
(522,479,c),
(471,241,l),
(511,241,l),
(562,479,l),
(598,649,o),
(537,756,o),
(384,756,c),
(232,756,o),
(123,642,o),
(85,461,c),
(46,280,l),
(8,98,o),
(76,-15,o),
(223,-15,c),
(318,-15,o),
(390,32,o),
(436,76,c),
(411,102,l)
);
}
);
userData = {
assembly = "NPUSHB[ ]	/* 100 values pushed */
0 6 4 11 4 6 11 128 0 5 11 10 11 5 10 128 0 1 0 8 4 1 8 105 0 4 0 11 5 4 11 105 13 1 10 7 2 10 89 0 7 3 1 2 9 7 2 105 0 9 0 0 9 89 0 9 9 0 97 12 1 0 9 0 81 72 71 1 0 80 78 71 86 72 86 64 62 57 55 50 48 45 43 41 39 37 35 30 28 19 17 10 8 0 70 1 70 14 7 22
CALL[ ]	/* CallFunction */";
};
width = 562;
}
);
note = at;
unicode = 64;
},
{
glyphname = ampersand;
lastChange = "2025-10-05 17:18:21 +0000";
layers = (
{
layerId = m01;
shapes = (
{
closed = 1;
nodes = (
(229,696,o),
(273,712,o),
(313,712,cs),
(358,712,o),
(387,688,o),
(374,629,cs),
(360,561,o),
(280,517,o),
(268,510,cs),
(242,494,l),
(220,538,o),
(203,576,o),
(215,630,cs)
);
},
{
closed = 1;
nodes = (
(236,-10,o),
(303,23,o),
(354,85,c),
(393,0,l),
(496,0,l),
(502,28,l),
(469,33,o),
(451,43,o),
(435,79,cs),
(401,153,l),
(413,181,o),
(427,224,o),
(434,257,cs),
(466,404,l),
(532,404,l),
(539,442,l),
(375,442,l),
(368,404,l),
(426,404,l),
(395,258,ls),
(391,239,o),
(384,217,o),
(378,200,c),
(258,461,l),
(287,478,ls),
(332,504,o),
(411,552,o),
(428,631,cs),
(442,699,o),
(404,750,o),
(322,750,cs),
(239,750,o),
(172,695,o),
(155,613,cs),
(141,548,o),
(158,506,o),
(180,459,c),
(118,420,o),
(49,351,o),
(22,224,cs),
(-7,85,o),
(45,-10,o),
(163,-10,cs)
);
},
{
closed = 1;
nodes = (
(104,298,ls),
(119,369,o),
(159,402,o),
(196,426,c),
(337,121,l),
(297,68,o),
(246,32,o),
(179,32,cs),
(100,32,o),
(57,77,o),
(74,157,cs)
);
}
);
userData = {
assembly = "NPUSHB[ ]	/* 59 values pushed */
0 2 4 5 4 2 5 128 0 4 4 1 97 0 1 1 20 77 0 3 3 15 77 7 1 5 5 0 97 6 1 0 0 21 0 78 88 87 1 0 87 100 88 100 80 78 65 62 42 39 17 15 0 71 1 71 8 7 22
CALL[ ]	/* CallFunction */";
};
width = 538;
}
);
note = ampersand;
unicode = 38;
},
{
glyphname = paragraph;
lastChange = "2025-10-05 17:18:45 +0000";
layers = (
{
layerId = m01;
shapes = (
{
closed = 1;
nodes = (
(164,-100,l),
(208,-100,l),
(378,696,l),
(418,696,l),
(248,-100,l),
(292,-100,l),
(462,696,l),
(501,696,l),
(510,740,l),
(369,740,ls),
(205,740,o),
(99,628,o),
(75,515,cs),
(51,403,o),
(109,290,o),
(247,290,c)
);
}
);
userData = {
assembly = "NPUSHB[ ]	/* 42 values pushed */
0 1 4 0 4 1 0 128 3 5 2 0 0 132 0 4 4 2 95 0 2 2 14 4 78 1 0 34 31 28 25 16 13 7 4 0 38 1 37 6 7 22
CALL[ ]	/* CallFunction */";
};
width = 430;
}
);
note = paragraph;
unicode = 182;
},
{
glyphname = section;
lastChange = "2025-10-05 17:19:02 +0000";
layers = (
{
layerId = m01;
shapes = (
{
closed = 1;
nodes = (
(306,414,l),
(289,433,o),
(263,448,o),
(220,448,cs),
(140,448,o),
(85,388,o),
(68,308,cs),
(30,129,o),
(255,124,o),
(221,-34,cs),
(210,-88,o),
(182,-115,o),
(139,-115,cs),
(18,-115,o),
(62,57,o),
(69,93,cs),
(72,104,l),
(4,104,l),
(-50,-150,l),
(-15,-150,l),
(11,-28,l),
(20,-28,l),
(14,-87,o),
(34,-161,o),
(130,-161,cs),
(222,-161,o),
(273,-96,o),
(292,-8,cs),
(330,173,o),
(108,191,o),
(138,331,cs),
(146,369,o),
(171,411,o),
(215,411,cs),
(245,411,o),
(263,400,o),
(274,383,c)
);
},
{
closed = 1;
nodes = (
(133,156,l),
(149,147,o),
(169,142,o),
(195,142,cs),
(287,142,o),
(338,207,o),
(357,296,cs),
(395,476,o),
(173,494,o),
(203,635,cs),
(211,673,o),
(233,704,o),
(277,704,cs),
(369,704,o),
(361,597,o),
(347,532,cs),
(346,529,l),
(402,529,l),
(447,740,l),
(412,740,l),
(396,663,l),
(387,663,l),
(386,704,o),
(362,751,o),
(284,751,cs),
(204,751,o),
(150,692,o),
(133,611,cs),
(95,432,o),
(319,427,o),
(286,269,cs),
(274,215,o),
(245,179,o),
(202,179,cs),
(183,179,o),
(168,184,o),
(156,191,c)
);
}
);
userData = {
assembly = "NPUSHB[ ]	/* 53 values pushed */
0 4 5 1 5 4 1 128 0 1 2 5 1 2 126 0 2 6 1 0 2 0 101 0 5 5 3 97 0 3 3 20 5 78 1 0 50 48 43 42 36 34 15 13 8 7 0 69 1 69 7 7 22
CALL[ ]	/* CallFunction */";
};
width = 396;
}
);
note = section;
unicode = 167;
},
{
glyphname = copyright;
lastChange = "2025-10-05 17:19:26 +0000";
layers = (
{
layerId = m01;
shapes = (
{
closed = 1;
nodes = (
(336,458,o),
(337,431,o),
(364,431,cs),
(395,431,o),
(421,498,o),
(407,544,cs),
(396,583,o),
(362,595,o),
(327,595,cs),
(226,595,o),
(162,480,o),
(137,362,cs),
(110,236,o),
(129,138,o),
(221,138,cs),
(311,138,o),
(362,236,o),
(379,301,c),
(345,303,l),
(331,251,o),
(295,178,o),
(241,178,cs),
(184,178,o),
(170,231,o),
(190,326,cs),
(209,416,l),
(229,503,o),
(268,550,o),
(313,563,cs),
(356,575,o),
(380,547,o),
(361,508,cs)
);
},
{
attr = {
strokeWidth = 40;
};
closed = 1;
nodes = (
(330,12,o),
(455,173,o),
(497,370,cs),
(539,568,o),
(482,728,o),
(347,728,cs),
(212,728,o),
(87,568,o),
(45,370,cs),
(3,173,o),
(60,12,o),
(195,12,cs)
);
}
);
userData = {
assembly = "PUSHB[ ]	/* 2 values pushed */
6 100
WCVTP[ ]	/* WriteCVTInPixels */
NPUSHB[ ]	/* 100 values pushed */
79 1 8 9 1 76 0 6 7 9 7 6 9 128 0 9 8 7 9 8 126 0 1 0 3 5 1 3 105 0 5 0 7 6 5 7 105 0 8 12 1 4 2 8 4 105 11 1 2 0 0 2 89 11 1 2 2 0 97 10 1 0 2 0 81 41 40 21 20 1 0 77 75 71 69 63 61 57 55 49 47 40 83 41 83 31 29 20 39 21 39 11 9 0 19 1 19 13 7 22
CALL[ ]	/* CallFunction */
PUSHB[ ]	/* 2 values pushed */
6 0
WCVTP[ ]	/* WriteCVTInPixels */";
};
width = 500;
}
);
note = copyright;
unicode = 169;
},
{
glyphname = registered;
lastChange = "2025-10-05 17:19:42 +0000";
layers = (
{
layerId = m01;
shapes = (
{
closed = 1;
nodes = (
(369,384,o),
(382,407,o),
(386,424,cs),
(396,474,l),
(374,474,l),
(365,431,ls),
(363,420,o),
(360,413,o),
(351,413,cs),
(339,413,o),
(342,426,o),
(344,434,cs),
(353,477,ls),
(359,504,o),
(351,519,o),
(324,519,cs),
(322,519,l),
(323,522,l),
(326,522,ls),
(362,522,o),
(392,552,o),
(400,588,cs),
(406,620,o),
(393,659,o),
(335,659,cs),
(237,659,l),
(233,639,l),
(265,635,l),
(217,412,l),
(183,408,l),
(179,388,l),
(279,388,l),
(283,408,l),
(250,412,l),
(271,508,l),
(288,508,ls),
(319,508,o),
(326,502,o),
(320,473,cs),
(310,424,ls),
(305,401,o),
(313,384,o),
(338,384,cs)
);
},
{
closed = 1;
nodes = (
(276,535,l),
(298,636,l),
(321,636,ls),
(357,636,o),
(374,627,o),
(367,592,cs),
(364,579,ls),
(356,543,o),
(335,535,o),
(299,535,cs)
);
},
{
attr = {
strokeWidth = 30;
};
closed = 1;
nodes = (
(375,305,o),
(471,397,o),
(497,517,cs),
(522,636,o),
(464,727,o),
(348,727,cs),
(230,727,o),
(134,636,o),
(109,517,cs),
(83,397,o),
(141,305,o),
(259,305,cs)
);
}
);
userData = {
assembly = "PUSHB[ ]	/* 2 values pushed */
6 100
WCVTP[ ]	/* WriteCVTInPixels */
NPUSHB[ ]	/* 102 values pushed */
0 6 8 4 8 6 4 128 0 1 0 3 7 1 3 105 0 7 0 10 9 7 10 105 14 1 9 0 5 8 9 5 105 0 8 13 1 4 2 8 4 105 12 1 2 0 0 2 89 12 1 2 2 0 97 11 1 0 2 0 81 102 101 41 40 21 20 1 0 108 106 101 111 102 111 94 92 79 76 61 58 48 46 40 100 41 100 31 29 20 39 21 39 11 9 0 19 1 19 15 7 22
CALL[ ]	/* CallFunction */
PUSHB[ ]	/* 2 values pushed */
6 0
WCVTP[ ]	/* WriteCVTInPixels */";
};
width = 500;
}
);
note = registered;
unicode = 174;
},
{
glyphname = trademark;
lastChange = "2025-10-05 17:20:03 +0000";
layers = (
{
layerId = m01;
shapes = (
{
closed = 1;
nodes = (
(82,401,l),
(243,401,l),
(247,420,l),
(182,420,l),
(246,720,l),
(273,720,ls),
(296,720,o),
(308,713,o),
(306,692,cs),
(299,642,l),
(314,642,l),
(335,740,l),
(134,740,l),
(113,642,l),
(128,642,l),
(143,692,ls),
(149,713,o),
(165,720,o),
(188,720,cs),
(214,720,l),
(150,420,l),
(86,420,l)
);
},
{
closed = 1;
nodes = (
(284,401,l),
(361,401,l),
(365,420,l),
(340,420,l),
(408,740,l),
(356,740,l),
(352,720,l),
(385,720,l),
(321,420,l),
(288,420,l)
);
},
{
closed = 1;
nodes = (
(491,420,l),
(466,420,l),
(462,401,l),
(552,401,l),
(556,420,l),
(522,420,l),
(586,720,l),
(620,720,l),
(624,740,l),
(559,740,l)
);
},
{
closed = 1;
nodes = (
(399,401,l),
(422,429,l),
(408,740,l),
(386,694,l)
);
},
{
closed = 1;
nodes = (
(399,401,l),
(418,401,l),
(577,740,l),
(559,740,l)
);
}
);
userData = {
assembly = "NPUSHB[ ]	/* 97 values pushed */
82 67 2 10 3 117 106 2 1 0 99 94 73 60 54 49 2 7 7 1 3 76 14 12 11 13 4 7 1 7 134 4 1 2 3 1 2 89 0 10 0 3 10 89 9 8 2 3 6 1 0 1 3 0 105 4 1 2 2 1 97 5 1 1 2 1 81 52 52 0 0 52 128 52 127 97 96 86 85 80 78 71 69 0 51 0 51 36 35 33 49 35 36 42 15 6 29
CALL[ ]	/* CallFunction */";
};
width = 571;
}
);
note = trademark;
unicode = 8482;
},
{
glyphname = degree;
lastChange = "2025-10-05 17:20:46 +0000";
layers = (
{
layerId = m01;
shapes = (
{
attr = {
strokeWidth = 40;
};
closed = 1;
nodes = (
(320,476,o),
(385,530,o),
(400,598,cs),
(414,666,o),
(372,720,o),
(305,720,cs),
(238,720,o),
(172,666,o),
(158,598,cs),
(143,530,o),
(186,476,o),
(253,476,cs)
);
}
);
userData = {
assembly = "PUSHB[ ]	/* 2 values pushed */
6 100
WCVTP[ ]	/* WriteCVTInPixels */
NPUSHB[ ]	/* 46 values pushed */
0 1 0 3 2 1 3 105 5 1 2 0 0 2 89 5 1 2 2 0 97 4 1 0 2 0 81 17 16 1 0 23 21 16 27 17 27 9 7 0 15 1 15 6 7 22
CALL[ ]	/* CallFunction */
PUSHB[ ]	/* 2 values pushed */
6 0
WCVTP[ ]	/* WriteCVTInPixels */";
};
width = 426;
}
);
note = degree;
unicode = 176;
},
{
glyphname = bar;
lastChange = "2025-10-05 17:21:29 +0000";
layers = (
{
layerId = m01;
shapes = (
{
closed = 1;
nodes = (
(17,-143,l),
(61,-143,l),
(263,804,l),
(219,804,l)
);
}
);
userData = {
assembly = "NPUSHB[ ]	/* 29 values pushed */
9 8 3 2 4 1 0 1 76 0 0 1 0 133 2 1 1 1 118 0 0 0 11 0 11 21 3 7 23
CALL[ ]	/* CallFunction */";
};
width = 252;
}
);
note = bar;
unicode = 124;
},
{
glyphname = cent;
kernLeft = c;
lastChange = "2025-10-05 17:22:04 +0000";
layers = (
{
anchors = (
{
name = bottom;
pos = (182,0);
},
{
name = top;
pos = (208,510);
}
);
layerId = m01;
shapes = (
{
ref = c;
},
{
closed = 1;
nodes = (
(80,-109,l),
(122,-109,l),
(281,642,l),
(239,642,l)
);
}
);
userData = {
assembly = "NPUSHB[ ]	/* 79 values pushed */
11 1 3 2 50 31 17 10 4 4 3 49 42 32 3 1 5 43 1 0 1 4 76 0 2 3 2 133 0 4 3 5 3 4 5 128 0 5 1 3 5 1 126 6 1 0 1 0 134 0 3 3 23 77 0 1 1 21 1 78 1 0 38 36 27 25 20 19 15 13 4 3 0 45 1 45 7 7 22
CALL[ ]	/* CallFunction */";
};
width = 349;
}
);
note = cent;
unicode = 162;
},
{
glyphname = dollar;
kernLeft = S;
kernRight = S;
lastChange = "2025-10-05 17:22:25 +0000";
layers = (
{
anchors = (
{
name = bottom;
pos = (152,0);
},
{
name = top;
pos = (325,720);
}
);
layerId = m01;
shapes = (
{
closed = 1;
nodes = (
(259,0,o),
(348,56,o),
(370,160,cs),
(412,359,o),
(147,461,o),
(181,622,cs),
(193,677,o),
(232,707,o),
(287,707,cs),
(382,707,o),
(429,673,o),
(403,552,c),
(435,552,l),
(473,730,l),
(414,740,o),
(355,750,o),
(294,750,cs),
(210,750,o),
(129,692,o),
(109,599,cs),
(69,410,o),
(337,319,o),
(298,136,cs),
(283,65,o),
(232,34,o),
(168,34,cs),
(101,34,o),
(11,59,o),
(49,235,c),
(17,235,l),
(-29,20,l),
(35,10,o),
(98,0,o),
(164,0,cs)
);
},
{
closed = 1;
nodes = (
(110,-111,l),
(152,-111,l),
(353,835,l),
(311,835,l)
);
}
);
userData = {
assembly = "NPUSHB[ ]	/* 106 values pushed */
25 1 4 3 24 1 7 4 47 1 5 7 76 68 48 16 4 1 5 77 1 2 1 63 56 2 0 2 57 1 6 0 7 76 0 3 4 3 133 0 7 4 5 4 7 5 128 0 5 1 4 5 1 126 0 1 2 4 1 2 126 0 6 0 6 134 0 4 4 20 77 0 2 2 0 97 8 1 0 0 21 0 78 1 0 71 69 61 59 42 40 33 31 29 27 15 14 11 9 0 64 1 64 9 7 22
CALL[ ]	/* CallFunction */";
};
width = 422;
}
);
note = dollar;
unicode = 36;
},
{
glyphname = Euro;
kernRight = C;
lastChange = "2025-10-05 17:22:41 +0000";
layers = (
{
anchors = (
{
name = bottom;
pos = (249,0);
},
{
name = top;
pos = (406,720);
}
);
layerId = m01;
shapes = (
{
closed = 1;
nodes = (
(48,399,l),
(385,399,l),
(393,441,l),
(56,441,l)
);
},
{
closed = 1;
nodes = (
(28,307,l),
(365,307,l),
(374,349,l),
(37,349,l)
);
},
{
closed = 1;
nodes = (
(279,-10,o),
(307,-6,o),
(368,11,c),
(407,192,l),
(375,192,l),
(348,67,o),
(316,37,o),
(232,37,cs),
(153,37,o),
(124,100,o),
(148,215,cs),
(214,525,ls),
(239,640,o),
(295,703,o),
(373,703,cs),
(457,703,o),
(477,673,o),
(450,548,c),
(482,548,l),
(521,730,l),
(468,743,o),
(450,750,o),
(383,750,cs),
(247,750,o),
(138,560,o),
(97,370,cs),
(57,180,o),
(86,-10,o),
(222,-10,cs)
);
}
);
userData = {
assembly = "NPUSHB[ ]	/* 83 values pushed */
0 5 6 3 6 5 3 128 7 1 3 8 1 2 1 3 2 105 9 1 1 10 13 2 0 11 1 0 103 0 6 6 4 97 0 4 4 20 77 0 11 11 12 97 0 12 12 21 12 78 1 0 75 73 60 58 56 54 51 49 45 43 40 38 36 34 30 28 22 20 17 15 12 10 6 4 0 78 1 78 14 7 22
CALL[ ]	/* CallFunction */";
};
width = 495;
}
);
note = Euro;
unicode = 8364;
},
{
glyphname = sterling;
lastChange = "2025-10-05 17:23:01 +0000";
layers = (
{
layerId = m01;
shapes = (
{
closed = 1;
nodes = (
(70,35,o),
(42,47,o),
(49,82,cs),
(56,115,o),
(86,136,o),
(127,136,cs),
(159,136,o),
(181,120,o),
(199,91,c),
(175,65,o),
(133,39,o),
(101,37,cs)
);
},
{
closed = 1;
nodes = (
(128,-9,o),
(176,22,o),
(217,62,c),
(241,27,o),
(269,-9,o),
(328,-9,cs),
(412,-9,o),
(462,63,o),
(472,136,cs),
(477,182,l),
(435,182,l),
(430,136,ls),
(418,37,o),
(329,6,o),
(259,112,c),
(372,271,o),
(308,417,o),
(262,522,cs),
(225,606,o),
(289,698,o),
(383,703,cs),
(457,707,o),
(494,662,o),
(470,548,c),
(502,548,l),
(539,720,l),
(497,737,o),
(470,750,o),
(403,750,cs),
(232,750,o),
(141,572,o),
(234,367,cs),
(265,297,o),
(272,204,o),
(235,138,c),
(203,164,o),
(175,180,o),
(132,180,cs),
(61,180,o),
(10,130,o),
(-1,75,cs),
(-11,30,o),
(15,-9,o),
(80,-9,cs)
);
},
{
closed = 1;
nodes = (
(97,306,l),
(444,306,l),
(453,348,l),
(106,348,l)
);
}
);
width = 520;
}
);
note = sterling;
unicode = 163;
},
{
glyphname = yen;
kernLeft = Y;
kernRight = Y;
lastChange = "2025-10-05 17:23:36 +0000";
layers = (
{
anchors = (
{
name = bottom;
pos = (257,0);
},
{
name = top;
pos = (277,720);
}
);
layerId = m01;
shapes = (
{
ref = Y;
},
{
closed = 1;
nodes = (
(82,387,l),
(235,387,l),
(244,431,l),
(91,431,l)
);
},
{
closed = 1;
nodes = (
(60,286,l),
(447,286,l),
(457,330,l),
(70,330,l)
);
},
{
closed = 1;
nodes = (
(321,387,l),
(469,387,l),
(478,431,l),
(330,431,l)
);
}
);
userData = {
assembly = "NPUSHB[ ]	/* 82 values pushed */
0 8 3 2 3 8 2 128 10 1 4 11 1 3 8 4 3 103 12 1 2 13 1 1 0 2 1 103 7 1 6 6 5 95 9 1 5 5 14 77 14 1 0 0 15 0 78 1 0 84 82 79 77 74 72 69 67 59 56 47 46 42 41 40 39 37 34 26 24 21 19 16 14 11 9 0 93 1 92 15 7 22
CALL[ ]	/* CallFunction */";
};
width = 513;
}
);
note = yen;
unicode = 165;
},
{
glyphname = plus;
lastChange = "2025-10-05 17:24:41 +0000";
layers = (
{
layerId = m01;
shapes = (
{
closed = 1;
nodes = (
(219,153,l),
(263,153,l),
(356,590,l),
(312,590,l)
);
},
{
closed = 1;
nodes = (
(74,394,l),
(65,350,l),
(502,350,l),
(511,394,l)
);
}
);
userData = {
assembly = "NPUSHB[ ]	/* 49 values pushed */
0 3 2 3 133 6 1 0 1 0 134 4 1 2 1 1 2 87 4 1 2 2 1 95 5 1 1 2 1 79 1 0 24 22 19 17 15 12 10 8 5 3 0 27 1 26 7 7 22
CALL[ ]	/* CallFunction */";
};
width = 531;
}
);
note = plus;
unicode = 43;
},
{
glyphname = minus;
lastChange = "2025-10-05 17:24:41 +0000";
layers = (
{
layerId = m01;
shapes = (
{
closed = 1;
nodes = (
(94,394,l),
(85,350,l),
(482,350,l),
(491,394,l)
);
}
);
userData = {
assembly = "NPUSHB[ ]	/* 28 values pushed */
0 1 0 0 1 87 0 1 1 0 95 2 1 0 1 0 79 1 0 7 4 0 11 1 10 3 6 22
CALL[ ]	/* CallFunction */";
};
width = 531;
}
);
note = minus;
unicode = 8722;
},
{
glyphname = multiply;
lastChange = "2025-10-05 17:24:41 +0000";
layers = (
{
layerId = m01;
shapes = (
{
closed = 1;
nodes = (
(175,556,l),
(136,525,l),
(402,187,l),
(440,219,l)
);
},
{
closed = 1;
nodes = (
(505,524,l),
(481,556,l),
(71,218,l),
(96,187,l)
);
}
);
userData = {
assembly = "PUSHB[ ]	/* 4 values pushed */
23 9 1 50
CALL[ ]	/* CallFunction */";
};
width = 531;
}
);
note = multiply;
unicode = 215;
},
{
glyphname = divide;
lastChange = "2025-10-05 17:24:41 +0000";
layers = (
{
layerId = m01;
shapes = (
{
closed = 1;
nodes = (
(370,514,o),
(375,538,qs),
(380,561,o),
(354,590,o),
(334,590,qs),
(312,590,o),
(275,561,o),
(270,538,qs),
(265,514,o),
(290,485,o),
(312,485,qs),
(332,485,o)
);
},
{
closed = 1;
nodes = (
(299,182,o),
(304,206,qs),
(309,229,o),
(284,258,o),
(264,258,qs),
(242,258,o),
(204,229,o),
(199,206,qs),
(194,182,o),
(219,153,o),
(241,153,qs),
(261,153,o)
);
},
{
closed = 1;
nodes = (
(94,394,l),
(85,350,l),
(482,350,l),
(491,394,l)
);
}
);
userData = {
assembly = "NPUSHB[ ]	/* 62 values pushed */
0 1 6 1 0 3 1 0 105 0 3 7 1 2 5 3 2 103 0 5 4 4 5 89 0 5 5 4 97 8 1 4 5 4 81 25 24 13 12 1 0 31 29 24 35 25 35 19 16 12 23 13 22 7 5 0 11 1 11 9 7 22
CALL[ ]	/* CallFunction */";
};
width = 531;
}
);
note = divide;
unicode = 247;
},
{
glyphname = equal;
lastChange = "2025-10-05 17:24:41 +0000";
layers = (
{
layerId = m01;
shapes = (
{
closed = 1;
nodes = (
(104,488,l),
(95,444,l),
(512,444,l),
(521,488,l)
);
},
{
closed = 1;
nodes = (
(64,296,l),
(54,252,l),
(471,252,l),
(481,296,l)
);
}
);
userData = {
assembly = "MPPEM[ ]	/* MeasurePixelPerEm */
PUSHB[ ]	/* 1 value pushed */
23
LT[ ]	/* LessThan */
IF[ ]	/* If */
NPUSHB[ ]	/* 20 values pushed */
0 3 5 1 2 3 2 99 4 1 0 0 1 95 0 1 1 17 0 78
ELSE[ ]	/* Else */
NPUSHB[ ]	/* 26 values pushed */
0 1 4 1 0 3 1 0 103 0 3 2 2 3 87 0 3 3 2 95 5 1 2 3 2 79
EIF[ ]	/* EndIf */
NPUSHB[ ]	/* 19 values pushed */
13 12 1 0 19 16 12 23 13 22 7 4 0 11 1 10 6 7 22
CALL[ ]	/* CallFunction */";
};
width = 531;
}
);
note = equal;
unicode = 61;
},
{
glyphname = greater;
lastChange = "2025-10-05 17:24:41 +0000";
layers = (
{
layerId = m01;
shapes = (
{
closed = 1;
nodes = (
(482,389,l),
(145,538,l),
(121,497,l),
(414,367,l),
(66,237,l),
(72,196,l),
(473,345,l)
);
}
);
userData = {
assembly = "PUSHB[ ]	/* 4 values pushed */
13 1 1 50
CALL[ ]	/* CallFunction */";
};
width = 537;
}
);
note = greater;
unicode = 62;
},
{
glyphname = asciitilde;
lastChange = "2025-10-05 17:24:41 +0000";
layers = (
{
layerId = m01;
shapes = (
{
closed = 1;
nodes = (
(364,281,o),
(471,286,o),
(509,414,c),
(475,414,l),
(442,307,o),
(348,362,o),
(272,399,cs),
(200,434,o),
(94,427,o),
(59,301,c),
(93,301,l),
(125,408,o),
(220,355,o),
(296,317,cs)
);
}
);
width = 531;
}
);
note = asciitilde;
unicode = 126;
},
{
glyphname = asciicircum;
lastChange = "2025-10-05 17:24:41 +0000";
layers = (
{
layerId = m01;
shapes = (
{
closed = 1;
nodes = (
(112,510,l),
(134,510,l),
(238,656,l),
(280,510,l),
(302,510,l),
(278,750,l),
(238,750,l)
);
}
);
userData = {
assembly = "PUSHB[ ]	/* 2 values pushed */
6 100
WCVTP[ ]	/* WriteCVTInPixels */
NPUSHB[ ]	/* 12 values pushed */
16 1 0 73 0 0 0 118 38 1 7 23
CALL[ ]	/* CallFunction */
PUSHB[ ]	/* 2 values pushed */
6 0
WCVTP[ ]	/* WriteCVTInPixels */";
};
width = 312;
}
);
note = asciicircum;
unicode = 94;
},
{
glyphname = percent;
lastChange = "2025-10-05 17:24:41 +0000";
layers = (
{
layerId = m01;
shapes = (
{
closed = 1;
nodes = (
(341,490,o),
(396,750,o),
(248,750,cs),
(100,750,o),
(45,490,o),
(193,490,cs)
);
},
{
closed = 1;
nodes = (
(171,523,o),
(147,543,o),
(160,605,cs),
(167,635,ls),
(180,697,o),
(212,717,o),
(241,717,cs),
(270,717,o),
(294,697,o),
(281,635,cs),
(274,605,ls),
(261,543,o),
(229,523,o),
(200,523,cs)
);
},
{
closed = 1;
nodes = (
(453,-10,o),
(508,250,o),
(360,250,cs),
(212,250,o),
(157,-10,o),
(305,-10,cs)
);
},
{
closed = 1;
nodes = (
(283,23,o),
(259,43,o),
(272,105,cs),
(278,135,ls),
(292,197,o),
(324,217,o),
(353,217,cs),
(382,217,o),
(406,197,o),
(392,135,cs),
(386,105,ls),
(373,43,o),
(341,23,o),
(312,23,cs)
);
},
{
attr = {
strokeWidth = 40;
};
closed = 0;
nodes = (
(520,660,l),
(66,121,l)
);
}
);
userData = {
assembly = "NPUSHB[ ]	/* 95 values pushed */
12 1 4 10 1 0 7 4 0 105 0 7 0 9 8 7 9 105 0 3 3 14 77 0 5 5 1 97 0 1 1 20 77 11 1 2 2 15 77 14 1 8 8 6 97 13 1 6 6 21 6 78 57 56 41 40 29 28 17 16 1 0 63 61 56 67 57 67 49 47 40 55 41 55 35 33 28 39 29 39 23 20 16 27 17 26 9 7 0 15 1 15 15 7 22
CALL[ ]	/* CallFunction */";
};
width = 500;
}
);
note = percent;
unicode = 37;
},
{
glyphname = perthousand;
lastChange = "2025-10-05 17:24:41 +0000";
layers = (
{
layerId = m01;
shapes = (
{
closed = 1;
nodes = (
(341,490,o),
(396,750,o),
(248,750,cs),
(100,750,o),
(45,490,o),
(193,490,cs)
);
},
{
closed = 1;
nodes = (
(171,523,o),
(147,543,o),
(160,605,cs),
(167,635,ls),
(180,697,o),
(212,717,o),
(241,717,cs),
(270,717,o),
(294,697,o),
(281,635,cs),
(274,605,ls),
(261,543,o),
(229,523,o),
(200,523,cs)
);
},
{
closed = 1;
nodes = (
(193,-10,o),
(224,7,o),
(248,32,c),
(260,7,o),
(285,-10,o),
(323,-10,cs),
(471,-10,o),
(526,250,o),
(378,250,cs),
(340,250,o),
(308,233,o),
(285,208,c),
(272,233,o),
(248,250,o),
(210,250,cs),
(62,250,o),
(7,-10,o),
(155,-10,cs)
);
},
{
closed = 1;
nodes = (
(133,23,o),
(109,43,o),
(122,105,cs),
(128,135,ls),
(142,197,o),
(174,217,o),
(203,217,cs),
(232,217,o),
(256,197,o),
(242,135,cs),
(236,105,ls),
(223,43,o),
(191,23,o),
(162,23,cs)
);
},
{
closed = 1;
nodes = (
(301,23,o),
(277,43,o),
(290,105,cs),
(296,135,ls),
(310,197,o),
(342,217,o),
(371,217,cs),
(400,217,o),
(424,197,o),
(410,135,cs),
(404,105,ls),
(391,43,o),
(359,23,o),
(330,23,cs)
);
},
{
attr = {
strokeWidth = 40;
};
closed = 0;
nodes = (
(55,256,l),
(470,533,l)
);
}
);
userData = {
assembly = "NPUSHB[ ]	/* 119 values pushed */
65 51 2 10 11 1 76 16 1 4 14 1 0 7 4 0 105 8 1 7 13 1 11 10 7 11 105 0 3 3 14 77 0 5 5 1 97 0 1 1 20 77 15 1 2 2 15 77 19 12 18 3 10 10 6 97 9 17 2 6 6 21 6 78 81 80 69 68 41 40 29 28 17 16 1 0 87 85 80 91 81 91 75 73 68 79 69 79 63 61 55 53 49 47 40 67 41 67 35 33 28 39 29 39 23 20 16 27 17 26 9 7 0 15 1 15 20 7 22
CALL[ ]	/* CallFunction */";
};
width = 518;
}
);
note = perthousand;
unicode = 8240;
},
{
glyphname = uni0308;
lastChange = "2025-10-05 17:24:41 +0000";
layers = (
{
anchors = (
{
name = _top;
pos = (256,510);
}
);
layerId = m01;
shapes = (
{
closed = 1;
nodes = (
(241,636,o),
(245,656,qs),
(249,676,o),
(230,701,o),
(211,701,qs),
(192,701,o),
(160,676,o),
(156,656,qs),
(152,636,o),
(172,610,o),
(191,610,qs),
(210,610,o)
);
},
{
closed = 1;
nodes = (
(413,636,o),
(417,656,qs),
(421,676,o),
(402,701,o),
(383,701,qs),
(364,701,o),
(332,676,o),
(328,656,qs),
(324,636,o),
(344,610,o),
(363,610,qs),
(382,610,o)
);
}
);
userData = {
assembly = "PUSHB[ ]	/* 2 values pushed */
6 100
WCVTP[ ]	/* WriteCVTInPixels */
NPUSHB[ ]	/* 40 values pushed */
3 1 1 0 0 1 89 3 1 1 1 0 97 5 2 4 3 0 1 0 81 13 12 1 0 19 17 12 23 13 23 7 5 0 11 1 11 6 7 22
CALL[ ]	/* CallFunction */
PUSHB[ ]	/* 2 values pushed */
6 0
WCVTP[ ]	/* WriteCVTInPixels */";
};
width = 0;
}
);
note = uni0308;
unicode = 776;
},
{
glyphname = uni0307;
lastChange = "2025-10-05 17:24:41 +0000";
layers = (
{
anchors = (
{
name = _top;
pos = (161,510);
}
);
layerId = m01;
shapes = (
{
closed = 1;
nodes = (
(236,631,o),
(241,654,qs),
(246,677,o),
(224,706,o),
(203,706,qs),
(182,706,o),
(147,677,o),
(142,654,qs),
(137,631,o),
(159,601,o),
(180,601,qs),
(201,601,o)
);
}
);
userData = {
assembly = "PUSHB[ ]	/* 2 values pushed */
6 100
WCVTP[ ]	/* WriteCVTInPixels */
NPUSHB[ ]	/* 28 values pushed */
0 1 0 0 1 89 0 1 1 0 97 2 1 0 1 0 81 1 0 7 5 0 11 1 11 3 7 22
CALL[ ]	/* CallFunction */
PUSHB[ ]	/* 2 values pushed */
6 0
WCVTP[ ]	/* WriteCVTInPixels */";
};
width = 0;
}
);
note = uni0307;
unicode = 775;
},
{
glyphname = gravecomb;
lastChange = "2025-10-05 17:24:41 +0000";
layers = (
{
anchors = (
{
name = _top;
pos = (229,510);
}
);
layerId = m01;
shapes = (
{
closed = 1;
nodes = (
(229,580,l),
(251,580,l),
(279,760,l),
(209,760,l)
);
}
);
userData = {
assembly = "PUSHB[ ]	/* 2 values pushed */
6 100
WCVTP[ ]	/* WriteCVTInPixels */
PUSHB[ ]	/* 8 values pushed */
0 0 0 118 38 1 7 23
CALL[ ]	/* CallFunction */
PUSHB[ ]	/* 2 values pushed */
6 0
WCVTP[ ]	/* WriteCVTInPixels */";
};
width = 0;
}
);
note = gravecomb;
unicode = 768;
},
{
glyphname = acutecomb;
lastChange = "2025-10-05 17:24:41 +0000";
layers = (
{
anchors = (
{
name = _top;
pos = (228,510);
}
);
layerId = m01;
shapes = (
{
closed = 1;
nodes = (
(237,580,l),
(259,580,l),
(355,760,l),
(285,760,l)
);
}
);
userData = {
assembly = "PUSHB[ ]	/* 2 values pushed */
6 100
WCVTP[ ]	/* WriteCVTInPixels */
PUSHB[ ]	/* 8 values pushed */
0 0 0 118 39 1 7 23
CALL[ ]	/* CallFunction */
PUSHB[ ]	/* 2 values pushed */
6 0
WCVTP[ ]	/* WriteCVTInPixels */";
};
width = 0;
}
);
note = acutecomb;
unicode = 769;
},
{
glyphname = uni0302;
lastChange = "2025-10-05 17:24:41 +0000";
layers = (
{
anchors = (
{
name = _top;
pos = (268,510);
}
);
layerId = m01;
shapes = (
{
closed = 1;
nodes = (
(198,580,l),
(220,580,l),
(306,686,l),
(346,580,l),
(368,580,l),
(339,750,l),
(299,750,l)
);
}
);
userData = {
assembly = "PUSHB[ ]	/* 2 values pushed */
6 100
WCVTP[ ]	/* WriteCVTInPixels */
NPUSHB[ ]	/* 12 values pushed */
16 1 0 73 0 0 0 118 54 1 7 23
CALL[ ]	/* CallFunction */
PUSHB[ ]	/* 2 values pushed */
6 0
WCVTP[ ]	/* WriteCVTInPixels */";
};
width = 0;
}
);
note = uni0302;
unicode = 770;
},
{
glyphname = uni030C;
lastChange = "2025-10-05 17:24:41 +0000";
layers = (
{
anchors = (
{
name = _top;
pos = (268,510);
}
);
layerId = m01;
shapes = (
{
closed = 1;
nodes = (
(305,583,l),
(406,753,l),
(384,753,l),
(298,647,l),
(258,753,l),
(236,753,l),
(265,583,l)
);
}
);
userData = {
assembly = "PUSHB[ ]	/* 2 values pushed */
6 100
WCVTP[ ]	/* WriteCVTInPixels */
NPUSHB[ ]	/* 18 values pushed */
8 1 0 74 1 1 0 0 118 1 0 0 16 1 15 2 7 22
CALL[ ]	/* CallFunction */
PUSHB[ ]	/* 2 values pushed */
6 0
WCVTP[ ]	/* WriteCVTInPixels */";
};
width = 0;
}
);
note = uni030C;
unicode = 780;
},
{
glyphname = uni0306;
lastChange = "2025-10-05 17:24:41 +0000";
layers = (
{
anchors = (
{
name = _top;
pos = (255,510);
}
);
layerId = m01;
shapes = (
{
closed = 1;
nodes = (
(342,589,o),
(376,677,o),
(382,743,c),
(354,743,l),
(347,699,o),
(336,641,o),
(284,641,cs),
(232,641,o),
(246,699,o),
(259,743,c),
(231,743,l),
(209,677,o),
(204,589,o),
(273,589,cs)
);
}
);
userData = {
assembly = "PUSHB[ ]	/* 2 values pushed */
6 100
WCVTP[ ]	/* WriteCVTInPixels */
NPUSHB[ ]	/* 38 values pushed */
3 1 1 2 1 133 0 2 0 0 2 89 0 2 2 0 97 4 1 0 2 0 81 1 0 16 14 11 9 6 4 0 19 1 19 5 7 22
CALL[ ]	/* CallFunction */
PUSHB[ ]	/* 2 values pushed */
6 0
WCVTP[ ]	/* WriteCVTInPixels */";
};
width = 0;
}
);
note = uni0306;
unicode = 774;
},
{
glyphname = uni030A;
lastChange = "2025-10-05 17:24:41 +0000";
layers = (
{
anchors = (
{
name = _top;
pos = (231,566);
}
);
layerId = m01;
shapes = (
{
attr = {
strokeWidth = 38;
};
closed = 1;
nodes = (
(280,623,o),
(318,654,o),
(326,693,cs),
(334,732,o),
(310,763,o),
(273,763,cs),
(235,763,o),
(197,732,o),
(189,693,cs),
(181,654,o),
(205,623,o),
(243,623,cs)
);
}
);
userData = {
assembly = "PUSHB[ ]	/* 2 values pushed */
6 100
WCVTP[ ]	/* WriteCVTInPixels */
NPUSHB[ ]	/* 46 values pushed */
0 1 0 3 2 1 3 105 5 1 2 0 0 2 89 5 1 2 2 0 97 4 1 0 2 0 81 13 12 1 0 19 17 12 23 13 23 7 5 0 11 1 11 6 7 22
CALL[ ]	/* CallFunction */
PUSHB[ ]	/* 2 values pushed */
6 0
WCVTP[ ]	/* WriteCVTInPixels */";
};
width = 0;
}
);
note = uni030A;
unicode = 778;
},
{
glyphname = tildecomb;
lastChange = "2025-10-05 17:24:41 +0000";
layers = (
{
anchors = (
{
name = _top;
pos = (277,510);
}
);
layerId = m01;
shapes = (
{
closed = 1;
nodes = (
(390,607,o),
(410,680,o),
(414,700,c),
(391,700,l),
(386,672,o),
(380,654,o),
(362,654,cs),
(332,654,o),
(324,705,o),
(282,705,cs),
(231,705,o),
(210,632,o),
(206,612,c),
(229,612,l),
(235,640,o),
(241,658,o),
(259,658,cs),
(289,658,o),
(297,607,o),
(339,607,cs)
);
}
);
userData = {
assembly = "PUSHB[ ]	/* 2 values pushed */
6 100
WCVTP[ ]	/* WriteCVTInPixels */
NPUSHB[ ]	/* 46 values pushed */
5 1 3 0 1 4 3 1 105 0 4 0 0 4 89 0 4 4 0 97 2 6 2 0 4 0 81 1 0 26 24 21 19 16 14 11 9 6 4 0 29 1 29 7 7 22
CALL[ ]	/* CallFunction */
PUSHB[ ]	/* 2 values pushed */
6 0
WCVTP[ ]	/* WriteCVTInPixels */";
};
width = 0;
}
);
note = tildecomb;
unicode = 771;
},
{
glyphname = uni0304;
lastChange = "2025-10-05 17:24:41 +0000";
layers = (
{
anchors = (
{
name = _top;
pos = (257,510);
}
);
layerId = m01;
shapes = (
{
closed = 1;
nodes = (
(144,635,l),
(423,635,l),
(432,679,l),
(153,679,l)
);
}
);
userData = {
assembly = "PUSHB[ ]	/* 2 values pushed */
6 100
WCVTP[ ]	/* WriteCVTInPixels */
NPUSHB[ ]	/* 28 values pushed */
0 1 0 0 1 87 0 1 1 0 95 2 1 0 1 0 79 1 0 7 4 0 11 1 10 3 7 22
CALL[ ]	/* CallFunction */
PUSHB[ ]	/* 2 values pushed */
6 0
WCVTP[ ]	/* WriteCVTInPixels */";
};
width = 0;
}
);
note = uni0304;
unicode = 772;
},
{
glyphname = uni0312;
lastChange = "2025-10-05 17:24:41 +0000";
layers = (
{
anchors = (
{
name = _top;
pos = (166,510);
}
);
layerId = m01;
shapes = (
{
closed = 1;
nodes = (
(205,595,o),
(232,616,o),
(238,646,cs),
(245,679,o),
(230,694,o),
(201,694,c),
(210,709,o),
(236,735,o),
(268,751,c),
(255,779,l),
(204,755,o),
(152,705,o),
(140,650,cs),
(132,612,o),
(151,595,o),
(177,595,c)
);
}
);
userData = {
assembly = "PUSHB[ ]	/* 2 values pushed */
6 100
WCVTP[ ]	/* WriteCVTInPixels */
NPUSHB[ ]	/* 14 values pushed */
1 1 0 0 118 1 0 0 20 1 20 2 7 22
CALL[ ]	/* CallFunction */
PUSHB[ ]	/* 2 values pushed */
6 0
WCVTP[ ]	/* WriteCVTInPixels */";
};
width = 0;
}
);
note = uni0312;
unicode = 786;
},
{
glyphname = uni0327;
lastChange = "2025-10-05 17:24:41 +0000";
layers = (
{
anchors = (
{
name = _bottom;
pos = (97,0);
}
);
layerId = m01;
shapes = (
{
closed = 1;
nodes = (
(95,-215,o),
(144,-185,o),
(155,-133,cs),
(165,-89,o),
(143,-55,o),
(97,-48,c),
(122,12,l),
(83,12,l),
(44,-82,l),
(94,-77,o),
(115,-108,o),
(108,-138,cs),
(102,-170,o),
(84,-185,o),
(52,-185,cs),
(0,-185,o),
(37,-131,o),
(-2,-131,cs),
(-17,-131,o),
(-27,-141,o),
(-30,-156,cs),
(-37,-187,o),
(-8,-215,o),
(44,-215,cs)
);
}
);
width = 0;
}
);
note = uni0327;
unicode = 807;
},
{
glyphname = uni0328;
lastChange = "2025-10-05 17:24:41 +0000";
layers = (
{
anchors = (
{
name = _ogonek;
pos = (137,0);
}
);
layerId = m01;
shapes = (
{
closed = 1;
nodes = (
(60,-216,o),
(99,-201,o),
(140,-165,c),
(123,-140,l),
(70,-188,o),
(8,-190,o),
(20,-133,cs),
(31,-82,o),
(71,-33,o),
(137,0,c),
(123,24,l),
(35,-19,o),
(-17,-81,o),
(-29,-138,cs),
(-39,-188,o),
(-7,-216,o),
(31,-216,cs)
);
}
);
width = 0;
}
);
note = uni0328;
unicode = 808;
},
{
glyphname = acute;
lastChange = "2025-10-05 17:24:41 +0000";
layers = (
{
layerId = m01;
shapes = (
{
closed = 1;
nodes = (
(126,580,l),
(148,580,l),
(244,760,l),
(174,760,l)
);
}
);
width = 200;
}
);
note = acute;
unicode = 180;
},
{
glyphname = l_l;
lastChange = "2025-10-05 15:15:23 +0000";
layers = (
{
anchors = (
{
name = bottom;
pos = (62,0);
},
{
name = top;
pos = (188,710);
}
);
layerId = m01;
shapes = (
{
pos = (228,0);
ref = l;
},
{
closed = 1;
nodes = (
(254,-10,o),
(298,68,o),
(337,160,cs),
(351,193,l),
(322,206,l),
(308,175,ls),
(282,117,o),
(238,49,o),
(181,49,cs),
(150,49,o),
(131,79,o),
(145,143,cs),
(274,750,l),
(88,732,l),
(81,698,l),
(195,698,l),
(77,143,ls),
(58,52,o),
(78,-10,o),
(163,-10,cs)
);
}
);
width = 567;
}
);
metricLeft = l;
},
{
glyphname = bowtie;
lastChange = "2025-10-05 17:25:02 +0000";
layers = (
{
layerId = m01;
shapes = (
{
attr = {
strokePos = "1";
strokeWidth = 52;
};
closed = 1;
nodes = (
(10,-40,l),
(343,237,l),
(558,-40,l),
(694,598,l),
(361,321,l),
(146,598,l)
);
}
);
width = 680;
}
);
unicode = 8904;
},
{
glyphname = newGlyph;
lastChange = "2025-10-05 17:25:02 +0000";
layers = (
{
layerId = m01;
shapes = (
{
closed = 1;
nodes = (
(10,-40,l),
(343,237,l),
(558,-40,l),
(694,598,l),
(361,321,l),
(146,598,l)
);
}
